<?xml version="1.0" encoding="UTF-8"?><svg id="Layer_2" xmlns="http://www.w3.org/2000/svg" viewBox="0 0 347 62.57"><defs><style>.cls-1{fill:#262626;}.cls-2{fill:#3d3d3d;}</style></defs><g id="Layer_1-2"><g><g><rect class="cls-1" x="336.6" y="26.12" width="5" height="35" transform="translate(.76 -5.57) rotate(.94)"/><rect class="cls-1" x="281.6" y="23.12" width="5" height="35" transform="translate(3.83 -21.11) rotate(4.29)"/><rect class="cls-1" x="227.61" y="19.72" width="5" height="35" transform="translate(3.42 -17.09) rotate(4.29)"/><rect class="cls-1" x="172.61" y="15.72" width="5" height="35" transform="translate(2.97 -12.99) rotate(4.29)"/><rect class="cls-1" x="118.81" y="11.14" width="5" height="35" transform="translate(2.48 -8.98) rotate(4.29)"/><rect class="cls-1" x="66.81" y="7.14" width="5" height="35" transform="translate(2.03 -5.11) rotate(4.29)"/><rect class="cls-1" x="13.81" y=".14" width="5" height="35" transform="translate(1.36 -1.17) rotate(4.29)"/></g><polygon class="cls-2" points="279.66 24.29 225.66 20.29 168.66 16.29 115.66 11.29 61.66 7.29 5.66 .29 4.66 5.29 61.66 12.29 115.66 16.29 168.66 21.29 225.6 25.45 279.66 29.29 279.66 24.29"/><polygon class="cls-2" points="275 53.24 221 49.24 164 45.24 111 40.24 57 36.24 1 29.24 0 34.24 57 41.24 111 45.24 164 50.24 220.94 54.39 275 58.24 275 53.24"/><polygon class="cls-2" points="277 44.24 223 40.24 166 36.24 113 31.24 59 27.24 3 20.24 2 25.24 59 32.24 113 36.24 166 41.24 222.94 45.39 277 49.24 277 44.24"/><polygon class="cls-2" points="278 33.24 224 29.24 167 25.24 114 20.24 60 16.24 4 9.24 3 14.24 60 21.24 114 25.24 167 30.24 223.94 34.39 278 38.24 278 33.24"/><polygon class="cls-2" points="279.66 29.29 347 33.28 347 28.87 279.66 24.29 279.66 29.29"/><polygon class="cls-2" points="275 58.24 347 62.57 347 57.58 275 53.24 275 58.24"/><polygon class="cls-2" points="277 49.24 347 52.24 347 47.6 277 44.24 277 49.24"/><polygon class="cls-2" points="278 38.24 347 42.28 347 37.28 278 33.24 278 38.24"/></g></g></svg>