<?xml version="1.0" encoding="UTF-8"?><svg id="Layer_2" xmlns="http://www.w3.org/2000/svg" viewBox="0 0 553.05 110.06"><defs><style>.cls-1{fill:#262626;}.cls-2{fill:#3d3d3d;}</style></defs><g id="Layer_1-2"><g><g><rect class="cls-1" x="491.98" y="67.65" width="5" height="35" transform="translate(18.77 -74.42) rotate(8.77)"/><rect class="cls-1" x="442.56" y="60.03" width="5" height="35" transform="translate(17.03 -66.97) rotate(8.77)"/><g><rect class="cls-1" x="531.17" y="-5.62" width="5" height="35" transform="translate(440.54 537.5) rotate(-81.23)"/><rect class="cls-1" x="523.55" y="43.8" width="5" height="35" transform="translate(385.24 571.84) rotate(-81.23)"/></g><polygon class="cls-2" points="519.19 0 508.24 70.96 435.14 59.68 434.38 64.62 512.46 76.67 524.13 .76 519.19 0"/><polygon class="cls-2" points="433.72 69.06 516.17 81.78 528.57 1.43 533.51 2.19 520.34 87.54 432.96 74 433.72 69.06"/><polygon class="cls-2" points="538.73 2.99 524.89 93.53 432.15 79.22 431.39 84.16 528.99 99.08 543.67 3.74 538.73 2.99"/><polygon class="cls-2" points="430.7 88.59 532.86 104.21 548.11 4.42 553.05 5.18 537.02 110.06 429.92 93.69 430.7 88.59"/><rect class="cls-1" x="388.6" y="47.19" width="5" height="35" transform="translate(11.33 -48.96) rotate(7.27)"/><rect class="cls-1" x="335.6" y="40.19" width="5" height="35" transform="translate(10.02 -42.31) rotate(7.27)"/><rect class="cls-1" x="281.6" y="33.19" width="5" height="35" transform="translate(5.59 -24.91) rotate(5.07)"/><rect class="cls-1" x="227.61" y="28.79" width="5" height="35" transform="translate(4.1 -17.06) rotate(4.29)"/><rect class="cls-1" x="172.61" y="24.79" width="5" height="35" transform="translate(3.65 -12.97) rotate(4.29)"/><rect class="cls-1" x="118.81" y="20.21" width="5" height="35" transform="translate(3.16 -8.96) rotate(4.29)"/><rect class="cls-1" x="66.81" y="16.21" width="5" height="35" transform="translate(2.71 -5.08) rotate(4.29)"/><rect class="cls-1" x="13.81" y="9.21" width="5" height="35" transform="translate(2.04 -1.14) rotate(4.29)"/></g><polygon class="cls-2" points="435.14 59.68 385.66 47.36 332.66 40.36 279.66 33.36 225.66 29.36 168.66 25.36 115.66 20.36 61.66 16.36 5.66 9.36 4.66 14.36 61.66 21.36 115.66 25.36 168.66 30.36 225.6 34.52 279.66 38.36 332.66 45.36 385.66 52.36 434.38 64.62 435.14 59.68"/><polygon class="cls-2" points="381 76.31 328 69.31 275 62.31 221 58.31 164 54.31 111 49.31 57 45.31 1 38.31 0 43.31 57 50.31 111 54.31 164 59.31 220.94 63.47 275 67.31 328 74.31 381 81.31 381 76.31"/><polygon class="cls-2" points="383 67.31 330 60.31 277 53.31 223 49.31 166 45.31 113 40.31 59 36.31 3 29.31 2 34.31 59 41.31 113 45.31 166 50.31 222.94 54.47 277 58.31 330 65.31 383 72.31 383 67.31"/><polygon class="cls-2" points="384 56.31 331 49.31 278 42.31 224 38.31 167 34.31 114 29.31 60 25.31 4 18.31 3 23.31 60 30.31 114 34.31 167 39.31 223.94 43.47 278 47.31 331 54.31 384 61.31 384 56.31"/><polygon class="cls-2" points="433.72 69.06 384 56.31 384 61.31 432.96 74 433.72 69.06"/><polygon class="cls-2" points="432.15 79.22 431.39 84.16 383 72.31 383 67.31 432.15 79.22"/><polygon class="cls-2" points="430.7 88.59 429.92 93.69 381 81.31 381 76.31 430.7 88.59"/></g></g></svg>