<?xml version="1.0" encoding="UTF-8"?><svg id="Layer_2" xmlns="http://www.w3.org/2000/svg" viewBox="0 0 179.28 230.83"><defs><style>.cls-1{fill:#f7db17;}.cls-2{fill:#0093dd;}.cls-3{fill:#fff;}.cls-4{fill:red;}.cls-5{fill:#171796;}.cls-6{fill:#2b2115;}.cls-7{fill:#262626;}.cls-8,.cls-9,.cls-10,.cls-11{stroke-miterlimit:10;stroke-width:1px;}.cls-8,.cls-12{fill:#9ec0dd;stroke:#fff;}.cls-9,.cls-10,.cls-13{stroke:#606060;}.cls-9,.cls-13{fill:#d6dadb;}.cls-10{fill:#86433a;}.cls-11{fill:#30373d;stroke:#30373d;}.cls-12,.cls-13{stroke-miterlimit:10;}.cls-14{isolation:isolate;}</style></defs><g id="Layer_2-2"><g><g id="Layer_1-2"><g><g><rect class="cls-10" x="103.24" y="61.35" width="11.8" height="73.6" transform="translate(1.32 197.74) rotate(-84.69)"/><rect class="cls-9" x="43.51" y="126.49" width="120.7" height="75.4" transform="translate(-69.24 252.4) rotate(-84.69)"/><rect class="cls-9" x="88.56" y="148.26" width="132.5" height="29.4" transform="translate(-21.77 302.03) rotate(-84.69)"/><rect class="cls-9" x="-14.02" y="138.73" width="132.5" height="29.4" transform="translate(-105.38 191.24) rotate(-84.69)"/><polygon class="cls-13" points="58.08 116.94 111.08 97.54 158.58 126.34 65.28 117.64 58.08 116.94"/><polygon class="cls-13" points="58.78 183.34 142.78 191.14 143.68 181.44 59.88 173.64 58.78 183.34"/><path class="cls-13" d="M67.18,127.64l-3.8-.4-.4,4.4,3.1,.3c-1.5-.2-5.6,37.9-4.1,38.1l-2.3-.2-.5,3.8,11.5,1.1,.2-3.8-2.5-.9s1.6-9.2,2.4-18.8,.4-18.8,.4-18.8l3.1,.3,.4-4.4-7.5-.7h0Z"/><path class="cls-13" d="M90.08,129.74l-3.8-.4-.4,4.4,3.1,.3c-1.5-.2-5.6,37.9-4.1,38.1l-2.3-.2-.5,3.8,11.5,1.1,.2-3.8-2.3-.8s1.6-9.2,2.4-18.8,.4-18.8,.4-18.8l3.1,.3,.4-4.4-7.7-.8h0Z"/><path class="cls-13" d="M142.38,134.64l-3.8-.4-.4,4.4,3.1,.3c-1.5-.2-5.6,37.9-4.1,38.1l-2.4-.2-.5,3.8,11.5,1.1,.2-3.8-2.3-.8s1.6-9.2,2.4-18.8c.8-9.2,.4-18.8,.4-18.8l3.1,.3,.4-4.4-7.6-.8h0Z"/><path class="cls-13" d="M117.78,132.34l-3.8-.4-.4,4.4,3.1,.3c-1.5-.2-5.6,37.9-4.1,38.1l-2.4-.2-.5,3.8,11.5,1.1,.2-3.8-2.3-.8s1.6-9.2,2.4-18.8,.4-18.8,.4-18.8l3.1,.3,.4-4.4-7.6-.8h0Z"/><rect class="cls-9" x="43.95" y="197.04" width="37.1" height="10.6" transform="translate(-144.76 245.84) rotate(-84.69)"/><rect class="cls-9" x="117.23" y="203.83" width="37.1" height="10.6" transform="translate(-85.02 324.97) rotate(-84.69)"/><rect class="cls-9" x="66.17" y="199.06" width="37.1" height="10.6" transform="translate(-126.61 269.81) rotate(-84.69)"/><rect class="cls-9" x="94.4" y="201.67" width="37.1" height="10.6" transform="translate(-103.58 300.28) rotate(-84.69)"/><rect class="cls-11" x="80.03" y="196.49" width="37.1" height="18.3" transform="translate(-115.3 284.77) rotate(-84.69)"/><rect class="cls-8" x="69.58" y="134.29" width="19.4" height="8.5" transform="translate(-66 204.67) rotate(-84.69)"/><rect class="cls-8" x="67.5" y="156.8" width="19.4" height="8.5" transform="translate(-90.3 223.01) rotate(-84.69)"/><rect class="cls-8" x="95.25" y="136.74" width="19.4" height="8.5" transform="translate(-45.15 232.44) rotate(-84.69)"/><rect class="cls-8" x="93.18" y="159.26" width="19.4" height="8.5" transform="translate(-69.45 250.81) rotate(-84.69)"/><rect class="cls-8" x="121.68" y="139.2" width="19.4" height="8.5" transform="translate(-23.61 260.99) rotate(-84.69)"/><rect class="cls-8" x="119.6" y="161.7" width="19.4" height="8.5" transform="translate(-47.91 279.33) rotate(-84.69)"/><rect class="cls-8" x="63.96" y="198.17" width="19.4" height="8.5" transform="translate(-134.71 257.02) rotate(-84.69)"/><rect class="cls-8" x="114.88" y="203.99" width="19.4" height="8.5" transform="translate(-94.3 313.01) rotate(-84.69)"/><rect class="cls-8" x="142.99" y="206.65" width="19.4" height="8.5" transform="translate(-71.44 343.42) rotate(-84.69)"/><rect class="cls-8" x="36.38" y="195.53" width="19.4" height="8.5" transform="translate(-157.1 227.17) rotate(-84.69)"/><rect class="cls-8" x="42.3" y="132.1" width="19.4" height="8.5" transform="translate(-88.58 175.51) rotate(-84.69)"/><rect class="cls-8" x="40.21" y="154.62" width="19.4" height="8.5" transform="translate(-112.9 193.86) rotate(-84.69)"/><rect class="cls-8" x="149.04" y="141.41" width="19.4" height="8.5" transform="translate(-.98 290.24) rotate(-84.69)"/><rect class="cls-8" x="146.94" y="163.93" width="19.4" height="8.5" transform="translate(-25.31 308.58) rotate(-84.69)"/><circle class="cls-12" cx="54.48" cy="104.24" r="3.8"/><circle class="cls-12" cx="161.98" cy="111.94" r="3.8"/><polygon class="cls-13" points="64.18 127.34 148.28 135.14 149.18 125.44 65.28 117.64 64.18 127.34"/></g><g><path class="cls-7" d="M128.68,52.14s-2.1,11.7-5.3,19.2c-9.8,24.7-17.4,38.3-17.4,38.3l1.7,1.5s16.4-33.7,18.1-39.5,5.8-18.8,5-19.7-2.1,.2-2.1,.2h0Z"/><g><path class="cls-4" d="M129.28,53.84c.1-.1,.2-.2,.4-.3,.1-.1,.3-.2,.4-.3,.1-.1,.3-.2,.5-.2,.2-.1,.3-.2,.5-.2,.2-.1,.4-.1,.6-.2s.4-.1,.6-.2c.2-.1,.4-.1,.6-.1s.4-.1,.6-.1,.4-.1,.7-.1,.4-.1,.7-.1h2.8c.3,0,.4,0,.6,.1,.2,0,.4,.1,.6,.1s.4,.1,.6,.1c.2,.1,.4,.1,.6,.1s.4,.1,.6,.2c.2,.1,.4,.1,.5,.2,.2,.1,.4,.1,.5,.2,.2,.1,.3,.2,.5,.2,.1,.1,.3,.2,.4,.3,.1,.1,.3,.2,.4,.3l.3,.3,.3,.3c.1,.1,.2,.2,.2,.4s.1,.2,.2,.4c.1,.1,.1,.3,.1,.4s.1,.3,.1,.4v1.8c0,.2,.1,.4,.1,.6s.1,.3,.1,.5c.1,.2,.1,.3,.2,.4s.1,.3,.2,.4,.2,.2,.2,.3,.2,.2,.3,.3c.1,.1,.2,.2,.3,.2,.1,.1,.2,.1,.4,.2l.4,.2c.1,.1,.3,.1,.4,.1l.4,.1c.1,0,.3,.1,.4,.1s.3,0,.5,.1,.3,0,.5,0h2l.5-.1c.2,0,.4,0,.6-.1,.2,0,.4,0,.6-.1,.2,0,.4,0,.6-.1h1.8c.2,0,.4,0,.5,.1s.3,.1,.5,.1c.1,0,.3,.1,.5,.1,.1,.1,.3,.1,.4,.2,.1,.1,.3,.1,.4,.2,.1,.1,.2,.2,.4,.3l.3,.3,.3,.3c.1,.1,.1,.3,.2,.4,.1,.1,.1,.3,.1,.4s.1,.3,.1,.5v1.6c0,.1,0,.3,.1,.4s.1,.2,.1,.4,.1,.2,.2,.3l.3,.3c.1,.1,.2,.2,.3,.2,.1,.1,.2,.1,.4,.2s.3,.1,.4,.2l.5,.1c.2,.1,.4,.1,.5,.1,.2,0,.4,.1,.6,.1h5.3c.2,0,.4,0,.6,.1,.2,0,.4,.1,.5,.1s.3,.1,.5,.2,.3,.1,.5,.2,.3,.2,.4,.2,.3,.2,.4,.3l.4,.4c.2,.2,.2,.3,.3,.4s.2,.3,.2,.5c.1,.2,.1,.4,.2,.6,.1,.2,.1,.4,.1,.7,0,.2,0,.5,.1,.7s.1,.4,.1,.7,.1,.4,.2,.6c.1,.2,.2,.3,.3,.5s.2,.3,.3,.4,.3,.2,.4,.3,.3,.2,.5,.3c.1,.1,.3,.2,.5,.2,.2,.1,.4,.1,.5,.1s.4,.1,.6,.1h1.2c.2,0,.4,0,.6-.1,.2,0,.4-.1,.6-.1s.4-.1,.6-.2c.2-.1,.4-.1,.6-.2,.2-.1,.4-.1,.5-.2,.2-.1,.3-.2,.5-.2-.1,.2-.1,.3-.2,.5l-.2,.4c-.1,.2-.1,.3-.2,.4-.1,.1-.1,.3-.2,.4l-.2,.4c-.1,.1-.1,.3-.2,.4-.1,.1-.1,.3-.2,.4-.1,.1-.1,.3-.2,.4s-.1,.3-.2,.4c-.1,.1-.1,.3-.2,.4-.1,.1-.1,.3-.2,.4s-.1,.3-.2,.4c-.1,.1-.1,.3-.2,.4s-.1,.3-.2,.4-.1,.3-.2,.4-.1,.3-.2,.4-.1,.3-.2,.4-.1,.3-.2,.5c-.1,.2-.1,.3-.2,.5-.1,.2-.2,.3-.2,.5-.1,.2-.2,.3-.2,.5s-.2,.4-.3,.6c-.2,.1-.4,.1-.6,.2s-.4,.1-.6,.2c-.2,.1-.4,.1-.6,.1s-.4,.1-.6,.1-.4,.1-.7,.1h-1.3c-.2,0-.4,0-.6-.1-.2,0-.4-.1-.6-.1-.2-.1-.4-.1-.5-.2-.2-.1-.3-.2-.5-.2-.1-.1-.3-.2-.4-.3s-.3-.2-.4-.4-.2-.3-.3-.4c-.1-.2-.1-.3-.2-.5-.1-.2-.1-.4-.1-.6s0-.4-.1-.6c0-.2,0-.5-.1-.7,0-.2-.1-.4-.1-.6-.1-.2-.1-.4-.2-.5s-.1-.3-.2-.5-.2-.3-.3-.4-.2-.2-.4-.3-.3-.2-.4-.3c-.1-.1-.3-.2-.4-.2s-.3-.1-.5-.2c-.2,0-.3-.1-.5-.1s-.4-.1-.6-.1h-1.8c-.2,0-.5,0-.7,.1-.2,0-.5,0-.7,.1s-.5,0-.7,0h-1.3c-.2,0-.4,0-.6-.1s-.4-.1-.6-.1-.3-.1-.5-.1c-.1,0-.3-.1-.5-.2-.1-.1-.3-.1-.4-.2-.1-.1-.2-.1-.4-.2-.1-.1-.2-.2-.3-.2-.1-.1-.2-.2-.2-.3-.1-.1-.1-.2-.2-.3-.1-.1-.1-.2-.1-.4,0-.1-.1-.3-.1-.4s0-.3-.1-.5-.1-.3-.1-.5-.1-.3-.1-.4c0-.2-.1-.3-.1-.4s-.1-.3-.2-.4-.1-.3-.2-.4l-.3-.3-.3-.3c-.1-.1-.2-.2-.4-.2s-.2-.1-.4-.2-.3-.1-.4-.2l-.4-.1c-.1,0-.3-.1-.5-.1h-6.6c-.1,0-.3,0-.5-.1s-.3-.1-.5-.1-.3-.1-.4-.1c-.1-.1-.3-.1-.4-.2-.1-.1-.2-.1-.4-.2-.1-.1-.2-.2-.3-.2s-.2-.2-.3-.3-.2-.2-.2-.3c-.1-.1-.1-.3-.2-.4s-.1-.3-.2-.4-.1-.3-.1-.5-.1-.4-.1-.6v-1.1c0-.2,0-.3-.1-.5l-.1-.5c0-.2-.1-.3-.1-.4-.1-.1-.1-.3-.2-.4-.1-.1-.2-.2-.2-.3s-.2-.2-.3-.3c-.1-.1-.2-.2-.4-.3-.1-.1-.2-.2-.4-.3s-.3-.2-.4-.2c-.1-.1-.3-.1-.5-.2s-.3-.1-.5-.2-.4-.1-.6-.2-.4-.1-.6-.1-.4-.1-.6-.1-.4-.1-.6-.1-.4,0-.6-.1-.4,0-.7,0h-1.4c-.3,0-.4,0-.7,.1-.2,0-.4,.1-.7,.1s-.4,.1-.7,.1-.4,.1-.6,.1c-.2,.1-.4,.1-.6,.2-.2,.1-.4,.1-.6,.2s-.4,.1-.6,.2c-.2,.1-.4,.2-.5,.2s-.3,.2-.5,.3-.3,.2-.4,.3c.1-.2,.1-.4,.2-.6,.1-.2,.1-.4,.2-.6,.1-.2,.1-.4,.2-.6,.1-.2,.1-.4,.1-.6l.1-.5,.1-.5,.1-.5,.1-.5,.1-.4,.1-.4,.1-.4,.1-.4,.1-.4c0-.2,.1-.3,.1-.4,0-.2,.1-.3,.1-.4,0-.2,.1-.3,.1-.4,0-.2,.1-.3,.1-.4,0-.2,.1-.3,.1-.4,0-.2,.1-.3,.1-.4,0-.2,.1-.3,.1-.4,0-.2,.1-.3,.1-.4,.7-.2,.7-.4,.9-.6"/><path class="cls-3" d="M126.68,64.44c.1-.1,.3-.2,.4-.3,.1-.1,.3-.2,.5-.3s.3-.2,.5-.2c.2-.1,.4-.2,.6-.2s.4-.1,.6-.2c.2-.1,.4-.1,.6-.2,.2-.1,.4-.1,.6-.1s.4-.1,.7-.1c.2,0,.4-.1,.7-.1s.4,0,.7-.1h2.1c.2,0,.4,0,.6,.1s.4,.1,.6,.1,.4,.1,.6,.1,.4,.1,.6,.1,.4,.1,.6,.2c.2,.1,.4,.1,.5,.2,.2,.1,.3,.1,.5,.2,.1,.1,.3,.2,.4,.2,.1,.1,.3,.2,.4,.3,.1,.1,.2,.2,.4,.3l.3,.3c.1,.1,.2,.2,.2,.3,.1,.1,.1,.2,.2,.4,.1,.1,.1,.3,.1,.4,0,.2,.1,.3,.1,.5s.1,.3,.1,.5v1.1c0,.2,.1,.4,.1,.6s.1,.3,.1,.5c.1,.2,.1,.3,.2,.4,.1,.1,.1,.3,.2,.4s.2,.2,.2,.3l.3,.3c.1,.1,.2,.2,.3,.2,.1,.1,.2,.2,.4,.2,.1,.1,.3,.1,.4,.2,.1,.1,.3,.1,.4,.1s.3,.1,.5,.1,.3,0,.5,.1h6.6c.2,0,.3,0,.5,.1,.1,0,.3,.1,.4,.1s.3,.1,.4,.2c.1,.1,.3,.1,.4,.2s.2,.2,.4,.2,.2,.2,.3,.3l.3,.3c.1,.1,.1,.2,.2,.4,.1,.1,.1,.3,.2,.4,.1,.1,.1,.3,.1,.4,0,.2,.1,.3,.1,.4s.1,.3,.1,.5,.1,.3,.1,.5,0,.3,.1,.4c0,.1,.1,.3,.1,.4s.1,.2,.2,.3,.1,.2,.2,.3,.2,.2,.3,.2,.2,.2,.4,.2,.3,.1,.4,.2,.3,.1,.5,.2c.1,0,.3,.1,.5,.1s.4,.1,.6,.1,.4,0,.6,.1h2c.2,0,.5,0,.7-.1,.2,0,.5,0,.7-.1s.4,0,.6,0h1.2c.2,0,.4,0,.6,.1,.2,0,.4,.1,.5,.1s.3,.1,.5,.2,.3,.1,.4,.2c.1,.1,.3,.2,.4,.3s.2,.2,.4,.3,.2,.2,.3,.4c.1,.1,.2,.3,.2,.5,.1,.2,.1,.3,.2,.5s.1,.4,.1,.6,.1,.5,.1,.7v.6c0,.2,.1,.4,.1,.6s.1,.3,.2,.5c.1,.2,.2,.3,.3,.4s.2,.3,.4,.4,.3,.2,.4,.3c.1,.1,.3,.2,.5,.2s.4,.1,.5,.2c.2,.1,.4,.1,.6,.1s.4,.1,.6,.1h1.3c.3,0,.4,0,.7-.1,.2,0,.4-.1,.6-.1s.4-.1,.6-.1c.2-.1,.4-.1,.6-.2s.4-.1,.6-.2c-.1,.2-.2,.3-.2,.5s-.2,.3-.2,.5-.2,.3-.2,.5-.1,.3-.2,.5-.1,.3-.2,.4-.1,.3-.2,.4-.1,.3-.2,.4c-.1,.1-.1,.3-.2,.4s-.1,.3-.2,.4c-.1,.1-.1,.3-.2,.4-.1,.1-.1,.3-.2,.4-.1,.1-.1,.3-.2,.4s-.1,.3-.2,.4-.1,.3-.2,.4-.1,.3-.2,.4-.1,.3-.2,.4c-.1,.1-.1,.3-.2,.4s-.1,.3-.2,.4c-.1,.1-.2,.3-.2,.4-.1,.1-.2,.3-.2,.4s-.2,.3-.2,.4-.2,.3-.3,.5-.2,.3-.3,.5-.2,.3-.3,.5c-.2,.1-.4,.1-.6,.2-.2,.1-.4,.1-.6,.1s-.4,.1-.7,.1c-.2,0-.5,.1-.7,.1h-1.4c-.2,0-.4,0-.7-.1-.2,0-.4-.1-.6-.1l-.6-.2c-.2-.1-.4-.1-.5-.2s-.3-.2-.5-.3-.3-.2-.4-.3-.2-.2-.3-.4c-.1-.1-.2-.3-.2-.4-.1-.2-.1-.3-.2-.5s-.1-.3-.1-.5v-.7c0-.3,0-.4-.1-.7,0-.2-.1-.4-.1-.6s-.1-.3-.2-.5c-.1-.1-.2-.3-.3-.4l-.3-.3c-.1-.1-.2-.2-.4-.3-.1-.1-.3-.1-.4-.2-.1-.1-.3-.1-.5-.2s-.3-.1-.5-.1-.4-.1-.5-.1h-1.2c-.2,0-.4,0-.6,.1-.2,0-.4,.1-.7,.1s-.4,.1-.7,.1-.4,0-.7,.1-.4,0-.6,0h-1.2c-.2,0-.4,0-.6-.1s-.4-.1-.5-.1l-.5-.1c-.1,0-.3-.1-.4-.2s-.3-.1-.4-.2-.2-.2-.3-.2-.2-.2-.3-.3-.2-.2-.2-.3-.1-.2-.2-.3c-.1-.1-.1-.3-.1-.4-.1-.1-.1-.3-.1-.4s-.1-.3-.1-.4l-.1-.4c0-.1,0-.3-.1-.5s-.1-.3-.1-.5-.1-.3-.2-.4c-.1-.1-.1-.2-.2-.3l-.3-.3c-.1-.1-.2-.2-.3-.2-.1-.1-.2-.1-.4-.2-.1-.1-.2-.1-.4-.2s-.3-.1-.4-.1-.3-.1-.5-.1-.3,0-.5-.1-.4,0-.5,0h-1.6c-.2,0-.4,0-.6,.1-.2,0-.4,0-.6,.1-.2,0-.4,0-.6,.1s-.5,0-.7,.1h-1.2c-.2,0-.4,0-.6-.1s-.4-.1-.5-.1l-.5-.1c-.1,0-.3-.1-.4-.2-.1-.1-.3-.1-.4-.2-.1-.1-.2-.2-.3-.2s-.2-.2-.3-.3c-.1-.1-.2-.2-.2-.3-.1-.1-.1-.2-.2-.4-.1-.1-.1-.3-.2-.4-.1-.2-.1-.3-.1-.5s-.1-.3-.1-.5,0-.3-.1-.5,0-.3-.1-.5c0-.2-.1-.3-.1-.5s-.1-.3-.1-.5c0-.1-.1-.3-.1-.4s-.1-.2-.2-.3-.2-.2-.2-.3-.2-.2-.3-.3c-.1-.1-.2-.2-.4-.3-.1-.1-.3-.2-.4-.2-.1-.1-.3-.1-.4-.2s-.3-.1-.5-.2-.4-.1-.5-.1c-.2-.1-.4-.1-.6-.1s-.4-.1-.6-.1-.4,0-.6-.1-.4,0-.6,0h-1.4c-.3,0-.4,0-.7,.1s-.5,.1-.7,.1-.4,.1-.7,.1-.4,.1-.7,.1c-.2,.1-.4,.1-.7,.2l-.6,.2c-.2,.1-.4,.2-.6,.2s-.4,.2-.6,.3-.4,.2-.5,.3-.3,.2-.5,.3c.1-.2,.1-.3,.2-.5,.1-.2,.1-.3,.2-.5,.1-.2,.1-.3,.2-.5,.1-.2,.1-.3,.2-.5,.1-.2,.1-.3,.2-.5s.1-.3,.2-.4,.1-.3,.2-.4c.1-.2,.1-.3,.1-.4s.1-.3,.1-.4l.1-.4c.1-.1,.1-.3,.1-.4,.1-.1,.1-.3,.1-.4s.1-.3,.1-.4,.1-.3,.1-.4,.1-.3,.1-.4c0-.2,.1-.3,.1-.4,0-.2,.1-.3,.1-.4,0-.2,.1-.3,.1-.4,0-.2,.1-.3,.1-.4s.1-.3,.1-.4c0-.2,.1-.3,.1-.4s.1-.3,.1-.5,.1-.3,.1-.5,.1-.3,.1-.5,.1-.3,.1-.5,.1-.3,.1-.5c.1-.2,.1-.3,.2-.5"/><path class="cls-5" d="M122.58,76.64c.1-.1,.3-.2,.5-.3,.2-.1,.3-.2,.5-.3l.6-.3c.2-.1,.4-.2,.6-.2,.2-.1,.4-.1,.6-.2,.2-.1,.4-.1,.7-.2s.4-.1,.7-.1,.5-.1,.7-.1,.5-.1,.7-.1,.5-.1,.7-.1h2c.2,0,.4,0,.6,.1,.2,0,.4,.1,.6,.1s.4,.1,.6,.1l.5,.1c.2,.1,.3,.1,.5,.2s.3,.1,.4,.2c.1,.1,.3,.2,.4,.2,.1,.1,.2,.2,.4,.3l.3,.3c.1,.1,.2,.2,.2,.3s.1,.2,.2,.3c.1,.1,.1,.2,.1,.4s.1,.3,.1,.5,.1,.3,.1,.5,.1,.3,.1,.5,.1,.3,.1,.5,.1,.4,.1,.5c0,.2,.1,.3,.1,.5,.1,.2,.1,.3,.2,.4s.1,.3,.2,.4c.1,.1,.2,.2,.2,.3l.3,.3c.1,.1,.2,.2,.3,.2,.1,.1,.2,.2,.4,.2,.1,.1,.3,.1,.4,.2,.1,0,.3,.1,.5,.1s.3,.1,.5,.1,.4,0,.6,.1,.4,0,.6,0h.6c.2,0,.4,0,.7-.1s.4,0,.6-.1,.4,0,.6-.1,.4,0,.6-.1h2.1c.2,0,.3,0,.5,.1,.2,0,.3,.1,.5,.1l.4,.1c.1,0,.3,.1,.4,.2,.1,.1,.2,.1,.4,.2,.1,.1,.2,.2,.3,.2l.3,.3c.1,.1,.2,.2,.2,.3,.1,.1,.1,.3,.2,.4,0,.2,.1,.3,.1,.5s0,.3,.1,.5l.1,.4c0,.1,.1,.3,.1,.4s.1,.3,.1,.4c.1,.1,.1,.3,.1,.4,.1,.1,.1,.2,.2,.3,.1,.1,.1,.2,.2,.3l.3,.3c.1,.1,.2,.2,.3,.2,.1,.1,.2,.1,.4,.2s.3,.1,.4,.2l.5,.1c.2,0,.3,.1,.5,.1s.4,0,.6,.1h1.8c.2,0,.4,0,.7-.1s.4-.1,.7-.1c.2,0,.5-.1,.7-.1s.4,0,.6-.1,.4,0,.6,0h.6c.2,0,.4,0,.5,.1s.3,.1,.5,.1,.3,.1,.5,.2c.1,.1,.3,.1,.4,.2,.1,.1,.3,.2,.4,.3l.3,.3c.1,.1,.2,.2,.3,.4,.1,.1,.1,.3,.2,.5s.1,.4,.1,.6,.1,.4,.1,.7v.7c0,.2,0,.4,.1,.5s.1,.3,.2,.5,.1,.3,.2,.4,.2,.2,.3,.4,.3,.2,.4,.3c.1,.1,.3,.2,.5,.3,.2,.1,.4,.2,.5,.2s.4,.1,.6,.2c.2,.1,.4,.1,.6,.1s.4,.1,.7,.1h1.4c.2,0,.5,0,.7-.1,.2,0,.4-.1,.7-.1,.2,0,.4-.1,.6-.1,.2-.1,.4-.1,.6-.2-.1,.2-.2,.4-.3,.5-.1,.2-.2,.3-.3,.5s-.2,.3-.3,.5-.2,.3-.3,.5-.2,.3-.3,.4-.2,.3-.2,.4c-.1,.1-.2,.3-.2,.4s-.1,.3-.2,.4c-.1,.1-.1,.3-.2,.4s-.1,.3-.2,.4-.1,.3-.2,.4l-.2,.4-.2,.4c-.1,.1-.1,.2-.2,.4s-.2,.2-.2,.4c-.1,.1-.2,.2-.2,.4-.1,.1-.2,.3-.2,.4-.1,.1-.2,.3-.2,.4s-.2,.3-.2,.4c-.1,.1-.2,.3-.3,.4-.1,.1-.2,.3-.3,.4-.1,.1-.2,.3-.3,.4-.2,.1-.4,.1-.6,.1s-.5,.1-.7,.1h-2.1c-.2,0-.5,0-.7-.1s-.5-.1-.7-.1c-.2-.1-.4-.1-.6-.1s-.4-.1-.6-.2-.4-.1-.5-.2c-.2-.1-.3-.2-.5-.3-.1-.1-.3-.2-.4-.3l-.3-.3c-.1-.1-.2-.2-.2-.4s-.1-.3-.1-.4v-1.1c0-.2,0-.4-.1-.6,0-.2-.1-.4-.1-.5-.1-.2-.1-.3-.2-.4s-.2-.3-.3-.4l-.3-.3c-.1-.1-.2-.2-.4-.2s-.3-.1-.4-.2c-.1-.1-.3-.1-.4-.1s-.3-.1-.5-.1h-1.1c-.2,0-.4,0-.6,.1s-.4,.1-.6,.1-.4,.1-.6,.1-.4,.1-.6,.1-.4,.1-.6,.1h-1.8c-.2,0-.4,0-.6-.1-.2,0-.4-.1-.5-.1-.2,0-.3-.1-.5-.1s-.3-.1-.5-.1c-.1-.1-.3-.1-.4-.2-.1-.1-.3-.1-.4-.2-.1-.1-.2-.2-.3-.2s-.2-.2-.3-.3-.2-.2-.2-.3-.1-.2-.2-.3c0-.1-.1-.2-.1-.4v-1.4c0-.1,0-.3-.1-.5s-.1-.3-.1-.4-.1-.2-.2-.4c-.1-.1-.1-.2-.2-.3-.1-.1-.2-.2-.3-.2-.1-.1-.2-.1-.3-.2s-.2-.1-.4-.2c-.1,0-.3-.1-.4-.1s-.3-.1-.4-.1-.3,0-.5-.1-.3,0-.5,0h-1.1c-.2,0-.4,0-.6,.1s-.4,0-.6,.1c-.2,0-.5,.1-.8,.1s-.5,.1-.8,.1h-2c-.2,0-.4,0-.6-.1-.2,0-.3-.1-.5-.1s-.3-.1-.4-.2c-.1-.1-.3-.1-.4-.2-.1-.1-.2-.1-.4-.2-.1-.1-.2-.2-.3-.2l-.3-.3c-.1-.1-.2-.2-.2-.3-.1-.1-.1-.2-.2-.4-.1-.1-.1-.3-.1-.4,0-.2-.1-.3-.1-.4s-.1-.3-.1-.5,0-.3-.1-.5v-1c0-.1-.1-.2-.1-.4,0-.1-.1-.2-.2-.3-.1-.1-.1-.2-.2-.3l-.3-.3c-.1-.1-.2-.2-.3-.2s-.2-.2-.4-.2-.3-.1-.4-.2-.3-.1-.5-.2-.3-.1-.5-.1-.4-.1-.6-.1-.4-.1-.6-.1h-1.9c-.2,0-.4,0-.7,.1-.2,0-.5,.1-.7,.1s-.5,.1-.7,.1-.5,.1-.7,.2-.4,.1-.7,.2-.4,.1-.7,.2-.4,.2-.6,.2-.4,.2-.6,.3l-.6,.3c-.2,.1-.4,.2-.5,.3,.1-.1,.1-.3,.2-.4s.1-.3,.2-.4,.1-.3,.2-.4c.1-.1,.1-.3,.2-.4,.1-.1,.1-.3,.2-.4,.1-.1,.1-.3,.2-.4s.1-.3,.2-.4,.1-.3,.2-.4c.1-.1,.1-.3,.2-.4,.1-.1,.1-.3,.2-.4,.1-.1,.1-.3,.2-.4,.1-.1,.1-.3,.2-.4,.1-.1,.1-.3,.2-.4,.1-.1,.1-.3,.2-.4,.1-.2,.1-.3,.2-.4l.2-.4c.1-.2,.1-.3,.2-.5s.1-.3,.2-.5,.1-.3,.2-.5c.1-.2,.1-.3,.2-.5,.1-.2,.1-.4,.2-.6,.1-.2,.1-.4,.2-.6,.1-.2,.1-.4,.2-.6"/><path class="cls-4" d="M146.18,85.84h0c.2,.1,.3,.2,.4,.3s.3,.2,.4,.3l.3,.3,.3,.3c.1,.1,.1,.2,.2,.2s.2,.1,.3,0,.2,0,.3-.1c.1,0,.2-.1,.4-.2s.3-.2,.4-.3c.1-.1,.3-.2,.4-.4,.1-.2,.3-.3,.4-.5,.1-.2,.3-.4,.4-.6s.3-.4,.4-.7,.2-.5,.4-.7c.1-.2,.2-.3,.2-.5,.1-.2,.1-.3,.2-.5s.1-.3,.2-.5,.1-.3,.2-.4,.1-.3,.2-.4,.1-.3,.2-.4,.1-.3,.2-.4,.1-.3,.2-.4,.1-.3,.2-.4,.1-.3,.2-.4c.1-.1,.1-.3,.2-.4,.1-.1,.1-.3,.2-.4,.1-.1,.1-.3,.2-.4,.1-.1,.1-.3,.2-.4,.1-.2,.1-.3,.2-.4,.1-.2,.1-.3,.2-.5,.1-.2,.1-.3,.2-.5s.1-.3,.2-.5c-.1-.2-.1-.3-.1-.5s0-.4-.1-.6c0-.2-.1-.4-.1-.6s-.1-.3-.1-.5-.1-.3-.1-.4c-.1-.2-.1-.3-.2-.5-.1-.1-.1-.3-.2-.4l-.3-.3-.3-.3c-.1-.1-.2-.2-.3-.2s-.2-.1-.4-.2c-.1-.1-.3-.1-.4-.2l-.4-.1c-.1,0-.3-.1-.5-.1s-.3,0-.5-.1h-4.8c-.1,.2-.1,.3-.2,.5-.1,.2-.1,.3-.2,.5s-.1,.3-.2,.5-.1,.3-.2,.4c-.1,.2-.1,.3-.2,.4-.1,.1-.1,.3-.1,.4s-.1,.3-.1,.4c-.1,.1-.1,.3-.1,.4s-.1,.3-.1,.4-.1,.3-.1,.4-.1,.3-.2,.4-.1,.3-.2,.4-.1,.3-.2,.4-.1,.3-.2,.5c-.1,.2-.1,.3-.2,.5l-.2,.5c-.1,.2-.1,.4-.2,.5-.1,.2-.1,.4-.2,.6-.1,.2-.1,.4-.1,.6s-.1,.4-.1,.6v1c0,.2,.1,.3,.1,.5s.1,.3,.2,.4,.1,.3,.2,.4c.1,.1,.2,.2,.3,.4l.3,.3,.3,.3c.1,.1,.2,.2,.4,.3s.3,.2,.4,.2c.1,.1,.3,.2,.4,.2,.1,.1,.3,.2,.4,.2,.1,.1,.3,.2,.4,.2s.1,1,.1,1.2"/><path class="cls-3" d="M146.28,85.74h0c.1,.1,.3,.2,.4,.3,.1,.1,.3,.2,.4,.3l.3,.3,.3,.3,.2,.2h.3c.1,0,.2,0,.3-.1,.1,0,.2-.1,.4-.2,.1-.1,.2-.2,.4-.3s.2-.2,.4-.4,.3-.3,.4-.5,.3-.4,.4-.6c.1-.2,.3-.4,.4-.7,.1-.2,.2-.5,.4-.7,.1-.2,.2-.3,.2-.5,.1-.2,.1-.3,.2-.5s.1-.3,.2-.5,.1-.3,.2-.4,.1-.3,.2-.4,.1-.3,.2-.4,.1-.3,.2-.4,.1-.3,.2-.4,.1-.3,.2-.4c.1-.1,.1-.3,.2-.4,.1-.1,.1-.3,.2-.4,.1-.1,.1-.3,.2-.4,.1-.1,.1-.3,.2-.4,.1-.1,.1-.3,.2-.4,.1-.1,.1-.3,.2-.4s.1-.3,.2-.5,.1-.3,.2-.5,.1-.3,.2-.5c-.1-.2-.1-.3-.1-.5s-.1-.4-.1-.6-.1-.4-.1-.6-.1-.3-.1-.5-.1-.3-.1-.5c-.1-.2-.1-.3-.2-.4-.1-.1-.2-.3-.2-.4l-.3-.3-.3-.3c-.1-.1-.2-.2-.4-.2-.1-.1-.3-.1-.4-.2-.1-.1-.3-.1-.4-.1s-.3-.1-.5-.1-.3,0-.5-.1h-2.3c-.2,0-.4,0-.6,.1h-2c-.1,.2-.1,.3-.2,.5-.1,.2-.1,.3-.2,.5s-.1,.3-.2,.5c-.1,.2-.1,.3-.2,.4s-.1,.3-.1,.4-.1,.3-.1,.4c-.1,.1-.1,.3-.1,.4s-.1,.3-.1,.4-.1,.3-.1,.4-.1,.3-.1,.4-.1,.3-.1,.4c-.1,.1-.1,.3-.2,.4s-.1,.3-.2,.4-.1,.3-.2,.5c-.1,.2-.1,.3-.2,.5-.1,.2-.1,.3-.2,.5s-.1,.3-.2,.5c-.1,.2-.1,.4-.2,.6s-.1,.4-.1,.6-.1,.4-.1,.6v.5c0,.2,0,.3,.1,.5,0,.2,.1,.3,.1,.5s.1,.3,.2,.4c.1,.1,.1,.3,.2,.4s.2,.2,.2,.4l.3,.3,.3,.3c.1,.1,.2,.2,.4,.3,.1,.1,.3,.2,.4,.2,.1,.1,.3,.2,.4,.2,.1,.1,.3,.2,.4,.2,.1,.1,.3,.2,.4,.2-.5,.7-.4,.8-.3,.9"/><path class="cls-4" d="M154.58,75.84c.1-.1,.2-.3,.3-.4l.3-.3c.1-.1,.2-.2,.2-.3,.1-.1,.2-.2,.2-.3s.2-.2,.3-.3c.1-.1,.2-.2,.3-.4s.2-.3,.3-.4v-1.7c0-.1,0-.3,.1-.4s0-.3,.1-.5c-.1-.1-.2-.2-.2-.3s-.1-.2-.1-.3-.1-.3-.2-.4c0-.2,0-.3,.1-.5s0-.3,0-.4v-1.7c-.1-.1-.2-.1-.4-.1s-.2,0-.4-.1h-.5c-.1-.2-.1-.4-.2-.5-.1-.2-.1-.3-.2-.4s-.1-.3-.2-.4-.2-.3-.3-.4c-.1,.1-.3,.1-.4,.2s-.2,.1-.4,.2l-.4,.2c-.1,.1-.2,.1-.4,.2-.1,.1-.3,.2-.4,.2-.2-.1-.3-.2-.4-.3s-.3-.1-.4-.2-.3-.1-.4-.2c-.1-.1-.3-.1-.4-.2-.1,.1-.3,.2-.4,.3l-.3,.3-.3,.3-.3,.3c-.1,.1-.2,.2-.4,.3-.2-.1-.3-.1-.5-.1-.1,0-.3-.1-.4-.1s-.3-.1-.4-.1-.3-.1-.5-.2l-.4,.4-.3,.3-.3,.3-.3,.3-.4,.4c0,.2,0,.3,.1,.5s0,.3,.1,.4l.1,.4c0,.1,0,.3,.1,.4s0,.3,.1,.4c0,.1,0,.3,.1,.4,0,.1,0,.3,.1,.4,0,.2,.1,.3,.1,.5,.2-.1,.3-.1,.5-.2,.1-.1,.3-.1,.4-.2s.3-.1,.5-.2c.1-.1,.3-.1,.4-.2,.2-.1,.3-.1,.5-.2s.3-.1,.5-.1,.3-.1,.5-.1,.3-.1,.5-.1c.1,0,.3-.1,.5-.1s.3-.1,.5-.1h1.4c.1,0,.3,0,.4,.1l.4,.1c.1,.1,.3,.1,.4,.2,.1,.1,.2,.2,.4,.2s.2,.2,.3,.3l.3,.3c.1,.1,.1,.3,.2,.4s.1,.3,.2,.4c0,.2,.1,.3,.1,.5s.1,.3,.1,.5,0,.4,.1,.5v1.8c-.5,.2-.5,.4-.6,.5h0Z"/><path class="cls-3" d="M154.58,75.74c.1-.1,.2-.3,.3-.4l.3-.3c.1-.1,.2-.2,.2-.3s.2-.2,.2-.3c.1-.1,.2-.2,.2-.3l.3-.3c.1-.1,.2-.3,.3-.4v-2c0-.1,0-.3,.1-.5-.1-.1-.2-.2-.2-.3-.1-.1-.1-.2-.1-.4s-.1-.3-.2-.4c0-.2,0-.3,.1-.5s0-.3,0-.4v-1.7c-.1-.1-.2-.1-.4-.1-.1,0-.2,0-.4-.1s-.3,0-.5,0c-.1-.2-.1-.4-.2-.5s-.1-.3-.2-.4-.1-.3-.2-.4-.2-.3-.3-.4c-.1,.1-.3,.1-.4,.2-.1,.1-.2,.1-.4,.2l-.4,.2c-.1,.1-.2,.1-.4,.2-.1,.1-.3,.2-.4,.2-.2-.1-.3-.2-.4-.3s-.3-.1-.4-.2-.3-.1-.4-.2c-.1-.1-.3-.1-.4-.2-.1,.1-.3,.2-.4,.3l-.3,.3-.3,.3-.3,.3c-.1,.1-.2,.2-.4,.3-.2-.1-.3-.1-.5-.1-.1,0-.3-.1-.4-.1s-.3-.1-.4-.1-.3-.1-.5-.2l-.4,.4-.3,.3-.3,.3-.3,.3-.4,.4c0,.2,0,.4,.1,.6,0,.2,0,.3,.1,.5s0,.3,.1,.4c0,.2,0,.3,.1,.4s0,.3,.1,.4c0,.2,0,.3,.1,.5s.1,.3,.1,.5c.2-.1,.3-.1,.5-.2,.1-.1,.3-.1,.4-.2s.3-.1,.5-.2c.1-.1,.3-.1,.4-.2,.1-.1,.3-.1,.5-.2s.3-.1,.5-.1,.3-.1,.5-.1,.3-.1,.5-.1c.1,0,.3-.1,.5-.1s.3-.1,.5-.1h1.3c.1,0,.3,0,.4,.1l.4,.1c.1,.1,.3,.1,.4,.2,.1,.1,.2,.1,.4,.2l.3,.3,.3,.3c.1,.1,.1,.3,.2,.4s.1,.3,.2,.4c0,.2,.1,.3,.1,.5s.1,.3,.1,.5,0,.3,.1,.5,0,.4,0,.6v1.2c-.1,.1-.1,.3-.2,.5h0"/><path class="cls-2" d="M154.68,75.54c.1-.2,.2-.3,.3-.4s.2-.2,.3-.4,.2-.2,.3-.3l.3-.3c.1-.1,.2-.2,.3-.4,.1-.1,.2-.3,.3-.4v-1.3c0-.1,0-.3,.1-.4s0-.3,.1-.5c-.1-.1-.1-.2-.2-.3,0-.1-.1-.2-.1-.4s-.1-.3-.2-.4c-.1,.1-.2,.3-.2,.4l-.2,.4c-.1,.1-.1,.2-.2,.3s-.1,.2-.2,.3-.1,.2-.2,.4-.1,.3-.2,.4c-.1,.1-.2,.3-.3,.4,0,.2,0,.3,.1,.5v2c0,.1-.1,.2-.1,.4h0Z"/><path class="cls-4" d="M155.18,74.84c.1-.1,.2-.2,.2-.3s.1-.2,.2-.3c0-.1,0-.3-.1-.4s0-.3,0-.4v-2.4c-.1,.1-.1,.2-.2,.3-.1,.1-.1,.2-.2,.3v2.7c0,.1,.1,.4,.1,.5h0"/><path class="cls-5" d="M152.38,66.34h0c-.2-.1-.3-.2-.4-.3s-.3-.1-.4-.2-.3-.1-.4-.2c-.1-.1-.3-.1-.4-.2-.1,.1-.3,.2-.4,.3l-.3,.3-.3,.3-.3,.3c-.1,.1-.2,.2-.4,.3v3.1c.2,0,.3-.1,.4-.1,.2,0,.3-.1,.4-.1s.3-.1,.5-.1,.3-.1,.5-.1h.8l.1-.5,.1-.4,.1-.4,.1-.4,.1-.4c0-.1,.1-.3,.1-.4s.1-.3,.1-.4v-.4h0"/><path class="cls-5" d="M156.18,69.94h0c0-.2,0-.3,.1-.5s0-.3,0-.4v-1.7c-.1-.1-.2-.1-.4-.1-.1,0-.2,0-.4-.1s-.3,0-.5,0c-.1,.2-.1,.3-.2,.4-.1,.2-.1,.3-.2,.4-.1,.1-.1,.3-.2,.4-.1,.1-.1,.2-.2,.4l-.2,.4c-.1,.1-.1,.3-.2,.4s-.1,.3-.2,.4-.1,.3-.2,.5l.3,.3c.1,.1,.2,.2,.2,.4,.1,.1,.1,.3,.2,.4,.1,.2,.1,.3,.1,.5s.1,.3,.1,.5c.1-.2,.2-.3,.3-.4s.2-.3,.2-.4c.1-.1,.1-.2,.2-.4,.1-.1,.1-.2,.2-.3s.1-.2,.2-.3,.1-.2,.2-.4c.5-.1,.5-.3,.6-.4h0Z"/><path class="cls-2" d="M148.88,66.94h0c-.2-.1-.3-.1-.5-.1-.1,0-.3-.1-.4-.1s-.3-.1-.4-.1-.3-.1-.5-.2l-.3,.3-.3,.3-.3,.3-.3,.3-.3,.3c0,.2,0,.3,.1,.5s0,.3,.1,.5,0,.3,.1,.5c0,.2,.1,.3,.1,.4s0,.3,.1,.4,0,.3,.1,.4c0,.2,.1,.3,.1,.5,.2-.1,.3-.1,.5-.2,.1-.1,.3-.1,.4-.2s.3-.1,.4-.2c.1-.1,.3-.1,.5-.2s.3-.1,.5-.2c.2,0,.3-.1,.5-.1v-2.6c-.2-.1-.2-.3-.2-.5h0"/><path class="cls-3" d="M146.38,85.44h0c.2,.1,.3,.2,.4,.3s.3,.2,.4,.3l.3,.3,.3,.3,.2,.2h.3c.1,0,.2-.1,.4-.1,.1-.1,.2-.1,.4-.2,.1-.1,.3-.2,.4-.3l.4-.4c.1-.1,.3-.3,.4-.6s.3-.4,.4-.7,.3-.5,.4-.8c.1-.2,.2-.3,.2-.5s.1-.3,.2-.5l.2-.5c.1-.2,.1-.3,.2-.4,.1-.2,.1-.3,.2-.4,.1-.1,.1-.3,.2-.4,.1-.1,.1-.3,.2-.4,.1-.1,.1-.3,.2-.4,.1-.1,.1-.3,.2-.4s.1-.3,.2-.4,.1-.3,.2-.4,.1-.3,.2-.4,.1-.3,.2-.4c.1-.2,.1-.3,.2-.4s.1-.3,.2-.5,.1-.3,.2-.5,.1-.3,.2-.5c-.1-.2-.1-.3-.1-.6s-.1-.4-.1-.6-.1-.4-.1-.5c0-.2-.1-.3-.1-.5s-.1-.3-.1-.4c-.1-.2-.1-.3-.2-.4-.1-.1-.1-.2-.2-.3l-.3-.3c-.1-.1-.2-.2-.3-.2-.1-.1-.2-.1-.4-.2s-.3-.1-.4-.2-.3-.1-.4-.1-.3-.1-.4-.1c-.2,0-.3-.1-.5-.1h-2.9c-.2,0-.4,0-.6,.1h-1.3c-.1,.2-.1,.4-.2,.5s-.1,.3-.2,.5-.1,.3-.2,.5-.1,.3-.2,.5-.1,.3-.2,.4c-.1,.1-.1,.3-.1,.4s-.1,.3-.1,.4c-.1,.1-.1,.3-.1,.4-.1,.1-.1,.3-.1,.4-.1,.1-.1,.3-.1,.4-.1,.1-.1,.3-.2,.4s-.1,.3-.2,.4-.1,.3-.2,.5c-.1,.2-.1,.3-.2,.5l-.2,.5c-.1,.2-.1,.4-.2,.5-.1,.2-.1,.4-.2,.6s-.1,.4-.1,.6-.1,.4-.1,.6v.5c0,.2,0,.3,.1,.5s.1,.3,.1,.5c.1,.2,.1,.3,.2,.4,.1,.1,.1,.3,.2,.4l.3,.3,.3,.3c.1,.1,.2,.2,.4,.3,.1,.1,.2,.2,.4,.3s.3,.2,.4,.2c.1,.1,.3,.2,.4,.2,.1,.1,.3,.2,.4,.2,0,.3,.1,.4,.2,.4"/><path class="cls-4" d="M148.48,71.54h-2.6c-.1,.2-.1,.3-.2,.5s-.1,.3-.1,.4-.1,.3-.1,.4-.1,.3-.1,.4c-.1,.1-.1,.3-.2,.4-.1,.2-.1,.3-.2,.5h2.6c.1-.2,.1-.3,.2-.5,.1-.2,.1-.3,.2-.4s.1-.3,.1-.4,.1-.3,.1-.4,.1-.3,.1-.4,.1-.3,.2-.5"/><path class="cls-4" d="M146.58,76.94h1.8c.1,0,.3,0,.5,.1,.1-.2,.1-.4,.2-.5,.1-.2,.1-.3,.2-.4s.1-.3,.2-.4,.1-.3,.2-.4c.1-.1,.1-.3,.2-.4,.1-.2,.1-.3,.2-.5-.2,0-.4-.1-.5-.1h-1.9c-.1,.2-.1,.3-.2,.5-.1,.2-.1,.3-.2,.4s-.1,.3-.1,.4-.1,.3-.1,.4-.1,.3-.2,.4c-.2,.2-.2,.4-.3,.5"/><path class="cls-4" d="M143.28,79.14c-.1,.1-.1,.2-.1,.4l-.1,.4h2.5c.1-.2,.1-.3,.2-.5s.1-.3,.2-.4c.1-.1,.1-.3,.2-.4,.1-.1,.1-.3,.2-.4,.1-.1,.1-.3,.2-.4,.1-.2,.1-.3,.2-.5h-2.6c-.1,.2-.1,.3-.2,.4,0,.1-.1,.3-.1,.4s-.1,.2-.1,.4-.1,.2-.1,.4c-.3-.1-.3,0-.4,.2"/><path class="cls-4" d="M150.68,77.84l-.3-.3c-.1-.1-.2-.1-.3-.2s-.2-.1-.3-.2-.2-.1-.4-.1c-.1,0-.3-.1-.5-.1-.1,.2-.1,.4-.2,.5-.1,.2-.1,.3-.2,.4l-.2,.4c-.1,.1-.1,.3-.2,.4s-.1,.3-.2,.4-.1,.3-.2,.5l.5,.1c.1,.1,.3,.1,.4,.2,.1,.1,.2,.1,.4,.2,.1,.1,.2,.2,.4,.3,.1-.2,.1-.3,.2-.4,.1-.1,.1-.3,.2-.4s.1-.2,.2-.4l.2-.4c.1-.1,.1-.2,.2-.4s.1-.3,.2-.4,.1,.1,.1-.1"/><path class="cls-4" d="M148.28,83.44c.1,.1,.2,.2,.2,.3s.1,.2,.2,.3,.1,.2,.1,.3,.1,.3,.1,.4c0,.2,0,.3,.1,.5,.1-.2,.1-.3,.2-.4s.1-.3,.2-.4c.1-.1,.1-.2,.2-.4l.2-.4,.2-.4c.1-.2,.1-.3,.2-.4,.1-.1,.1-.3,.2-.4,0-.2-.1-.3-.1-.4,0-.2-.1-.3-.1-.4s-.1-.2-.1-.3-.1-.2-.2-.3-.1-.2-.2-.3c-.1,.2-.1,.3-.2,.4s-.1,.3-.2,.4c-.1,.1-.1,.2-.2,.4-.1,.1-.1,.2-.1,.3s-.1,.2-.2,.4c-.1,.1-.1,.2-.2,.4-.2,0-.2,.2-.3,.4"/><path class="cls-4" d="M148.18,86.84h.3c.1,0,.2-.1,.3-.1s.2-.2,.4-.2c0-.2-.1-.3-.1-.4s-.1-.2-.1-.3-.1-.2-.1-.4c-.1,.2-.1,.3-.2,.4s-.1,.2-.2,.3-.1,.2-.2,.3c0,.1,0,.2-.1,.4"/><path class="cls-4" d="M144.48,82.34h1.7c.1,0,.3,0,.4,.1,.1-.2,.1-.3,.2-.5,.1-.2,.1-.3,.2-.4s.1-.3,.2-.4c.1-.1,.1-.3,.2-.4s.1-.3,.2-.4c.1-.2,.1-.3,.2-.5-.2,0-.3-.1-.5-.1h-1.8c-.1,.2-.1,.3-.2,.5s-.1,.3-.2,.4-.1,.3-.2,.4c-.1,.1-.1,.3-.2,.4s-.1,.3-.2,.4,0,.3,0,.5"/><path class="cls-4" d="M142.98,82.44c0,.1,.1,.2,.1,.4,.1,.1,.1,.2,.2,.3s.1,.2,.2,.3,.2,.2,.2,.3c.1-.1,.1-.3,.2-.4,.1-.1,.1-.2,.1-.3,.1-.1,.1-.2,.1-.3s.1-.2,.2-.4h-.9c-.1,0-.1,.1-.4,.1"/><path class="cls-4" d="M146.58,85.64c.1,.1,.2,.1,.2,.2l.2,.2c.1-.2,.2-.3,.2-.5,.1-.2,.1-.3,.2-.4,.1-.1,.1-.3,.2-.4s.1-.3,.2-.4,.1-.3,.2-.4,.1-.3,.2-.5c-.1-.1-.2-.2-.4-.3s-.2-.2-.4-.2c-.1-.1-.2-.1-.4-.2-.1-.1-.3-.1-.5-.2-.1,.2-.1,.3-.2,.5-.1,.2-.1,.3-.2,.4-.1,.1-.1,.3-.2,.4-.1,.1-.1,.2-.2,.4-.1,.1-.1,.3-.2,.4s-.1,.3-.2,.4l.3,.2c.1,.1,.2,.1,.3,.2l.3,.2q.3-.1,.4,0h0"/><path class="cls-4" d="M150.78,84.34c.1-.1,.1-.2,.2-.3s.1-.2,.2-.4c.1-.2,.1-.3,.2-.4s.1-.3,.2-.4,.1-.2,.2-.4c.1-.1,.1-.2,.2-.4,.1-.1,.1-.3,.2-.4-.1-.1-.1-.2-.1-.4s-.1-.3-.1-.4-.1-.2-.1-.4c0-.1-.1-.2-.1-.4,0-.1-.1-.3-.1-.4-.1,.2-.1,.3-.2,.4-.1,.1-.1,.3-.2,.4-.1,.1-.1,.3-.2,.4l-.2,.4c-.1,.1-.1,.2-.2,.4-.1,.1-.1,.3-.2,.4s-.1,.3-.2,.4c0,.2,.1,.4,.1,.5,0,.2,.1,.3,.1,.4s.1,.3,.1,.4,.1,.5,.2,.6h0Z"/><path class="cls-4" d="M150.68,77.84l.3,.3c.1,.1,.1,.2,.2,.3,.1,.1,.1,.2,.1,.3s.1,.2,.1,.4c0,.1,.1,.3,.1,.4,.1-.2,.1-.3,.2-.4,.1-.1,.1-.3,.2-.4,.1-.1,.1-.3,.2-.4s.1-.2,.2-.4c.1-.1,.1-.2,.2-.4s.1-.3,.2-.4,.1-.3,.2-.4c0-.2-.1-.3-.1-.4s-.1-.3-.1-.4-.1-.2-.2-.3c-.1-.1-.1-.2-.2-.3l-.3-.3c-.1,.2-.1,.3-.2,.4s-.1,.3-.2,.4-.1,.2-.1,.4c-.1,.1-.1,.2-.1,.4-.1,.1-.1,.2-.2,.4s-.1,.3-.2,.4-.2,.3-.3,.4"/><path class="cls-4" d="M152.98,72.34c-.1-.1-.2-.2-.4-.2-.1-.1-.2-.1-.4-.2-.1-.1-.2-.1-.4-.1l-.4-.1c-.1,0-.3-.1-.5-.1-.1,.2-.1,.3-.2,.5s-.1,.3-.2,.4-.1,.3-.1,.4-.1,.3-.1,.4-.1,.3-.2,.4c-.1,.2-.1,.3-.2,.5,.2,0,.3,.1,.5,.1,.1,0,.3,.1,.4,.1s.2,.1,.3,.1,.2,.1,.3,.2,.2,.2,.3,.2c.1-.2,.1-.4,.2-.5s.1-.3,.2-.4l.2-.4c.1-.1,.1-.3,.2-.4,.1-.1,.1-.3,.2-.4s.2-.3,.3-.5"/><path class="cls-4" d="M153.28,78.84c.1-.2,.1-.3,.2-.4s.1-.3,.2-.4,.1-.2,.2-.4c.1-.1,.1-.2,.1-.3l.2-.4c.1-.1,.1-.2,.2-.4s.1-.3,.2-.4c0-.2-.1-.3-.1-.4,0-.2,0-.3-.1-.4s0-.3-.1-.4-.1-.3-.1-.4-.1-.3-.1-.4c-.1,.2-.1,.3-.2,.4s-.1,.3-.2,.4-.1,.2-.2,.4l-.2,.4c-.1,.1-.1,.2-.2,.4s-.1,.3-.2,.4c-.1,.1-.1,.3-.2,.4,0,.2,.1,.3,.1,.4s.1,.3,.1,.4,.1,.2,.1,.4,0,.3,.1,.4,.1,.2,.2,.3"/><path class="cls-3" d="M148.38,68.54v.4c0,.1-.1,.2-.2,.3l-.3,.3c-.1,.1-.2,.2-.4,.2-.1,.1-.3,.1-.4,.1-.2,0-.3,0-.4-.1s-.2-.1-.3-.2-.1-.2-.1-.4c.1,.1,.1,.2,.3,.3,.1,.1,.3,.1,.5,.1,.1,0,.3,0,.4-.1,.1-.1,.2-.1,.4-.2l.3-.3c.1-.1,.1-.2,.2-.3v-.1h0"/><path d="M148.28,68.94h0v-.1h0v.1h0m-1.2,1h1.1v-.1h.1v-.1h0v-.1h0v.1h0v.1h0v.1h-1.2Zm-.7-.7h0v.2h0l.3,.1h0l-.3-.1h0v-.1h0v-.1h0m.7,.4h-.2l-.2-.1h.3l.1,.1m1.2-.9h0v.2h0v.1h-.3v-.1h.1v-.1l.2-.1h0m0-.2h0v.1h0v-.1h0"/><path class="cls-4" d="M148.88,69.34c.2,0,.3-.1,.5-.1s.3-.1,.5-.1,.3-.1,.5-.1,.3-.1,.5-.1,.3,0,.5-.1,.3,0,.5,0l.1-.4,.1-.4h-.4l-.4,.1c-.1,0-.3,0-.5,.1-.1,0-.3,.1-.5,.1s-.3,.1-.4,.1-.3,.1-.4,.1-.3,.1-.4,.1v.4c0,.1-.2,.2-.2,.3h0"/><path class="cls-4" d="M148.88,67.74c.2,0,.3-.1,.4-.1,.2,0,.3-.1,.4-.1s.3-.1,.5-.1c.1,0,.3-.1,.5-.1s.3-.1,.5-.1,.3,0,.5-.1h.5c0-.2,.1-.3,.1-.4s.1-.2,.1-.4h-.8l-.4,.1c-.1,0-.3,.1-.4,.1s-.3,.1-.4,.1-.3,.1-.4,.1-.3,.1-.4,.1-.3,.1-.4,.1v.4c0,.1-.2,.2-.3,.4"/><path class="cls-3" d="M155.18,71.74v3q-.1,.1-.1,.2v-2.7c0-.2,0-.3-.1-.4l.2-.1m.5,2.5l.1-.2c0-.1-.1-.3-.1-.4v-2.8l-.1,.2v2.8c0,.1,0,.3,.1,.4h0"/><path d="M147.28,67.34h0l.2,.2c.1,0,.2-.1,.4-.1h0c-.1,.1-.1,.2-.2,.3l.2,.2h0c-.2,0-.2,.1-.4,.1-.1,.1-.1,.2-.2,.3h0l-.2-.2c-.2,0-.2,.1-.4,.1h0c.1-.1,.1-.2,.2-.3l-.2-.2h0c.1,0,.2-.1,.4-.1,.1-.1,.1-.2,.2-.3h0"/><path class="cls-1" d="M147.28,67.84h.6l-.2-.2c-.2,.2-.3,.2-.4,.2"/><path class="cls-1" d="M146.68,67.74c.1,0,.2,0,.3,.1h.3l-.2-.2c-.1,0-.2,.1-.4,.1"/><path class="cls-1" d="M147.28,67.84h-.3c-.1,0-.2,0-.3-.1l.2,.2q.2,0,.4-.1"/><path class="cls-1" d="M147.78,67.94h-.6l.2,.2c.2-.2,.3-.2,.4-.2"/><path class="cls-1" d="M147.28,67.84c.1-.1,.2-.1,.2-.2l.2-.2c-.1,0-.2,.1-.3,.1,0,.1,0,.2-.1,.3"/><path class="cls-1" d="M146.78,68.24c.1-.1,.2-.1,.3-.2s.1-.1,.3-.2c-.1,0-.2,.1-.4,.1-.1,.1-.2,.2-.2,.3"/><path class="cls-1" d="M147.28,67.84c-.1,.1-.2,.1-.3,.2l-.3,.2c.1,0,.2-.1,.4-.1,.1-.1,.1-.2,.2-.3"/><path class="cls-1" d="M147.78,67.44c-.1,.1-.2,.1-.2,.2s-.1,.1-.2,.2c.1,0,.2-.1,.3-.1,0-.1,.1-.2,.1-.3"/><path class="cls-1" d="M147.28,67.84c0-.2,0-.3-.1-.5-.1,.1-.1,.2-.2,.3q.2,.1,.3,.2"/><path class="cls-1" d="M147.28,68.34v-.5c-.1,.1-.1,.2-.2,.3,.1,.1,.2,.1,.2,.2"/><path class="cls-1" d="M147.28,67.84v.5c.1-.1,.1-.2,.1-.3s0-.1-.1-.2"/><path class="cls-1" d="M147.28,67.34c0,.2,0,.3,.1,.5,.1-.1,.1-.2,.1-.3-.1-.1-.2-.1-.2-.2"/><path d="M156.38,71.34h-.1v-.4h0q-.1,.2-.1,.4h-.1v.4c0,.2-.1,.2-.1,.4h.1v.3h0l.1-.4h.2v-.7h0"/><path class="cls-1" d="M156.18,71.74c-.1-.1-.1-.2-.1-.4h.1v.4"/><path class="cls-1" d="M156.38,72.04c-.1-.1-.1-.2-.2-.3h.1c0,.1,0,.2,.1,.3"/><path class="cls-1" d="M156.18,71.74c.1,.1,.1,.2,.2,.3h-.1q-.1-.1-.1-.3"/><path class="cls-1" d="M156.08,71.34q0,.2,.1,.4h-.1v-.4"/><path class="cls-1" d="M156.18,71.74c0-.1,0-.2,.1-.3,0-.1,0-.2,.1-.4v.3l-.2,.4"/><path class="cls-1" d="M156.08,72.44v-.3c0-.1,0-.2,.1-.3v.3c0,.1,0,.2-.1,.3"/><path class="cls-1" d="M156.18,71.74c0,.1,0,.2-.1,.3s0,.2,0,.3v-.3c0-.1,.1-.1,.1-.3"/><path class="cls-1" d="M156.28,71.04c0,.1,0,.2-.1,.4,0,.1,0,.2-.1,.3v-.3c.1-.2,.2-.3,.2-.4"/><path class="cls-1" d="M156.18,71.74c.1-.1,.1-.2,.2-.4,0,.1-.1,.2-.1,.3s-.1,.1-.1,.1"/><path class="cls-1" d="M155.98,72.14c.1-.1,.1-.2,.2-.4l-.1,.3c0,.1-.1,.1-.1,.1"/><path class="cls-1" d="M156.18,71.74c-.1,.1-.1,.2-.2,.4l.1-.3q0-.1,.1-.1"/><path class="cls-1" d="M156.38,71.34c-.1,.1-.1,.2-.2,.4,0-.2,.1-.2,.1-.3q.1,0,.1-.1"/><path class="cls-2" d="M155.18,67.14h0c-.1-.2-.1-.4-.2-.5s-.1-.3-.2-.4-.1-.3-.2-.4-.2-.3-.3-.4c-.1,.1-.3,.1-.4,.2-.1,.1-.2,.1-.4,.2-.1,.1-.2,.1-.3,.2s-.2,.1-.4,.2-.3,.2-.4,.2c0,.2-.1,.3-.1,.5s-.1,.3-.1,.4-.1,.3-.1,.4l-.1,.4-.1,.4-.1,.4-.1,.4-.1,.5h.4c.1,0,.3,0,.4,.1l.4,.1c.1,0,.2,.1,.4,.1,.1,.1,.2,.1,.3,.2s.2,.1,.3,.2c.1-.2,.1-.3,.2-.5s.1-.3,.2-.4c.1-.1,.1-.3,.2-.4s.1-.2,.2-.4c.1-.1,.1-.2,.2-.4,.1-.1,.1-.2,.2-.4,.1-.1,.1-.3,.2-.4s-.1-.3,0-.5h0"/><path d="M153.38,68.14h0l-.1,.1s-.1,0,0,.1c0,0-.1,0-.1,.1,0-.1-.1-.1-.1-.1v-.1h-.1c0,.1,0,.2,.1,.2h0v.1s-.1,0-.1-.1h0v.3h-.1q0,.1,.1,.2s-.1,0-.1,.1c0,0,0,.1-.1,.1h0l.1,.1-.1,.1h.1v.2h.1v.1h0l.1-.1h0v.1h0s.1,0,.1-.1v.1h0s0-.1,.1-.1l.1,.1h0v-.2h.1v-.2s.1,.1,.1,0h0v-.2q.1,0,.1-.1h-.1l.2-.2h-.2v-.1h0l.2-.2h-.3v-.2c.1,0,0-.1-.1-.1h0Z"/><path class="cls-1" d="M153.58,68.54c-.1-.1-.2-.1-.3-.1s-.2-.1-.3-.1h0c.1,0,.2,.1,.3,.1s.2,0,.3,.1h0"/><path class="cls-1" d="M152.98,68.24c.1,0,.2,0,.3,.1,.1,0,.2,.1,.3,.1h0v-.1h0l.1-.1h-.3v-.1h0s0-.1-.1-.2l-.1,.1h0c0,.2-.1,.1-.2,.2,.1,0,0,0,0,0q.1-.1,0-.1s-.1,0-.1-.1q0,.1,.1,.2h0c-.1,0,0,0,0,0h0"/><path class="cls-1" d="M153.48,68.64h-.3v.1h-.2v.1h0v-.1h0v.2h0l-.1-.1v-.1h0v.3h0v.1h0v-.1h-.2v.1h0q0,.1,.1,.1h0s-.1,0-.1,.1h0l-.1,.1h.1v.1h0l-.1,.1h.2s0,.1-.1,.1h.1v.2h0v-.2h0v.1h0v-.1h0v-.1h0v.2s.1,0,.1-.1h0v-.1h0v-.1h0v.2h0l.1-.1v-.1h.2v-.1h0v.1c0,.1,0,0,0,0h0v-.2h.1v-.1h.1v.1h0v-.2h0v.2h0v-.1h0s.1,0,.1,.1h0v-.1h0v-.1h0v.1h0v-.1h0q.1,0,.1-.1h-.2c-.1,0,0,0,0,0h.2c.1,0,.1-.1,.1-.2h0v.1h-.1q0-.2-.1-.3,.1,.1,.1,0h0v.1h0v-.1h-.1c.2,0,.1,0,0,0h0"/><path class="cls-1" d="M153.58,68.64c-.1-.1-.2-.1-.3-.1s-.2-.1-.3-.1h0c.1,0,.2,0,.3,.1,.1,0,.2,0,.3,.1h0Z"/><path class="cls-1" d="M152.98,68.44c.1,0,.2,0,.3,.1,.1,0,.2,.1,.3,.1h0c-.1-.1-.2-.1-.3-.1-.1-.2-.2-.2-.3-.1h0q0-.1,0,0h0m.5,.1s-.1,0,0,0q-.1,0,0,0c-.1,0,0,0,0,0h0m-.3-.2s-.1,0,0,0q-.1,.1,0,0c-.1,.1,0,.1,0,0,0,.1,0,0,0,0"/><path d="M153.28,68.34s0-.1,0,0q0-.1,0,0h0q0-.1,0,0v-.1h0q.1,0,0,.1,.1-.1,0,0h0q.1-.1,0,0h0m.1,0s0-.1,0,0q0-.1,0,0h0q0-.1,0,0h0q-.1-.1,0,0h0"/><path d="M153.18,69.04h-.1c0,.1,.1,.1,.1,0h0m-.2-.1s0,.1,0,0h0q0,.1,0,0h0m-.1,.1s.1,0,0,0h0c.1,.1,.1,0,0,0h0m.1,.1h0l.1-.1-.1,.1q.1-.1,0-.1v-.1h0v.1h.1l-.1,.1h0Z"/><path d="M153.28,68.74h0m-.1,0h0q-.1-.1,0,0h0q-.1-.1,0,0,0-.1,0,0h0Zm0-.2h0v.1h0v-.1h0q0,.1,0,0h0m-.1,.2h0c-.1,0-.1-.1,0,0h0q-.1,0,0,0c-.1,0,0,0,0,0h0Zm.2-.1h0l-.1,.1h.2v-.1h0s-.2,.1-.1,0h0c-.1,0,0-.1,0,0h0m.1,.1s-.1,0,0,0h-.1v.1l.1-.1q-.1,.1,0,0-.1,.1,0,0h0q-.1,.1,0,0h0Z"/><path d="M153.28,68.74h0q0,.1,0,0,0,.1,0,0c0,.1,0,0,0,0m0,0h0s0,.1,0,0q0,.1,0,0c0,.1,0,0,0,0m0,0h0q0,.1,0,0h0m-.2-.1s0,.1,0,0q0,.1,0,0-.1,.1,0,0c-.1,.1,0,0,0,0m0,0s0,.1,0,0q0,.1,0,0,0,.1,0,0c0,.1,0,0,0,0m0,0h0q0,.1,0,0,0,.1,0,0h0"/><path d="M153.28,66.44h0l-.1,.1s-.1,0,0,.1c0,0-.1,0-.1,.1,0-.1-.1-.1-.1-.1,0,0,0-.1-.1-.1h-.1c0,.1,.1,.1,.1,.2h0v.1h-.2v.2h-.1s0,.1,.1,.1l-.1,.1s0,.1-.1,.1h.1l-.1,.1h.1v.1l-.1,.1h.1v.1h0l.1-.1h0v.1h0s.1,0,.1-.1c0,0,0,.1,.1,.1h0v-.1h.1v-.2h.1v-.1h.1v-.2c.1,0,.1-.1,.2-.1h-.1l.2-.2q0-.1,0,0c0,.1,0,0-.1,0h-.1v-.1h0l.2-.2h-.1s-.1,0-.1,.1h-.1v-.2c.1,.1,.1,0,.1,0h0"/><path class="cls-1" d="M153.48,66.84c-.1,0-.2-.1-.4-.1h0c.2,0,.3,0,.4,.1h0Z"/><path class="cls-1" d="M152.78,66.74h.4c.1,0,.2,0,.4,.1h.1l.1-.1h-.3c0-.1-.1-.1-.1-.1l-.1,.1h0s0-.1-.1-.1h0l-.1-.1c-.1-.1-.1,0-.1,0q-.2,0-.2,.2h0q0-.1,0,0h0"/><path class="cls-1" d="M153.48,66.94h0s-.1,0,0,0h0q-.1,0,0,0h-1v.1h0v-.1h0v.2h-.1v-.1h0v.2h0v.1h-.2c0,.1,.1,.1,.1,.1h.1s-.1,0-.1,.1h0s0,.1-.1,.1h.3s0,.1-.1,.1h0l-.1,.1h0l.1-.1h0s-.1,0-.1,.1h.2v.1h.2v.2h0v-.2h0v.1h0v-.1h0v-.1h0v.2s.1,0,.1-.1h0v-.1h0v-.1h0v.2h0v-.2h.1v-.1h.1v-.2h.1v-.1h.1v.1h0v-.2h0v.2h0v-.1h.1v-.1h0v-.1h0s0-.1-.1-.1h0q.1,0,.2-.1h0q.1-.1,.1-.2h-.1l-.1,.1h-.1l.1-.1c.1-.1,0,0,0-.1h0v.1h0v-.1h-.1q.4,.3,.3,.3h0"/><path class="cls-1" d="M153.48,66.84c-.1,0-.2-.1-.3-.1h0c.1,.1,.2,.1,.3,.1h0"/><path class="cls-1" d="M152.78,66.84h.3c.1,0,.2,0,.3,.1h0c-.1,0-.2-.1-.3-.1-.1-.1-.2-.1-.3,0h0q0-.1,0,0,0-.1,0,0c0-.1,0,0,0,0h0m.4-.1h0q0,.1,0,0,0,.1,0,0h0"/><path d="M153.18,66.64h0s0-.1,0,0h0q0-.1,0,0s.1,0,0,0h0c.1,0,0,0,0,0h0Zm0,0h0q0-.1,0,0,0-.1,0,0c0-.1,0,0,0,0h0"/><path d="M153.08,67.34h-.1c0,.1,.1,.1,.1,0h0m-.2,0h0c0,.1,0,0,0,0h0m-.1,.1s.1,0,0,0h0q.1,0,0,0h0m.1,0h0q0,.1,0,0l.1-.1-.1,.1c.1-.1,0-.1,0-.1v-.1h0v.1h.1q0,.1-.1,.1h0q0,.1,0,0,.1,.1,.2,.1h0q-.1,0-.2-.1,0,.1,0,0,0,.1,0,0h0"/><path d="M153.08,67.04s.1,0,0,0h.1q.1-.1-.1,0c.1-.1,.1,0,0,0h0m-.1,0s0-.1,0,0l-.1-.1h0l.1,.1q0-.1,0,0h0m.1-.1h0v.1h0c-.1,0,0,0,0-.1h0q0-.1,0,0h0Zm-.1,.1h0q-.1,0,0,0h0q-.1,0,0,0c-.1,0,0,0,0,0h0m.2-.1h0c0,.1-.1,.1,0,.1h.2q-.3,0-.2-.1h0Zm.1,.1h-.1v.1l.1-.1c-.1,.1,0,.1,0,0q0,.1,0,0h0q0,.1,0,0h0"/><path d="M153.18,67.04h0q0,.1,0,0,0,.1,0,0c.1,.1,.1,0,0,0m0,0h0s0,.1,0,0q0,.1,0,0h0m0,0h0q0,.1,0,0h0m-.2,0h0q-.1,0,0,0-.1,0,0,0m0,0h0s-.1,0,0,0q-.1,0,0,0c-.1,0,0,0,0,0"/><path d="M154.48,66.84h0v.3h.3q-.1,.1-.2,.1h0v.1h.2c0,.1-.1,.1-.2,.2,0,0,.1,0,.1,.1h0l-.1,.1v.2h0s-.1,0-.1-.1v.2s-.1,0-.1-.1v.2h0q-.1,0-.1-.1s0,.1-.1,.1h0v-.1h0v-.1h-.1v-.1s-.1,0-.1-.1h0v-.2h-.1s0-.1,.1-.1q-.1,0-.1-.1h0l.1-.1s0-.1,.1-.1q-.1-.1-.1-.2h.1v-.3q0-.1,0,0c0,.1,0,0,0,0,0,0,.1,0,.1,.1h0v-.1h0v-.2h.1s.1,.1,0,.1q.1,0,.1,.1s0-.1,.1-.1c0,0,0-.1,0,0q-.1,.2,0,.3h0"/><path class="cls-1" d="M154.08,66.84s.1,0,0,0h0q0,.1,0,0h0"/><path class="cls-1" d="M154.08,66.94c.1,0,.2,.1,.3,.1,.1,.1,.2,.1,.3,.2h0c-.1-.1-.2-.1-.3-.2-.1,0-.2,0-.3-.1h0Z"/><path class="cls-1" d="M154.68,67.24c-.1-.1-.2-.1-.3-.2s-.2-.1-.3-.1h0v-.1s0,.1,.1,.1,.1,0,0,.1h0q.1,0,.1,.1h.1s.1,0,.1-.1v.2h0s.1-.1,.1,0h.2l-.1,.1h0s0-.2,0-.1h0"/><path class="cls-1" d="M154.08,67.14h0s.1,0,0,0q.1,0,0,0h0q.1,0,0,0h.6v.1h0v-.1h0v.1h0v-.1h0c0,.1-.1,.1-.1,.1h.1c0,.1-.1,.1-.1,0h0v.1h0v-.1h0v.2h0s-.1,0-.1-.1h0v.1h0v-.2h0v.2h0v-.2h0v.2l-.1-.1v-.1h0v.1h0v.2h0v-.2h0v.3h0v-.1h0v.1h0l-.1-.1h0v.1s0,.1-.1,.1h0v-.2h0v0h0v-.1h0v-.2h0v0h0v-.1h0v.2h0v-.1h-.2s0-.1,.1-.1c0,0,.1,0,0,0h-.1l.1-.1h-.2l.1-.1h0l.1-.1h0s-.1-.1-.1-.2h.2v-.1h0v-.3h0v.2h0v-.1l-.1,.8h-.1v-.1h0q0-.1,.1,.1-.1-.1,0,0h0"/><path class="cls-1" d="M154.08,67.04c.1,0,.2,.1,.3,.1s.2,.1,.2,.2h0l-.2-.2c-.1-.1-.2,0-.3-.1h0"/><path class="cls-1" d="M154.58,67.34c-.1-.1-.2-.1-.2-.2-.1,0-.2-.1-.3-.1h0c.1,0,.2,.1,.3,.1,.1,0,.2,.1,.2,.2h0m-.3-.3h0s0,.1,0,0c-.1,.1-.1,0,0,0,0,0-.1,0,0,0m.2,.2s.1,0,0,0h0"/><path d="M153.98,67.74s.1,0,0,0h0c.1,.1,.1,0,0,0h0m.1-.1s0,.1,0,0h0q0,.1,0,0h0m.2,.1h0c-.1,0,0,0,0,0h0m-.1,.1h0v-.1h.1v-.1h0v.1h.1l-.2,.1h0q-.1,0-.1-.1h0c0,.1,.1,.1,.1,.1h0m0,.1h0q0-.1,0,0h0"/><path d="M154.28,67.34s-.1,0,0,0c0-.1-.1-.1-.1-.1h0s0,0,.1,.1q-.1,0,0,0h0m0,.1s.1-.1,0,0h0q.1-.1,0,0h0m0-.2h0s0,.1,0,0h0l-.1,.1h0v.1h.1v-.2h0c0,.1,0,0,0,0h0m0,.2s.1,0,0,0h0q.1,0,0,0h0Zm0-.2h0v.1h0v-.1h0v-.1h0c-.1,.2,0,.2,0,.1h0s0-.1,0,0h0Zm-.2,0s.1,0,0,0q.1,.1,0,0h0l.1,.1h0s0,0-.1-.1h0"/><path d="M154.18,67.34h0q0,.1,0,0-.1,.1,0,0c-.1,0,0,0,0,0m0,0h0q0,.1,0,0c0,.1,0,0,0,0h0m0,0h0c0,.1,0,0,0,0h0m.2,.1h0q0,.1,0,0,0,.1,0,0c0,.1,0,0,0,0m0,0h0s0,.1,0,0q0,.1,0,0h0"/><path d="M155.08,68.04l.1,.1v.1h.2q.1,0,.1,.1l.1,.1s0,.1,.1,.2v.4q0,.1,.1,.2v.1h0c-.1,0-.1-.1-.1-.2s0-.2-.1-.3v.6c0,.1,0,.2,.1,.2v.1h0s-.1,0-.1-.1-.1-.2-.1-.4v-.3c0-.1,0-.2-.1-.2,0-.1-.1-.1-.1-.1v.1s0,.1,.1,.1h-.1q-.1,0-.1-.1h0v.1h0v.1h0v.4c0,.1,.1,.1,.1,.1v.4s0,.1,.1,.1v.2s0,.1,.1,.1v.1h0v.1h0v.1h0v.1q0,.1-.1,0v.2q0,.1-.1,.1v.1h0v.1h-.1l-.1,.1h-.1v.1h-.1s0-.1-.1-.1v-.2h0q0-.1,.1,0h.1l.1-.1v-.3h-.2v.1h0v.1h0s0-.1-.1-.1,0-.1,0-.1v-.1c0-.1,0,0,0,0h.1s0-.1,.1-.1h0v-.1h0v-.3h0s0,.1-.1,.1,0,.1-.1,.1h0s0,.1-.1,.1h0v.1h0v-.2h.1s0-.1,.1-.1v-.1h0v-.1l.1-.1v-.1h0c0,.1-.1,.1-.1,.1v.2h0v.1s-.1,0-.1-.1v-.2h.1q0-.1,.1-.1s0-.1,.1-.1v-.2h0v-.1h0v-.1h0v-.3h.2v-.1h0v-.1s0-.1,.1-.1h0v-.2h.1s.1,0,.1-.1h0v-.2q-.4,0-.5-.1,.1,0,0,0h0"/><path class="cls-4" d="M155.68,69.04s.1,.1,0,0h0c.1,.1,0,.1,0,0h0q0,.1,0,0h0Z"/><path class="cls-4" d="M155.48,68.34s.1,0,0,0l.1,.1v.1h0v-.1h0v.2h0v.2h0v.1h0v.1h0c0-.1-.1-.2-.1-.3h0v-.1h0v-.3h0"/><path class="cls-4" d="M155.38,68.24s.1,0,0,0l.1,.2h0q0-.1-.1-.2,.1,.1,0,0h0Z"/><path class="cls-1" d="M155.08,70.44h0s-.1,0,0,0h0s-.1,0,0,0h-.2v.1h0v0h0l-.1-.1h.1s0-.1,.1-.1h0v-.2h0v.1h0v.1h-.1l.2,.1c0-.1,0,0,0,0h0"/><path class="cls-4" d="M155.58,68.84h0c0-.1,0-.2-.1-.2h0v.1h0v0l.1,.1c.1,.1,0,.1,0,0,0,.1,0,0,0,0h0"/><path class="cls-4" d="M155.58,69.44v-.2h0c.1,.1,.1,.2,0,.2h0"/><path class="cls-4" d="M155.78,69.74h0c-.1,0-.1-.1-.1-.2h0v.1h0c0-.1,0,0,.1,.1h0"/><path class="cls-1" d="M154.78,69.14h0s0-.1,0,0c0-.1,.1-.1,0,0h0c0-.1,0,0,0,0h0q.1,0,0,0h0c0,.1-.1,.1-.1,.2h0v.1h0v.2h0v.1h0s0,.1-.1,.1l-.1,.1h-.1s0,.1,.1,.1v-.1s0-.1,.1-.1h0s0-.1,.1-.1h0l.1-.1h0v-.2h0v.2h0q0,.1-.1,.1v.1h0v.1s0,.1-.1,.1h-.2v.1h.1v-.1h0l.1-.1,.1-.1h0v.1h0v-.1h0v.1h.1c.1,0,0,0,0,0h0v.1h0l.1-.1h0l-.1,.1h0v.1h0v.1h0v.2h0v.2h0v.1h0v.1l-.1,.1h-.1v.1h0v.1h.1v-.1s0-.1,0,0h.1s.1,0,.1-.1h.1v-.1h0v-.1h0v-.1h0v-.1h0v-.1h0v0h0v-.1h0v.1h0v-.2h0v.2h0v-.1h0v-.1h0v-.1h0v-.1h0v-.1h0v.1h0v.1h0v-.1h0v.1h0v-.2h0v-.1h0v0h0v-.2h0v.1h0v-.2h0v.1h0v-.1h0v.1h0v-.2h0v.2h0v-.2h0v.2h0v-.3h0v.1h0v-.2h0v0h0v-.1h0v.2h0v-.2h0v.2h0v-.2h0v-.1h0v-.1h0v.1h0v0h0v-.1h0v-.1h.1v-.2h0v.1h0s0-.1-.1-.1v-.1h-.1s.1,0,.1,.1l.1,.1h0v-.2s0-.1-.1-.1h0v.2h0v-.2h-.1v.1h0v-.1l-.1-.1h.2v-.1h-.2v.1s-.1,0-.1,.1h0v.1h0q.1,0,0,0h0v.1s-.1,0-.1,.1h0v.1h.3v.1h0v-.1h-.1s-.1,0-.1,.1h0c.1,0,.1,.1,.1,.2,0-.1-.1-.1,0,0h0Z"/><path d="M155.48,70.24h0q-.1,0,0,0v.1h0v-.1q-.1,0,0,0h0Z"/><path d="M155.38,70.04s0,.1,0,0v.2h0q0,.1-.1,.1h-.1v-.2h0v.2h0s0-.1,.1-.1h0l.1-.2q0,.1,0,0h0"/><path d="M155.28,70.04h0v.1h0v-.1h0q0,.1,0,0h0c-.1,0,0,0,0,0h0"/><path d="M155.28,69.84h0q0,.1-.1,.1h-.1v-.1q.1,.1,.2,0-.1,0,0,0h0Z"/><path d="M155.28,69.54h0c0-.1-.1,0,0,0h0"/><path d="M155.18,69.54s0,.1,0,0v.2h0v-.2h0q0,.1,0,0h0c.1,0,0,.1,0,.1v.1h0v-.2h0q.1,.1,0,0v.2h0v-.2c0,.1,.1,.1,0,0h0"/><path d="M155.18,69.84h0q-.1,0,0,0h0c-.1,0-.1,.1,0,0l-.1,.1h0l.1-.1c-.1,.1-.1,0,0,0q-.1,0,0,0-.1,0,0,0h0"/><path d="M155.18,69.74h0c0,.1-.1,.1,0,0h0q-.1,.1,0,0-.1,.1,0,0h0q-.1,.1,0,0-.1,.1,0,0h0Z"/><path d="M155.08,69.74h0q-.1,.1,0,0h0c-.1,.1-.1,0,0,0-.1,0,0,0,0,0h0"/><path d="M154.98,69.44s0,.1,0,0l-.1,.1v.1h0v-.1h0v-.1q0,.1,.1,0c-.1,.1-.1,0,0,0h0Z"/><path d="M154.98,69.34h0q0,.1,0,0c0,.1-.1,.1-.1,.2v.1h0v-.1s0-.1,.1-.2q0,.1,0,0h0"/><path d="M155.08,68.94s-.1,.1,0,0l-.1,.1h0v.2h0v-.2l.1-.1c-.1,.1-.1,0,0,0h0Z"/><path d="M155.08,68.84h0c0,.1-.1,.1,0,0h0q-.1,.1,0,0l-.1,.1h0c0,.1,0,0,.1-.1q-.1,.1,0,0c-.1,.1,0,.1,0,0h0"/><path d="M155.18,68.94h0q-.1,0,0,0h0l-.1,.1h0l.1-.1h0c0,.1-.1,.1-.1,.1v.1h0v-.1l.1-.1h0q-.1,0,0,0c-.1,0,0,0,0,0h0"/><path d="M155.18,68.84h0s0,.1,0,0h0q-.1,.1,0,0c-.1,.1-.1,0,0,0h0"/><path d="M155.08,69.64h0s-.1,0,0,0h0c-.1,0-.1,.1-.1,.1h0l.1-.1h0c-.1-.1,0-.1,0-.1h0v.1h0c0-.1-.1-.1,0,0h0l-.1,.1h0q0-.1,.1-.1h0"/><path d="M155.08,69.34h0q0,.1-.1,.1h0s.1,0,.1-.1h0Z"/><path d="M155.18,69.14h0c-.1,.1,0,0,0,0h0"/><path d="M154.88,69.14s0,.1,0,0q0,.1,0,0h0c-.1,.1,0,.1,0,0q0,.1,0,0h0"/><path d="M154.98,69.04h0s0,.1,0,0h0q-.1,.1,0,0h0Z"/><path d="M155.08,69.14h0l-.1,.2v.1h0v-.1l.1-.2h0Z"/><path class="cls-1" d="M155.18,68.24s-.1,0,0,0v-.1h0v.1h0v-.1h0v-.1h0c-.1,.1,0,.1,0,.2h0Z"/><path d="M155.18,68.34h0s0,.1,0,0l.1,.1h0s-.1,0-.1-.1q0,.1,0,0h0q0,.1,0,0h0c.1,.1,0,.1,0,0h0"/><path d="M155.18,68.54h0q.1,0,0,0h0c.1,0,.1,.1,0,0h0Z"/><polyline points="155.18 68.34 155.08 68.44 155.08 68.44 155.08 68.44 155.08 68.44 155.08 68.34 155.18 68.34 155.18 68.34 155.18 68.34"/><path d="M155.08,68.84h0s.1,0,0,0q.1,0,0,0l.1-.1h0l-.1,.1q.1,0,0,0h0"/><path d="M155.38,71.94h0v.1h0v-.1h0l.1-.1h0v-.2h0s0-.1,0,0h0v.1h0v.3h0v2.4l-.1-.1v-.5h0v.4h0l-.1,.1h0v.1h0v-.1h0s0-.1,0,0h0v-.1h0v-.4h0v-.1h0v-.1h0v-.2q0-.1,0,0v.2h0v-.4h0v-.6h0v.2h0v.1h0v-.5q.1-.4,.1-.5,0,.1,0,0h0v0q0-.1,0,0h0"/><path class="cls-3" d="M155.38,73.24h0v-.4h0v.4h0q-.1,.1,0,0-.1,.1,0,0h0"/><path class="cls-4" d="M154.88,70.84h0s-.1,0,0,0q-.1,0,0,0-.1,0,0,0c-.1,0-.1,.1,0,0h0c-.1,.1,0,.2,0,.2h.1v-.1l-.1-.1c0,.1,0,0,0,0"/><path class="cls-4" d="M154.48,69.84h0q-.1,0,0,0h0c-.1,.1,0,.2,0,.2v-.2h0"/><path class="cls-4" d="M154.78,70.44h0s0,.1,0,0h0c0,.1-.1,.1,0,0h0q-.1,0,0,0h0c-.1,0,0,.1,0,0h0"/><path class="cls-4" d="M154.48,70.14h0s0,.1,0,0q-.1,.1,0,.1h.1l-.1-.1h0c.1,.1,.1,0,0,0h0"/><path class="cls-4" d="M155.28,68.44h0l.1,.1,.1,.1h0v-.2s0-.1-.1-.1h0v.1q0,.1-.1,0h0c.1,.1,.1,0,.1,0,0,0,0-.1-.1,0v-.1h0v.1c.1-.1,.1,0,0,0h0c.1,0,.1-.1,0,0v-.1h0v.1h0m0-.1h.2v-.1h0l-.2,.1h0q0-.1,0,0h0c0-.1-.1-.1,0,0-.1-.1-.1,0,0,0"/></g></g></g></g><g><g><path class="cls-6" d="M41.56,15.7c1.9-2.6,4.7-3.5,7.7-3.6,4.3-.2,8.6,.2,12.9-.4,.7,0,1.3-.2,1.9-.5,2.8-1.9,5.9-3.4,8.4-5.8,1.6-1.5,3.7-2.2,5.9-2,1.4,.1,1.9,.7,1.7,2.2-.1,.6-.3,1.2-.5,1.8-1.6,3.1-.7,6.8,2.1,8.8,1.1,1,2.3,1.9,3.5,2.8,2.6,1.9,4.7,4.4,6,7.4,.6,1.2,.6,2.6,0,3.8-.6,1.3-1.3,2.5-2.1,3.7-1.3,1.6-1.5,3.8-.6,5.6,.4,.9,.8,1.8,1.2,2.6,1,1.8,1.5,3.7,1.7,5.7,.3,2.2-.5,4.4-2.1,5.9-3.2,3-6.8,5.1-11.3,5.1-2.1,0-4.1,.2-6.2,.2-1.7-.1-3.3,.5-4.6,1.6-.9,.8-1.9,1.5-2.9,2.2-1.2,.8-2.6,1.2-4,.9-4.9-.7-8.2,1.9-11.1,5.4-1.4,1.8-3.1,3.3-5,4.5-3.3,1.9-6.9,1-9.6-1.8-1.7-1.9-4-3-6.6-3.1h-.4c-2.7,.4-3.1,.4-3.4,3.3-.2,2.7-.1,5.5,.3,8.2,.5,3.8,.9,7.7,2.3,11.3,.1,.4,.4,.8-.1,1.1-.5,.3-.8-.2-1.1-.5-3.3-4.3-5.8-9.2-7.5-14.3-.5-1.7-.8-3.5-1-5.3,0-.7-.3-1.3-.4-2-.1-.8-.7-1.5-1.6-1.6-4.8-1.1-7.8-5.9-6.7-10.7,.1-.5,.3-.9,.4-1.4,1.5-3.5,.7-6.4-.7-9.5-2.1-4.4-3.9-9-5.1-13.7-.8-3.1,.4-5.5,2.9-5.9,1.3-.2,2.5-.1,3.8,.2,2.1,.5,4.2,1.4,6.3,2,.6,.2,1.3,.4,1.9,.5,3,.7,4.2,.3,5.9-2.4,1.3-2.1,2.9-4,4.8-5.6,1.8-1.5,4.1-2.4,6.4-2.5,2.4-.1,4.7-1.3,6.1-3.3,.1-.3,.3-.6,.5-.9h0ZM15.56,67.8c1.1,0,2,.8,2,1.9,.1,.5,.2,1.1,.3,1.6,.4,3.6,1.3,7.1,2.7,10.3,.9,2.2,2,4.2,3.3,6.1,.5-.3,.4-.5,.4-.7-.6-3.1-1.1-6.2-1.3-9.4-.2-2.4-.2-4.9,.1-7.4,0-1.2,.9-2.2,2.1-2.3,3.2-.9,6.6-.1,8.9,2.2,1,1,2.1,1.9,3.4,2.6,1.3,.8,3,1,4.4,.5,2.3-.7,4.2-2.1,5.6-4.1,1.1-1.6,2.4-3,4-4.2,2.1-1.9,4.9-2.8,7.7-2.6,1.5,.3,3,0,4.2-.8,1.1-.7,2.2-1.5,3.2-2.3,1.1-1,2.6-1.6,4.2-1.6,2.4,0,4.8-.1,7.2-.2,4.2,.1,8.2-2,10.9-5.3,.3-.4,.9-1.1,.5-1.4-.9-.6-.3-.9,0-1.4,.6-1,.7-2.1,.4-3.2-.2-1.2-.7-2.4-1.2-3.5-.6-1-1.1-2.1-1.5-3.2-.8-2.1-.5-4.4,.8-6.2,.6-.8,1-1.6,1.6-2.3,1.3-1.8,1.1-3.5,.1-5.4-1.3-2.3-3.1-4.3-5.3-5.9-1.2-1-2.4-2-3.7-2.9-2.8-2.3-3.7-6.1-2.3-9.4,.2-.5,.4-1,.5-1.6,.2-1.1,.1-1.4-1-1.4-1.6-.1-3.2,.5-4.4,1.6-2.7,2.6-5.9,4.3-9,6.3-.4,.3-.8,.4-1.3,.5-2.8,.1-5.7,.9-8.5,.4-1.8-.2-3.7-.2-5.6-.1-2.9,0-5.6,1.6-7.1,4.1-1.1,2-3.1,3.4-5.4,3.5-1.9,0-3.8,.4-5.6,1.2-2.3,1.3-4.3,3.2-5.8,5.5-.8,1.2-1.7,2.3-2.7,3.2-.8,.9-2.1,1.3-3.3,1-.6-.1-1.3-.3-2-.4-2.7-.6-5.2-1.8-7.9-2.5-1.1-.3-2.2-.3-3.4,0-1.9,.5-2.5,1.3-2.3,3.4,.1,.7,.2,1.4,.4,2,1.3,4.7,3.1,9.2,5.3,13.6,.5,1.1,1,2.3,1.2,3.5,.4,1.4,.2,2.9-.4,4.2-1.3,2.5-1,5.2-.2,7.8,.4,1.3,1.1,2.4,2.1,3.1,1.3,1,2.4,1.5,3.7,1.6h0Z"/><path class="cls-3" d="M20.56,81.6c-1.4-3.3-2.3-6.8-2.7-10.3-.1-.5-.2-1.1-.3-1.6-.1-1.1-1-1.9-2-1.9-1.2-.1-2.4-.5-3.3-1.3-1-.8-1.8-1.9-2.1-3.2-.8-2.6-1.1-5.2,.2-7.8,.6-1.3,.8-2.8,.4-4.2-.2-1.2-.6-2.4-1.2-3.5-2.2-4.4-4-8.9-5.3-13.6-.2-.7-.3-1.3-.4-2-.2-2.1,.3-2.9,2.3-3.4,1.1-.3,2.3-.2,3.4,0,2.7,.6,5.2,1.9,7.9,2.5,.6,.1,1.3,.3,2,.4,1.2,.2,2.4-.1,3.3-1,1-1,1.9-2.1,2.7-3.2,1.4-2.3,3.4-4.1,5.8-5.5,1.7-.9,3.7-1.3,5.6-1.2,2.3-.1,4.4-1.5,5.4-3.5,1.5-2.5,4.2-4.1,7.1-4.1,1.8-.2,3.7-.2,5.6,.1,2.9,.4,5.7-.3,8.5-.4,.5,0,.9-.2,1.3-.5,3.1-2,6.3-3.7,9-6.3,1.2-1.1,2.8-1.6,4.4-1.5,1.1,0,1.3,.3,1,1.4-.1,.5-.3,1.1-.5,1.6-1.5,3.3-.6,7.2,2.3,9.4,1.3,.9,2.4,2,3.7,2.9,2.2,1.6,4,3.6,5.3,5.9,1,1.8,1.3,3.6-.1,5.4-.6,.8-1,1.6-1.6,2.3-1.3,1.8-1.7,4.1-.8,6.2,.4,1.1,.9,2.2,1.5,3.2,.6,1.1,1,2.3,1.2,3.5,.3,1.1,.1,2.2-.4,3.2-.3,.4-.9,.8,0,1.4,.4,.2-.2,1-.5,1.4-2.7,3.3-6.7,5.3-10.9,5.5-2.4,.1-4.8,.2-7.2,.2-1.5,0-3,.5-4.2,1.6-1,.8-2.1,1.6-3.2,2.3-1.3,.8-2.8,1-4.2,.8-2.8-.2-5.6,.7-7.7,2.6-1.5,1.2-2.9,2.6-4,4.2-1.3,1.9-3.3,3.4-5.6,4.1-1.5,.5-3.1,.3-4.4-.5-1.2-.7-2.3-1.6-3.4-2.6-2.3-2.3-5.8-3.2-8.9-2.2-1.2,.2-2,1.2-2.1,2.3-.3,2.4-.3,4.9-.1,7.4,.2,3.2,.6,6.3,1.3,9.4,0,.2,.1,.4-.4,.7-1.7-2.4-2.8-4.5-3.7-6.6h0Z"/></g><path class="cls-6" d="M82.96,5.6c-.6-.4-.3-.9-.4-1.3-.4-2.5-1.5-3.4-4-3.3-1.9,.2-3.8,.8-5.4,1.8-.5,.3-1,.9-2,.5,1.4-1.4,3.3-2.4,5.2-2.9,1.4-.5,2.9-.5,4.3-.2,2.3,.9,3.2,2.9,2.3,5.4h0Z"/><path class="cls-6" d="M48.86,72.7c-2.3,1.9-4.6,3.5-7.3,4.3-2.1,.6-3.9-.2-5.6-1.6-.1-.1-.2-.3-.2-.5,.1-.3,.4-.3,.7-.2,.4,.2,.8,.4,1.2,.7,1.4,1.1,3.3,1.2,4.9,.4,1.8-.9,3.5-1.8,5.2-2.9,.3-.3,.7-.3,1.1-.2h0Z"/><path class="cls-6" d="M80.86,59.8c1.4-.4,2.8,.1,4.1-.3,1.4-.4,2.7-1,4-1.8,1.2-.9,2.2-2,3-3.3-.5,4.3-7.6,7.6-11.1,5.4h0Z"/><path class="cls-6" d="M12.06,71c-2.5-1.3-4.4-2.8-5.2-5.4-.2-.7-.3-1.5-.3-2.2,0-.2,.1-.5,.5-.5,.2,0,.4,.2,.4,.4,0,3.4,2.3,5.2,4.5,7.2,0-.1,0,0,.1,.5h0Z"/><path class="cls-6" d="M23.46,25c-.3-3,5.4-6.9,9.2-6.4-3.7,1-7,2.7-9.2,6.4Z"/><path class="cls-6" d="M.06,32c-.4-2.6,1.1-5.8,3.1-6.7,.8-.3,1-.3,2.5,.5-1.4,.5-2.9,.6-3.8,2-.7,1.4-1.3,2.8-1.8,4.2H.06Z"/><path class="cls-6" d="M92.56,25.3c1.8,1.4,1.5,4.3-.6,6.4,0-1.3,.7-2.2,.9-3.2,.3-1-.3-2-.3-3.2Z"/><path class="cls-6" d="M59.86,65c1.8,.4,3.5-.4,5.3-.5-1.3,1.6-3.7,1.8-5.3,.5h0Z"/></g><g class="cls-14"><path class="cls-6" d="M34.36,38.9c-.5,.2-.9,.4-1.3,.6-.4,.2-.8,.4-1.2,.5-.2,.1-.3,.1-.5,.2-.2,0-.4,0-.6-.1,0-.1,.1-.1,.1-.2s.1-.1,.1-.2l.1-.1c.1,0,.1-.1,.2-.1,.5-.2,1-.5,1.6-.7,.5-.2,1.1-.5,1.6-.7s.9-.2,1.3,0c.3,.2,.6,.6,.7,1.1,.1,.4,.1,.9,0,1.4s-.3,1-.6,1.5-.6,.9-1,1.2c-.4,.4-.7,.6-1.1,.8-1,.4-1.8,.5-2.6,.4s-1.5-.5-2.1-1-1.1-1.1-1.5-1.9c-.4-.8-.7-1.6-.9-2.4-.2-.9-.3-1.7-.3-2.5s.1-1.6,.4-2.3c.2-.5,.4-1,.7-1.5s.7-.9,1.2-1.2c.4-.3,.7-.4,1.1-.6,.4-.1,.8-.2,1.2-.2s.8,.1,1.2,.2,.7,.4,1,.6c.2,.1,.3,.3,.4,.5,.1,.2,.2,.4,.4,.5,.1,.1,.1,.2,.1,.3s-.1,.2-.2,.2-.1,.1-.2,.1c0,0-.1,0-.2,.1-.2,.1-.4,.1-.5,.1s-.2-.1-.3-.4c-.4-.5-.7-.9-1.1-1.1s-.8-.3-1.1-.2c-.4,.1-.7,.3-1,.6-.3,.3-.6,.8-.8,1.3-.3,.8-.4,1.6-.5,2.4,0,.8,0,1.6,.2,2.4,.1,.5,.2,.9,.3,1.3,.1,.4,.3,.8,.5,1.2,.3,.6,.8,1.1,1.2,1.4,.5,.3,1,.5,1.5,.6s1,0,1.4-.2,.8-.4,1.1-.8c.3-.4,.4-.8,.5-1.4-.1-.4-.2-1-.5-1.7Z"/><path class="cls-6" d="M38.66,40.1c-.5-1.6-1.1-3.3-1.7-4.9s-1.1-3.2-1.6-4.9c-.1,0-.2,0-.3,.1-.1,0-.2,.1-.3,.1s-.2,0-.3,.1c-.1,0-.2,0-.3-.1,0-.1,.1-.2,.1-.2,0-.1,0-.2,.1-.2,.1-.2,.2-.4,.4-.5,.1-.2,.3-.4,.3-.6,0-.1,.1-.1,.2-.2,.1-.1,.2-.1,.3-.2,.3-.1,.5-.3,.8-.4s.5-.2,.8-.4c.4-.2,.9-.4,1.3-.5,.5-.1,.9-.2,1.4-.3,2-.2,3.6,.4,4.9,1.9,.5,.6,.9,1.3,1.3,2.1,.3,.8,.6,1.6,.6,2.5,.1,.9,0,1.8-.2,2.7s-.6,1.8-1.2,2.7c-.7,.9-1.5,1.6-2.4,2.1s-1.9,.8-3.1,.9c-.4,0-.8,0-1.2-.1s-.7-.3-1.1-.6c0-.2,.1-.3,.2-.4s.2-.2,.3-.2c.1-.1,.2-.1,.4-.2,0-.2,.2-.2,.3-.3Zm2.3,.4c.3,.1,.5,0,.7-.1s.4-.2,.6-.4c.5-.4,.8-.8,1.1-1.3s.5-1,.7-1.6c.3-1,.4-2.1,.3-3-.1-1-.4-2-.8-2.9-.2-.5-.5-.9-.8-1.3s-.7-.8-1.1-1.1c-.3-.2-.7-.4-1.1-.6-.4-.2-.8-.2-1.2-.3-.4,0-.9,.1-1.3,.2-.4,.1-.9,.4-1.3,.8,.7,2,1.4,3.9,2.2,5.8,.6,1.9,1.3,3.9,2,5.8Z"/><path class="cls-6" d="M50.06,32.2c-.1,.2-.2,.5-.2,.9,0,.3,0,.7,.1,1.1,.1,.4,.2,.7,.4,1.1l.6,.9c.2,.3,.5,.5,.7,.6,.3,.1,.5,.2,.8,.1,.3-.1,.5-.3,.8-.7,.2-.4,.3-.9,.4-1.5,.1-.8,.2-1.7,.1-2.5-.1-.9-.2-1.7-.4-2.6s-.4-1.7-.7-2.5-.5-1.6-.8-2.4c-.2-.4-.2-.7-.1-.9,.1-.2,.3-.3,.7-.4h.6c.2,0,.4,.1,.5,.3,.6,1.4,1.1,2.8,1.5,4.2,.4,1.4,.7,2.9,.7,4.4v1.3c0,.4-.1,.9-.1,1.3-.1,.9-.5,1.7-1,2.2s-1.2,.9-2.1,1c-.8,.1-1.5,0-2.2-.4s-1.3-1-1.7-1.8c-.3-.4-.4-.9-.5-1.4,0-.5,0-1,.1-1.5,.1-.3,.3-.6,.6-.7,.2-.1,.4-.2,.6-.2,.1-.1,.4,0,.6,.1Z"/><path class="cls-6" d="M58.56,28c.3-.1,.5-.3,.8-.4s.5-.3,.8-.4c.1-.1,.3-.1,.4-.2,.2,0,.3-.1,.5-.1h.3c.1,0,.2,.1,.3,.2,0,.2-.1,.3-.2,.3-.1,.1-.2,.1-.4,.2-.4,.2-.7,.4-1.1,.6s-.7,.4-1.1,.6c.2,.7,.5,1.3,.8,2s.5,1.3,.9,2c.1-.1,.3-.1,.4-.1s.2-.1,.3-.1c.4-.2,.8-.3,1.2-.5,.4-.2,.8-.4,1.2-.5,.2-.1,.4-.1,.5-.1,.2,0,.4,0,.6,.1,0,.1,0,.3-.1,.3l-.2,.2-1.3,.7-1.2,.6c-.4,.2-.8,.4-1.3,.7-.2,.1-.5,.2-.6,.3s-.4,.1-.7,.2h-.5c-.1-.1-.2-.2-.3-.5-.3-.8-.6-1.5-.9-2.2s-.6-1.5-.8-2.2c-.3-.9-.6-1.8-.9-2.8-.3-.9-.6-1.8-.8-2.8v-.2c-.1-.3-.1-.5-.1-.7s0-.4,.1-.5,.2-.3,.3-.4c.1-.1,.3-.3,.6-.4,.4-.2,.8-.4,1.1-.5,.3-.1,.7-.2,1.2-.3,.3-.1,.7-.1,1-.2,.3,0,.7-.1,1-.1h.6c.2,0,.2,.1,.3,.2,0,.1,0,.2-.2,.3-.2,.1-.3,.2-.5,.3-.2,.1-.3,.1-.5,.1-.4,0-.9,0-1.3,.1s-.8,.2-1.3,.2c-.2,0-.4,.1-.5,.2s-.1,.3,0,.5c.1,.3,.1,.6,.2,.9s.2,.6,.2,.9c.2,.6,.4,1.1,.6,1.7,.2,.5,.4,1.1,.6,1.7q0,.1,.1,.1c-.1-.1-.1,0-.1,0Z"/></g><g class="cls-14"><path class="cls-6" d="M30.26,61.5c.3,0,.7,0,1,.2,.5,.3,.9,.2,1.2-.3l.3-.6c.1-.2,.1-.4,.1-.7,0-.2,0-.5-.1-.7,0-.2-.1-.4-.2-.6-.2-.3-.4-.6-.7-.8l-.9-.6c-.5-.2-.9-.5-1.4-.7s-.9-.4-1.4-.7c-.3-.2-.6-.4-1-.6l-.9-.6c-.8-.6-1.2-1.4-1.3-2.4-.1-.8,0-1.5,.3-2.1s.8-1.1,1.5-1.5c.3-.2,.7-.3,1-.4,.3-.1,.7-.2,1.1-.2,1.3-.1,2.2,.5,2.7,1.8-.1,.2-.3,.4-.5,.4-.2,.1-.4,.1-.6,.1q-.1,0-.2-.1l-.2-.2c-.1-.1-.2-.2-.3-.4-.1-.1-.2-.3-.3-.4-.5-.5-1-.6-1.5-.5s-.9,.4-1.2,1-.4,1.2-.3,1.7c.1,.6,.3,1.1,.7,1.6s.8,.9,1.3,1.2c.3,.2,.7,.4,1,.6,.4,.2,.7,.3,1.1,.5,.4,.2,.7,.4,1.1,.5,.4,.2,.7,.4,1.1,.6,.4,.2,.7,.5,1,.8s.5,.7,.7,1.1c.2,.5,.2,1,.1,1.5-.1,.5-.4,1-.8,1.3-.5,.4-1,.7-1.5,.9-.6,.2-1.1,.3-1.8,.3-.3,0-.5-.1-.8-.2-.2-.1-.3-.2-.4-.4-.1-.2,0-.3,.1-.5,.3,.3,.5,.2,.9,.1Z"/><path class="cls-6" d="M40.56,52.8c-.3-1.1-.6-2.2-1-3.3s-.9-2.1-1.4-3.2c.5-.5,1.1-.8,1.8-.7,.1,0,.2,0,.3,.1s.2,.2,.2,.3l.3,.6,.3,.6c.4,1,.8,2.1,1.2,3.2,.3,1.1,.6,2.2,.8,3.3,.1,.5,.1,1.1,.2,1.6,0,.5,0,1.1-.1,1.6-.1,.6-.3,1.1-.6,1.5s-.7,.8-1.1,1c-.4,.2-.9,.4-1.4,.4s-1-.1-1.5-.4c-.3-.1-.6-.3-.8-.5-.3-.2-.5-.4-.7-.6-.5-.5-1-1.1-1.4-1.7-.4-.6-.7-1.3-1-2-.4-.9-.7-1.7-.9-2.6l-.6-2.7v-.5c0-.1,0-.2,.1-.3s.1-.2,.2-.2c.1-.1,.2-.1,.4-.2,.1,0,.2,0,.2-.1h.7c.1,.1,.1,.2,.2,.4,.2,1,.4,2,.7,3s.7,1.9,1.1,2.9c.5,1.1,1.1,2,1.5,2.7,.5,.7,.9,1.1,1.3,1.3,.4,.2,.7,.3,1,.1,.3-.1,.5-.5,.6-1s.1-1.1,.1-1.9c-.3-.7-.5-1.6-.7-2.7Z"/><path class="cls-6" d="M52.76,53.8c.3,0,.7,0,1,.2,.5,.3,.9,.2,1.2-.3l.3-.6c.1-.2,.1-.4,.1-.7,0-.2,0-.5-.1-.7,0-.2-.1-.4-.2-.6-.2-.3-.4-.6-.7-.8l-.9-.6c-.5-.2-.9-.5-1.4-.7s-.9-.4-1.4-.7c-.3-.2-.6-.4-1-.6l-.9-.6c-.8-.6-1.2-1.4-1.3-2.4-.1-.8,0-1.5,.3-2.1s.8-1.1,1.5-1.5c.3-.2,.7-.3,1-.4,.3-.1,.7-.2,1.1-.2,1.3-.1,2.2,.5,2.7,1.8-.1,.2-.3,.4-.5,.4-.2,.1-.4,.1-.6,.1q-.1,0-.2-.1l-.2-.2c-.1-.1-.2-.2-.3-.4-.1-.1-.2-.3-.3-.4-.5-.5-1-.6-1.5-.5s-.9,.4-1.2,1-.4,1.2-.3,1.7,.3,1.1,.7,1.6,.8,.9,1.3,1.2c.3,.2,.7,.4,1,.6,.4,.2,.7,.3,1.1,.5,.4,.2,.7,.4,1.1,.5,.4,.2,.7,.4,1.1,.6,.4,.2,.7,.5,1,.8s.5,.7,.7,1.1c.2,.5,.2,1,.1,1.5s-.4,1-.8,1.3c-.5,.4-1,.7-1.5,.9-.6,.2-1.1,.3-1.8,.3-.3,0-.5-.1-.8-.2-.2-.1-.3-.2-.4-.4-.1-.2,0-.3,.1-.5,.3,.3,.5,.2,.9,.1Z"/><path class="cls-6" d="M54.56,41.2c.3-.3,.6-.5,.9-.6,.4-.1,.7,.1,1,.3,.3,.3,.6,.7,.9,1,.3,.4,.6,.7,.9,1.1,.6,.9,1.2,1.7,1.8,2.6,.6,.9,1.2,1.7,1.8,2.6,.1,.1,.1,.2,.2,.3s.1,.2,.2,.3c0-.1,0-.2,.1-.3v-.2c0-1.7,0-3.3,.1-5s.3-3.3,.4-5c0-.2,.1-.4,.1-.5,0-.2,.2-.3,.3-.4,.2-.1,.5-.2,.7-.3s.5-.1,.7-.1q.1,0,.2,.1t.1,.2v.9c-.2,1.6-.3,3.2-.4,4.8s-.1,3.2-.1,4.8v1.7c0,.5,.1,1.1,.1,1.7v.5c0,.1,0,.2-.1,.3s-.2,.2-.3,.2c-.1,.1-.3,.1-.5,.2-.1,0-.2,.1-.3,.1-.2,0-.3,.1-.4,.1h-.3c-.1,0-.2-.1-.2-.2-.1-.1-.2-.2-.3-.4-.8-1.2-1.6-2.4-2.5-3.6-.8-1.2-1.6-2.4-2.5-3.6-.6-.9-1.3-1.8-2-2.8-.1-.2-.3-.3-.4-.5s-.1-.1-.2-.3Z"/><path class="cls-6" d="M72.06,48.6c-.2,.3-.5,.5-.8,.6s-.6,.2-.9,.1c-.1,0-.2,0-.3-.1-.1-.1-.2-.2-.2-.3l-.3-.6-.3-.6c-.1-.5-.3-1-.5-1.6l-.6-1.8-.6-1.8c-.2-.6-.3-1.1-.5-1.6-.2-.6-.3-1.1-.5-1.7s-.3-1.1-.5-1.7c-.1-.3-.1-.6,0-.7,.1-.1,.3-.3,.6-.4h.2c.3-.1,.5-.1,.6,0s.2,.2,.3,.5c.2,.5,.4,1.1,.6,1.7,.2,.6,.4,1.3,.7,1.9,.2,.6,.4,1.3,.7,1.9,.2,.6,.4,1.2,.6,1.7,.2,.6,.4,1.1,.6,1.7,.2,.6,.4,1.1,.6,1.7,.1,.2,.2,.3,.2,.5s.2,.4,.3,.6Z"/><path class="cls-6" d="M76.56,44c-.3,.2-.6,.3-.9,.4-.3,0-.6,0-.8-.1h0c-.6-.4-1-.7-1-1.1-.1-.4,.1-.9,.5-1.5,.4-.7,.9-1.3,1.4-1.9l1.5-1.8c.4-.5,.8-.9,1.2-1.4,.4-.4,.8-.9,1.1-1.3,.2-.2,.3-.4,.5-.7,.1-.2,.2-.4,.3-.7,.2-.3,.2-.6,.1-.7-.1-.1-.4-.2-.7-.3-.4,0-.7,0-1.1,.1-.3,.1-.7,.2-1,.3-1.4,.5-2.6,1.2-3.6,2-.9,.9-1.6,1.9-2.1,3.2-.1,.2-.1,.5-.1,.7s0,.5,.1,.7c.1,0,.2,.1,.3,.1s.3,.1,.4,.1c-.1,.1-.2,.1-.2,.2q-.1,.1-.2,.1c-.4,.2-.9,.3-1.3,.2-.2,0-.3-.1-.4-.1-.1-.1-.2-.2-.2-.4-.1-.3-.1-.6-.1-.9s.1-.6,.2-.9c.3-.8,.7-1.5,1.2-2.2,.5-.6,1.2-1.2,1.9-1.7,1.1-.7,2.2-1.3,3.4-1.6,1.2-.3,2.4-.5,3.6-.4,.2,0,.4,0,.6,.1,.2,0,.4,.1,.5,.2,.6,.2,.7,.5,.5,1.1l-.3,.6-.3,.6c-.3,.3-.5,.7-.8,1s-.5,.7-.8,1c-.4,.5-.9,1.1-1.3,1.6s-.9,1.1-1.3,1.6c-.5,.6-.9,1.2-1.2,1.8-.3,.5-.4,.8-.4,1.1s.3,.6,.6,.9l.1,.1c-.1-.3,0-.2,.1-.1q-.1-.1,0,0-.1,0,0,0Zm.8,2.7c-.5,.2-1,.3-1.5,.2-.3-.1-.4-.3-.3-.6s.3-.5,.5-.7,.5-.3,.8-.4c.5-.1,.8-.1,.9,0s.2,.3,.2,.5-.1,.4-.3,.6c-.1,.3-.2,.4-.3,.4Z"/></g></g></g></svg>