<?xml version="1.0" encoding="UTF-8"?><svg id="Layer_2" xmlns="http://www.w3.org/2000/svg" viewBox="0 0 215.24 207.44"><defs><style>.cls-1{fill:#f7db17;}.cls-2{fill:#0093dd;}.cls-3{fill:#fff;}.cls-4{fill:red;}.cls-5{fill:#171796;}.cls-6,.cls-7,.cls-8{fill:#2b2115;}.cls-9{fill:#262626;}.cls-10{fill:#fcdd88;}.cls-10,.cls-11,.cls-7{stroke-miterlimit:10;stroke-width:1px;}.cls-10,.cls-11,.cls-7,.cls-12,.cls-8,.cls-13{stroke:#2b2115;}.cls-11{fill:#d3d9e2;}.cls-12{fill:#b77859;}.cls-12,.cls-8,.cls-13{stroke-miterlimit:10;}.cls-13{fill:none;}.cls-14{isolation:isolate;}</style></defs><g id="Layer_2-2"><g><g id="Layer_3"><g id="Layer_1-2"><g><g><polygon class="cls-12" points="41.53 137.92 214.03 154.02 194.43 131.72 64.33 119.62 41.53 137.92"/><rect class="cls-10" x="97.92" y="91.44" width="53.7" height="162.4" transform="translate(-58.68 280.9) rotate(-84.69)"/><g><rect class="cls-11" x="51.12" y="149.61" width="16.1" height="11.9" transform="translate(-101.19 200.08) rotate(-84.69)"/><line class="cls-13" x1="53.43" y1="152.32" x2="65.33" y2="153.42"/><line class="cls-13" x1="59.93" y1="147.62" x2="58.43" y2="163.52"/></g><g><rect class="cls-11" x="70.65" y="151.37" width="16.1" height="11.9" transform="translate(-85.23 221.12) rotate(-84.69)"/><line class="cls-13" x1="73.03" y1="154.22" x2="84.83" y2="155.32"/><line class="cls-13" x1="79.43" y1="149.42" x2="77.93" y2="165.42"/></g><g><rect class="cls-11" x="90.17" y="153.24" width="16.1" height="11.9" transform="translate(-69.37 242.26) rotate(-84.69)"/><line class="cls-13" x1="92.53" y1="156.02" x2="104.43" y2="157.12"/><line class="cls-13" x1="99.03" y1="151.22" x2="97.53" y2="167.22"/></g><g><rect class="cls-11" x="109.8" y="155.1" width="16.1" height="11.9" transform="translate(-53.42 263.49) rotate(-84.69)"/><line class="cls-13" x1="112.13" y1="157.82" x2="123.93" y2="158.92"/><line class="cls-13" x1="118.53" y1="153.02" x2="117.03" y2="169.02"/></g><g><rect class="cls-11" x="128.69" y="156.82" width="16.1" height="11.9" transform="translate(-37.98 283.86) rotate(-84.69)"/><line class="cls-13" x1="131.03" y1="159.62" x2="142.93" y2="160.72"/><line class="cls-13" x1="137.53" y1="154.82" x2="136.03" y2="170.82"/></g><g><rect class="cls-11" x="147.7" y="158.53" width="16.1" height="11.9" transform="translate(-22.44 304.34) rotate(-84.69)"/><line class="cls-13" x1="150.03" y1="161.32" x2="161.93" y2="162.42"/><line class="cls-13" x1="156.43" y1="156.52" x2="154.93" y2="172.52"/></g><g><rect class="cls-11" x="166.59" y="160.37" width="16.1" height="11.9" transform="translate(-7.13 324.81) rotate(-84.69)"/><line class="cls-13" x1="169.03" y1="163.12" x2="180.83" y2="164.22"/><line class="cls-13" x1="175.43" y1="158.32" x2="173.93" y2="174.32"/></g><g><rect class="cls-11" x="184.95" y="162.02" width="16.1" height="11.9" transform="translate(7.89 344.59) rotate(-84.69)"/><line class="cls-13" x1="187.33" y1="164.82" x2="199.23" y2="165.92"/><line class="cls-13" x1="193.73" y1="160.02" x2="192.33" y2="176.02"/></g><rect class="cls-7" x="51.22" y="170.7" width="11.9" height="11.9" transform="translate(-124.01 217.23) rotate(-84.69)"/><rect class="cls-7" x="70.45" y="172.79" width="11.9" height="11.9" transform="translate(-108.64 238.27) rotate(-84.69)"/><rect class="cls-7" x="90" y="174.55" width="11.9" height="11.9" transform="translate(-92.66 259.33) rotate(-84.69)"/><rect class="cls-7" x="109.62" y="176.34" width="11.9" height="11.9" transform="translate(-76.63 280.5) rotate(-84.69)"/><rect class="cls-7" x="185" y="181.64" width="11.9" height="11.9" transform="translate(-13.51 360.36) rotate(-84.69)"/><rect class="cls-7" x="166.66" y="179.86" width="11.9" height="11.9" transform="translate(-28.38 340.49) rotate(-84.69)"/><path class="cls-8" d="M130.23,199.72l1.7-18.1s2.6-5.2,12.8-4.3,11.5,6.6,11.5,6.6l-1.7,18.1-24.3-2.3h0Z"/></g><g><path class="cls-9" d="M150.73,74.22s2,11.7,1.6,19.8c-.8,26.5-3.4,41.9-3.4,41.9l2.1,.8s4-37.3,3.6-43.3-.9-19.7-2-20.3-1.9,1.1-1.9,1.1h0Z"/><g><path class="cls-4" d="M151.83,75.72c.1-.1,.2-.3,.2-.4s.2-.3,.3-.4,.2-.3,.4-.4c.1-.1,.3-.2,.4-.4,.2-.1,.3-.2,.5-.4,.2-.1,.3-.2,.5-.3s.4-.2,.5-.3l.6-.3,.6-.3,.6-.3,.6-.3c.2-.1,.4-.2,.6-.2,.2-.1,.4-.2,.6-.2s.4-.1,.6-.2,.4-.1,.6-.2,.4-.1,.6-.1,.4-.1,.6-.1,.4,0,.6-.1,.4,0,.6,0h1.2c.2,0,.3,0,.5,.1s.3,.1,.5,.1,.3,.1,.5,.1,.3,.1,.4,.2,.3,.1,.4,.2l.3,.3,.3,.3,.3,.3c.1,.1,.2,.2,.2,.4s.1,.2,.2,.4,.2,.5,.2,.7,.2,.4,.3,.6c.1,.2,.2,.3,.3,.5,.1,.2,.2,.3,.3,.4,.1,.1,.2,.2,.3,.4s.2,.2,.3,.3c.1,.1,.2,.2,.4,.2,.1,.1,.2,.1,.4,.2,.1,0,.3,.1,.4,.1s.3,.1,.4,.1h1.2c.1,0,.3,0,.4-.1,.1,0,.3-.1,.5-.1,.1,0,.3-.1,.5-.1s.3-.1,.5-.2,.3-.1,.5-.2,.3-.1,.5-.2c.2-.1,.3-.1,.5-.2,.2-.1,.3-.2,.5-.2,.2-.1,.3-.2,.5-.2s.3-.2,.5-.2c.2-.1,.4-.2,.6-.2s.4-.2,.6-.2,.4-.1,.5-.2c.2-.1,.4-.1,.5-.2,.2,0,.4-.1,.5-.1s.3-.1,.5-.1h1c.1,0,.3,0,.4,.1s.3,.1,.4,.1,.3,.1,.4,.2c.1,.1,.2,.2,.4,.2l.3,.3c.1,.1,.2,.2,.3,.4s.2,.3,.2,.4c.1,.2,.1,.3,.2,.5s.1,.4,.2,.5c.1,.2,.1,.3,.2,.4s.1,.2,.2,.3l.3,.3c.1,.1,.2,.2,.3,.2s.2,.1,.3,.2,.2,.1,.4,.1,.3,0,.4,.1h1c.2,0,.4,0,.5-.1s.4-.1,.6-.1,.4-.1,.6-.2,.4-.1,.6-.2,.4-.2,.7-.3c.2-.1,.5-.2,.7-.3s.5-.2,.7-.3,.4-.2,.6-.2c.2-.1,.4-.1,.6-.2s.4-.1,.6-.2,.4-.1,.6-.1,.4-.1,.5-.1h1c.2,0,.3,0,.5,.1s.3,.1,.5,.2,.3,.1,.4,.2,.3,.2,.4,.3,.3,.2,.4,.4c.1,.2,.2,.3,.4,.5s.2,.4,.4,.6c.1,.2,.2,.5,.3,.7l.3,.6c.1,.2,.2,.3,.4,.5l.4,.4c.1,.1,.3,.2,.5,.3s.3,.1,.5,.2,.3,.1,.5,.1h1.1c.2,0,.4-.1,.6-.1s.4-.1,.6-.2c.2-.1,.4-.2,.6-.2l.6-.3c.2-.1,.4-.2,.5-.3,.2-.1,.4-.2,.5-.3s.3-.2,.5-.4l.4-.4,.4-.4v8.3c0,.2,0,.3-.1,.5s0,.4-.1,.6c0,.2,0,.4-.1,.6,0,.2,0,.4-.1,.6-.1,.1-.3,.2-.4,.4-.2,.1-.3,.2-.5,.4-.2,.1-.4,.2-.5,.3l-.6,.3-.6,.3c-.2,.1-.4,.2-.6,.2-.2,.1-.4,.1-.6,.2s-.4,.1-.6,.1-.4,.1-.6,.1h-.6c-.2,0-.4,0-.6-.1-.2,0-.4-.1-.5-.1-.2-.1-.3-.1-.5-.2s-.3-.2-.4-.3c-.1-.1-.3-.2-.4-.4s-.2-.3-.3-.5l-.3-.6c-.1-.2-.2-.5-.3-.6-.1-.2-.2-.4-.3-.5s-.2-.3-.4-.4c-.1-.1-.3-.2-.4-.3-.1-.1-.3-.2-.4-.3s-.3-.1-.4-.2c-.1,0-.3-.1-.5-.1h-1c-.2,0-.4,0-.5,.1-.2,0-.4,.1-.5,.1s-.4,.1-.6,.2c-.2,.1-.4,.1-.6,.2-.2,.1-.4,.2-.6,.2l-.6,.3c-.2,.1-.4,.2-.7,.3l-.6,.3c-.2,.1-.4,.2-.6,.2s-.4,.1-.6,.2c-.2,.1-.4,.1-.6,.2-.2,0-.4,.1-.5,.1-.2,0-.3,0-.5,.1h-.9c-.1,0-.3,0-.4-.1s-.2-.1-.4-.1-.2-.1-.3-.2l-.3-.3c-.1-.1-.2-.2-.2-.3s-.1-.2-.2-.4c-.1-.2-.1-.3-.2-.4s-.2-.3-.2-.4c-.1-.1-.2-.3-.3-.4l-.3-.3-.3-.3-.3-.3c-.1-.1-.2-.2-.4-.2-.1-.1-.2-.1-.4-.2-.1,0-.3-.1-.4-.1h-1.7c-.2,0-.3,0-.5,.1-.2,0-.3,.1-.5,.1s-.3,.1-.5,.2c-.2,.1-.4,.1-.5,.2-.2,.1-.3,.1-.5,.2-.2,.1-.3,.1-.5,.2-.2,.1-.3,.2-.5,.2s-.3,.2-.5,.2-.3,.1-.5,.2c-.2,.1-.3,.1-.5,.2s-.4,.2-.6,.2c-.2,.1-.4,.1-.5,.2s-.4,.1-.5,.2-.3,.1-.5,.1-.3,0-.5,.1-.3,0-.5,0h-.4c-.1,0-.3,0-.4-.1s-.3-.1-.4-.1-.2-.1-.4-.2c-.1-.1-.2-.2-.4-.2s-.2-.2-.3-.3-.2-.2-.3-.4-.2-.3-.3-.4c-.1-.2-.2-.3-.3-.5s-.2-.4-.2-.6-.1-.3-.2-.4c-.1-.1-.1-.3-.2-.4s-.2-.3-.2-.4-.2-.3-.3-.4l-.3-.3c-.1-.1-.2-.2-.3-.2-.1-.1-.2-.1-.4-.2s-.3-.1-.4-.2c-.2,0-.3-.1-.5-.1s-.3-.1-.5-.1h-1.7c-.2,0-.4,0-.6,.1s-.4,.1-.6,.1-.4,.1-.6,.1-.4,.1-.6,.2-.4-.7-.6-.7-.4,.2-.6,.2-.4,.2-.6,.3l-.6,.3-.6,.3-.6,.3-.6,.3c-.2,.1-.4,.2-.5,.4s-.3,.2-.5,.4-.3,.3-.5,.4l-.4,.4c-.1,.1-.2,.3-.3,.4-.1,.1-.2,.3-.3,.4v-5c0-.2,0-.3-.1-.5,0-.2,0-.3-.1-.5,0-.2,0-.3-.1-.5,0-.2,0-.3-.1-.4,0-.2,0-.3-.1-.4,0-.2,0-.3-.1-.4,0-.2,0-.3-.1-.4s0-.3-.1-.4,0-.3-.1-.4l-.1-.5c0-.2-.1-.3-.1-.5s-.1-.3-.1-.5c0,0,0-.1-.1-.2"/><path class="cls-3" d="M153.03,86.52c.1-.1,.2-.3,.3-.4,.1-.1,.2-.3,.3-.4l.4-.4c.1-.1,.3-.3,.5-.4,.2-.1,.3-.3,.5-.4,.2-.1,.3-.2,.5-.4s.4-.2,.6-.3l.6-.3,.6-.3,.6-.3,.6-.3c.2-.1,.4-.2,.6-.2s.4-.1,.6-.2,.4-.1,.6-.2,.4-.1,.6-.1,.4-.1,.6-.1,.4,0,.6-.1h1.7c.2,0,.3,0,.5,.1,.2,0,.3,.1,.5,.1s.3,.1,.4,.2,.3,.1,.4,.2c.1,.1,.2,.2,.3,.2l.3,.3c.1,.1,.2,.2,.3,.4,.1,.1,.2,.3,.2,.4,.1,.1,.2,.3,.2,.4s.1,.2,.2,.4,.2,.4,.2,.6c.1,.2,.2,.3,.3,.5s.2,.3,.3,.4,.2,.2,.3,.4l.3,.3c.1,.1,.2,.2,.4,.2,.1,.1,.2,.1,.4,.2s.3,.1,.4,.1,.3,.1,.4,.1h.9c.2,0,.3,0,.5-.1,.2,0,.3-.1,.5-.1s.3-.1,.5-.2c.2-.1,.4-.1,.5-.2s.4-.1,.6-.2,.3-.1,.5-.2,.3-.1,.5-.2c.2-.1,.3-.2,.5-.2s.3-.2,.5-.2,.3-.1,.5-.2c.2-.1,.3-.1,.5-.2s.4-.1,.5-.2,.3-.1,.5-.2,.3-.1,.5-.1,.3-.1,.5-.1h1.3c.1,0,.3,.1,.4,.1s.3,.1,.4,.2c.1,.1,.2,.1,.4,.2s.2,.2,.3,.3l.3,.3,.3,.3c.1,.1,.2,.2,.3,.4,.1,.1,.2,.3,.2,.4s.2,.3,.2,.4,.1,.3,.2,.4c.1,.1,.2,.2,.2,.3s.2,.2,.3,.3,.2,.1,.3,.2,.2,.1,.4,.1c.1,0,.3,.1,.4,.1h.9c.2,0,.3,0,.5-.1,.2,0,.4-.1,.5-.1,.2,0,.4-.1,.6-.2,.2-.1,.4-.1,.6-.2s.4-.1,.6-.2l.6-.3c.2-.1,.4-.2,.7-.3,.2-.1,.5-.2,.6-.3,.2-.1,.4-.2,.6-.2l.6-.2c.2-.1,.4-.1,.6-.2,.2,0,.4-.1,.5-.1s.4-.1,.5-.1h1c.2,0,.3,.1,.5,.1s.3,.1,.4,.2,.3,.2,.4,.3,.3,.2,.4,.3c.1,.1,.2,.3,.4,.4,.1,.2,.2,.3,.3,.5l.3,.6,.3,.6c.1,.2,.2,.3,.3,.5s.2,.3,.4,.4c.1,.1,.3,.2,.4,.3s.3,.2,.5,.2,.3,.1,.5,.1,.4,0,.6,.1h.6c.2,0,.4,0,.6-.1s.4-.1,.6-.1c.2-.1,.4-.1,.6-.2s.4-.2,.6-.2,.4-.2,.6-.3l.6-.3c.2-.1,.4-.2,.5-.3,.2-.1,.3-.2,.5-.4s.3-.2,.4-.4l-.1,.6c0,.2,0,.4-.1,.5s0,.4-.1,.5l-.1,.5c0,.2,0,.3-.1,.5,0,.2,0,.3-.1,.5,0,.2,0,.3-.1,.5,0,.2,0,.3-.1,.5s0,.3-.1,.5l-.1,.5-.1,.5c0,.2,0,.3-.1,.4,0,.2,0,.3-.1,.4l-.1,.5-.1,.5c0,.2,0,.3-.1,.5,0,.2,0,.3-.1,.5s0,.3-.1,.5c0,.2-.1,.3-.1,.5s-.1,.3-.1,.5-.1,.3-.1,.5-.1,.3-.1,.5-.1,.4-.1,.5c0,.2-.1,.4-.1,.6-.2,.1-.3,.2-.5,.4s-.4,.2-.6,.3l-.6,.3-.6,.3c-.2,.1-.4,.2-.6,.2s-.4,.2-.6,.2c-.2,.1-.4,.1-.6,.2-.2,0-.4,.1-.6,.1s-.4,0-.6,.1-.4,0-.6,0-.4,0-.6-.1c-.2,0-.3-.1-.5-.2s-.3-.1-.4-.2c-.1-.1-.3-.2-.4-.3-.1-.1-.2-.2-.3-.4-.1-.1-.2-.3-.2-.5s-.1-.4-.2-.6l-.3-.6c-.1-.2-.2-.3-.3-.5-.1-.1-.2-.3-.4-.4-.1-.1-.2-.2-.4-.3-.1-.1-.3-.2-.4-.2s-.3-.1-.4-.1h-1c-.2,0-.3,0-.5,.1-.2,0-.4,.1-.5,.1-.2,0-.4,.1-.5,.2-.2,.1-.4,.1-.6,.2l-.6,.3-.6,.3-.6,.3-.6,.3c-.2,.1-.4,.2-.6,.2-.2,.1-.4,.2-.6,.2-.2,.1-.4,.1-.6,.2s-.4,.1-.5,.1c-.2,0-.4,.1-.5,.1s-.3,0-.5,.1h-.5c-.1,0-.3,0-.4-.1-.1,0-.3-.1-.4-.1s-.2-.1-.4-.2-.2-.1-.3-.2l-.3-.3-.3-.3c-.1-.1-.2-.2-.2-.3l-.2-.4c-.1-.1-.1-.2-.2-.4s-.1-.3-.2-.4c-.1-.2-.2-.3-.3-.4l-.3-.3c-.1-.1-.2-.2-.3-.2-.1-.1-.2-.1-.4-.2-.1,0-.2-.1-.4-.1-.1,0-.3,0-.4-.1h-.8c-.1,0-.3,0-.5,.1-.2,0-.3,.1-.5,.1s-.3,.1-.5,.2l-.5,.2c-.2,.1-.3,.1-.5,.2-.2,.1-.3,.2-.5,.2-.2,.1-.3,.2-.5,.2-.2,.1-.4,.2-.5,.2s-.4,.2-.6,.3l-.6,.3c-.2,.1-.4,.2-.6,.2-.2,.1-.4,.1-.6,.2-.2,0-.4,.1-.5,.1-.2,0-.4,.1-.5,.1h-1c-.1,0-.3,0-.4-.1-.1,0-.3-.1-.4-.1s-.3-.1-.4-.2c-.1-.1-.2-.1-.3-.2l-.3-.3-.3-.3c-.1-.1-.2-.3-.3-.4s-.2-.3-.3-.5-.2-.3-.2-.4-.2-.3-.2-.4c-.1-.2-.2-.3-.2-.5-.1-.2-.2-.3-.2-.4-.1-.1-.2-.2-.2-.3l-.3-.3c-.1-.1-.2-.2-.3-.2-.1-.1-.2-.1-.4-.2s-.3-.1-.4-.1c-.2,0-.3-.1-.5-.1h-1.6c-.2,0-.4,0-.6,.1s-.4,.1-.6,.1-.4,.1-.6,.2c-.2,.1-.4,.1-.6,.2s-.4,.2-.6,.2-.4,.2-.6,.3l-.6,.3-.6,.3-.6,.3c-.2,.1-.4,.2-.6,.4-.2,.1-.4,.3-.6,.4s-.4,.3-.5,.4-.3,.3-.5,.4c-.2,.2-.3,.3-.4,.5s-.3,.3-.4,.5-.2,.3-.3,.5v-12.3c0-.2,.3-.6,.3-.7"/><path class="cls-5" d="M153.33,99.42c.1-.2,.2-.3,.3-.5,.1-.2,.3-.3,.4-.5s.3-.3,.4-.5c.2-.2,.3-.3,.5-.4s.3-.3,.5-.4,.4-.3,.6-.4c.2-.1,.4-.2,.6-.4l.6-.3,.6-.3,.6-.3,.6-.3c.2-.1,.4-.2,.6-.2,.2-.1,.4-.1,.6-.2,.2-.1,.4-.1,.6-.2s.4-.1,.6-.1,.4-.1,.6-.1h1.6c.2,0,.3,0,.5,.1s.3,.1,.4,.1,.3,.1,.4,.2c.1,.1,.2,.1,.3,.2l.3,.3c.1,.1,.2,.2,.2,.3,.1,.1,.2,.3,.2,.4l.2,.5c.1,.2,.2,.3,.2,.4,.1,.1,.1,.3,.2,.4s.2,.3,.3,.5c.1,.2,.2,.3,.3,.4l.3,.3,.3,.3c.1,.1,.2,.2,.4,.2,.1,.1,.2,.1,.4,.2s.3,.1,.4,.1,.3,0,.4,.1,.3,0,.5,0h.5c.2,0,.3,0,.5-.1,.2,0,.4-.1,.5-.1,.2,0,.4-.1,.6-.2,.2-.1,.4-.2,.6-.2l.6-.3,.6-.3c.2-.1,.4-.2,.5-.2s.3-.2,.5-.2c.2-.1,.3-.2,.5-.2,.2-.1,.3-.1,.5-.2,.2-.1,.3-.1,.5-.2,.2-.1,.3-.1,.5-.2,.2,0,.3-.1,.5-.1s.3-.1,.5-.1h.8c.1,0,.3,0,.4,.1,.1,0,.3,.1,.4,.1s.2,.1,.4,.2c.1,.1,.2,.2,.3,.2l.3,.3c.1,.1,.2,.2,.3,.4s.2,.3,.2,.4c.1,.1,.1,.2,.2,.4l.2,.4c.1,.1,.2,.2,.2,.3l.3,.3,.3,.3c.1,.1,.2,.1,.3,.2s.2,.1,.4,.2c.1,0,.3,.1,.4,.1s.3,0,.4,.1h.5c.2,0,.3,0,.5-.1s.3-.1,.5-.1,.4-.1,.5-.1,.4-.1,.6-.2c.2-.1,.4-.1,.6-.2,.2-.1,.4-.2,.6-.2l.6-.3,.6-.3,.6-.3,.6-.3c.2-.1,.4-.2,.6-.2,.2-.1,.4-.1,.5-.2s.4-.1,.5-.1c.2,0,.3-.1,.5-.1h1c.1,0,.3,.1,.4,.1s.3,.1,.4,.2,.3,.2,.4,.3l.4,.4c.2,.2,.2,.3,.3,.5l.3,.6c.1,.2,.2,.4,.2,.6,.1,.2,.1,.3,.2,.5,.1,.1,.2,.3,.3,.4s.2,.2,.4,.3c.1,.1,.3,.2,.4,.2s.3,.1,.5,.2c.2,0,.4,.1,.6,.1h.6c.2,0,.4,0,.6-.1,.2,0,.4-.1,.6-.1s.4-.1,.6-.2,.4-.1,.6-.2c.2-.1,.4-.2,.6-.2l.6-.3,.6-.3,.6-.3c.2-.1,.4-.2,.5-.4,0,.2-.1,.4-.1,.6s-.1,.4-.1,.6-.1,.4-.1,.6-.1,.4-.1,.5l-.1,.5c0,.2-.1,.3-.1,.5l-.1,.5c0,.2-.1,.3-.1,.5s-.1,.3-.1,.4-.1,.3-.1,.4-.1,.3-.1,.4c0,.2-.1,.3-.1,.4s-.1,.3-.1,.4-.1,.3-.1,.4-.1,.3-.1,.4c0,.2-.1,.3-.1,.4s-.1,.3-.1,.4-.1,.3-.1,.4c0,.2-.1,.3-.1,.5s-.1,.3-.1,.5-.1,.3-.1,.5-.1,.3-.1,.5l-.6,.3-.6,.3c-.2,.1-.4,.2-.7,.3-.2,.1-.4,.2-.7,.2s-.5,.2-.7,.2-.5,.1-.7,.2-.5,.1-.7,.1-.4,.1-.7,.1h-1.2c-.2,0-.4-.1-.5-.1s-.3-.1-.5-.2-.3-.1-.4-.2l-.3-.3-.3-.3c-.1-.1-.1-.3-.2-.4,0-.2-.1-.4-.2-.6-.1-.2-.2-.4-.2-.6s-.2-.3-.3-.4l-.3-.3c-.1-.1-.2-.2-.4-.3-.1-.1-.3-.1-.4-.2s-.3-.1-.4-.1h-.9c-.2,0-.3,.1-.5,.1s-.3,.1-.5,.2-.3,.1-.5,.2-.4,.2-.5,.2-.4,.2-.5,.3-.4,.2-.5,.3-.4,.2-.6,.3l-.6,.3c-.2,.1-.4,.2-.6,.2-.2,.1-.4,.2-.6,.2-.2,.1-.4,.1-.6,.2s-.4,.1-.6,.2c-.2,0-.4,.1-.5,.1s-.4,.1-.5,.1h-1c-.1,0-.3,0-.4-.1-.1,0-.3-.1-.4-.1s-.2-.1-.4-.2-.2-.1-.3-.2l-.3-.3c-.1-.1-.2-.2-.2-.3-.1-.1-.1-.2-.2-.4s-.1-.3-.2-.5-.1-.3-.2-.5-.1-.3-.2-.4l-.3-.3-.3-.3c-.1-.1-.2-.2-.3-.2s-.2-.1-.3-.1-.2-.1-.4-.1h-.8c-.1,0-.3,0-.4,.1s-.3,.1-.4,.1-.3,.1-.5,.2-.3,.1-.5,.2-.3,.1-.5,.2-.4,.2-.5,.2l-.5,.3c-.2,.1-.4,.2-.7,.3-.2,.1-.5,.2-.7,.3s-.4,.2-.7,.3c-.2,.1-.4,.2-.6,.2s-.4,.1-.6,.2c-.2,.1-.4,.1-.5,.1-.2,0-.3,.1-.5,.1h-.9c-.1,0-.3-.1-.4-.1s-.3-.1-.4-.1c-.1-.1-.2-.1-.3-.2s-.2-.2-.3-.2l-.3-.3-.3-.3c-.1-.1-.2-.2-.3-.4-.1-.1-.2-.3-.2-.4-.1-.2-.2-.3-.2-.5-.1-.2-.1-.3-.2-.5s-.1-.3-.2-.4-.1-.2-.2-.3l-.3-.3c-.1-.1-.2-.2-.3-.2-.1-.1-.2-.1-.4-.2-.1-.1-.3-.1-.4-.1s-.3-.1-.4-.1h-1c-.2,0-.3,0-.5,.1s-.4,.1-.6,.1-.4,.1-.6,.1-.4,.1-.6,.2-.4,.1-.6,.2-.4,.2-.6,.2l-.6,.3-.6,.3-.6,.3c-.2,.1-.4,.2-.6,.4s-.4,.3-.6,.4-.4,.3-.6,.4-.3,.3-.5,.4-.3,.3-.5,.5-.3,.3-.4,.5-.3,.3-.4,.5l.1-.5c0-.2,0-.3,.1-.5,0-.2,0-.3,.1-.5v-8.5l.9-.9"/><path class="cls-4" d="M178.73,99.92h0c.2,0,.4,.1,.5,.1,.2,0,.3,.1,.5,.2,.2,.1,.3,.1,.4,.2s.2,.1,.4,.2c.1,.1,.2,.1,.3,.1s.2,0,.3-.1c.1,0,.2-.1,.3-.2l.3-.3c.1-.1,.2-.2,.3-.4,.1-.1,.2-.3,.2-.5s.1-.4,.2-.6c.1-.2,.1-.4,.2-.7s.1-.5,.1-.8,.1-.5,.1-.8c0-.2,0-.4,.1-.6v-7.9c-.1-.1-.2-.3-.3-.4-.1-.2-.2-.3-.3-.5s-.2-.3-.3-.5-.2-.3-.3-.4c-.1-.1-.2-.3-.3-.4s-.2-.3-.3-.4l-.3-.3c-.1-.1-.2-.2-.4-.2s-.2-.1-.4-.2-.3-.1-.4-.1h-.9c-.2,0-.3,0-.5,.1-.2,0-.3,.1-.5,.1s-.3,.1-.5,.2-.4,.1-.5,.2c-.2,.1-.4,.2-.5,.2-.2,.1-.4,.2-.5,.2s-.4,.2-.6,.2c-.2,.1-.4,.2-.6,.2l-.6,.3c-.2,.1-.4,.2-.7,.3v8.9c0,.2,0,.4,.1,.6s.1,.4,.1,.6,.1,.3,.2,.5c.1,.2,.1,.3,.2,.5,.1,.2,.2,.3,.3,.4,.1,.1,.2,.2,.3,.4s.2,.2,.3,.3,.2,.2,.4,.3c.1,.1,.3,.2,.4,.2s.3,.1,.4,.2c.1,0,.3,.1,.4,.1s.3,.1,.5,.1,.3,.1,.5,.1,.3,.1,.5,.1,.3,.1,.5,.1l.4,.1"/><path class="cls-3" d="M178.73,99.82h0c.2,0,.3,.1,.5,.1s.3,.1,.4,.1,.3,.1,.4,.2c.1,.1,.2,.1,.4,.2s.2,.1,.3,.2c.1,0,.2,0,.3-.1,.1,0,.2-.1,.3-.2l.3-.3c.1-.1,.2-.2,.3-.4s.2-.3,.2-.5,.1-.4,.2-.6c.1-.2,.1-.4,.2-.7s.1-.5,.1-.7,.1-.5,.1-.8c0-.2,0-.4,.1-.6v-7.9c-.1-.1-.2-.3-.3-.5s-.2-.4-.3-.5-.2-.3-.3-.5-.2-.3-.3-.4l-.3-.4-.3-.3c-.1-.1-.2-.2-.4-.3l-.4-.2c-.1,0-.3-.1-.4-.1s-.3-.1-.4-.1h-.9c-.2,0-.3,0-.5,.1s-.3,.1-.5,.1-.3,.1-.5,.2c-.2,.1-.4,.1-.5,.2-.2,.1-.4,.2-.6,.2s-.4,.2-.6,.2-.4,.2-.6,.2-.4,.2-.6,.3l-.6,.3c-.2,.1-.4,.2-.7,.3v8.8c0,.3,0,.4,.1,.6s.1,.4,.1,.5c.1,.2,.1,.3,.2,.5s.1,.3,.2,.5c.1,.1,.2,.3,.2,.4l.3,.3,.3,.3c.1,.1,.2,.2,.4,.2,.1,.1,.2,.2,.4,.2s.3,.1,.4,.2,.3,.1,.4,.1,.3,.1,.4,.1,.3,.1,.5,.1c.1,0,.3,.1,.5,.1,.1,0,.3,.1,.4,.1,.8,.2,.9,.2,1.1,.2"/><path class="cls-4" d="M183.23,87.72c.1-.2,.1-.3,.1-.5s.1-.3,.1-.4,.1-.3,.1-.4,.1-.3,.1-.4,.1-.3,.1-.4c.1-.1,.1-.3,.1-.4,.1-.2,.1-.3,.2-.5-.1-.2-.1-.3-.1-.4s-.1-.3-.1-.4-.1-.2-.1-.4-.1-.2-.1-.4-.1-.3-.1-.4c0-.2-.1-.3-.1-.5-.1-.1-.2-.1-.3-.2-.1-.1-.1-.2-.2-.3l-.3-.3c0-.2-.1-.3-.1-.5s-.1-.3-.1-.4-.1-.3-.1-.4-.1-.2-.1-.4-.1-.3-.1-.4-.1-.3-.1-.4h-.4c-.1,0-.2,0-.4,.1-.1,0-.3,.1-.5,.2-.1-.2-.2-.3-.4-.4l-.3-.3-.3-.3c-.1-.1-.2-.2-.4-.3l-.3,.3-.3,.3-.3,.3-.3,.3c-.1,.1-.2,.2-.3,.4-.2,0-.4-.1-.5-.1s-.3,0-.4-.1h-.9c-.1,.2-.2,.3-.3,.4-.1,.1-.2,.3-.2,.4s-.1,.2-.2,.4c-.1,.1-.1,.2-.2,.4-.1,.1-.2,.3-.3,.4h-1.8c-.1,.2-.2,.3-.2,.5s-.1,.3-.2,.4c-.1,.1-.1,.3-.2,.4l-.2,.4c-.1,.2-.1,.3-.2,.5,.1,.2,.1,.3,.2,.5s.1,.3,.2,.4,.1,.2,.2,.4l.2,.4c.1,.1,.1,.2,.2,.3s.1,.2,.2,.4l.2,.4c.1,.1,.2,.3,.2,.4,.1-.1,.3-.2,.4-.3s.2-.2,.4-.3c.1-.1,.2-.2,.4-.3s.2-.2,.4-.3,.2-.2,.4-.3,.3-.2,.4-.3c.1-.1,.3-.2,.4-.3l.4-.3c.1-.1,.3-.2,.4-.3s.3-.2,.4-.2,.3-.1,.4-.2c.1-.1,.3-.1,.4-.2s.3-.1,.4-.1,.3-.1,.4-.1h.8c.1,0,.3,0,.4,.1s.3,.1,.4,.2c.1,.1,.2,.1,.4,.2s.2,.2,.3,.3,.2,.2,.3,.4c.1,.1,.2,.3,.3,.4l.2,.5c.1,.2,.1,.3,.2,.5,.1,.2,.1,.3,.2,.5s.1,.4,.2,.6,.1,.4,.2,.6l.1,.2h0Z"/><path class="cls-3" d="M183.13,87.62c.1-.2,.1-.3,.1-.5,0-.1,.1-.3,.1-.4s.1-.3,.1-.4,.1-.2,.1-.4,.1-.3,.1-.4,.1-.3,.1-.4,.1-.3,.2-.5c-.1-.2-.1-.3-.1-.4s-.1-.3-.1-.4-.1-.2-.1-.4-.1-.2-.1-.4-.1-.3-.1-.4-.1-.3-.1-.5c-.1-.1-.2-.1-.3-.2s-.1-.2-.2-.3l-.3-.3c0-.2-.1-.3-.1-.5s-.1-.3-.1-.4-.1-.3-.1-.4-.1-.2-.1-.4-.1-.3-.1-.4-.1-.3-.1-.4h-.4c-.1,0-.2,0-.4,.1-.1,0-.3,.1-.5,.2-.1-.2-.2-.3-.4-.4s-.2-.2-.3-.3l-.3-.3c-.1-.1-.2-.2-.4-.3l-.3,.3-.3,.3-.3,.3-.3,.3c-.1,.1-.2,.2-.3,.4-.2,0-.4-.1-.5-.1s-.3,0-.4-.1h-.9c-.1,.2-.2,.3-.3,.4-.1,.1-.2,.3-.2,.4s-.1,.2-.2,.4c-.1,.1-.1,.2-.2,.4-.1,.1-.2,.3-.3,.4h-1.8c-.1,.2-.1,.3-.2,.5-.1,.1-.1,.3-.2,.4-.1,.1-.1,.2-.2,.4s-.1,.3-.2,.4c-.1,.1-.1,.3-.2,.5,.1,.2,.2,.3,.2,.5l.2,.4c.1,.1,.1,.3,.2,.4,.1,.1,.1,.3,.2,.4,.1,.1,.1,.3,.2,.4,.1,.1,.1,.3,.2,.4s.2,.3,.3,.5c.1-.1,.3-.2,.4-.3,.1-.1,.2-.2,.4-.3,.1-.1,.2-.2,.4-.3s.2-.2,.4-.3c.1-.1,.2-.2,.4-.3s.3-.2,.4-.3c.1-.1,.3-.2,.4-.3s.3-.2,.4-.3c.1-.1,.3-.2,.4-.3s.3-.2,.4-.2c.1-.1,.3-.1,.4-.2s.3-.1,.4-.2,.3-.1,.4-.1,.3-.1,.4-.1h.8c.1,0,.3,0,.4,.1s.3,.1,.4,.2c.1,.1,.2,.1,.4,.2l.3,.3c.1,.1,.2,.2,.3,.4,.1,.1,.2,.3,.3,.4s.2,.3,.2,.5,.1,.3,.2,.5c.1,.2,.1,.3,.2,.5s.1,.4,.2,.6c.1,.2,.1,.4,.2,.6,.1,0,.2,.2,.2,.4h0"/><path class="cls-2" d="M183.13,87.42c.1-.2,.1-.3,.1-.5s.1-.3,.1-.4,.1-.3,.1-.4,.1-.3,.1-.4c.1-.1,.1-.3,.1-.5s.1-.3,.2-.5c-.1-.2-.1-.3-.1-.5s-.1-.3-.1-.4-.1-.3-.1-.4-.1-.3-.1-.4-.1-.3-.1-.5c-.1-.1-.2-.1-.3-.2-.1-.1-.1-.2-.2-.3l-.3-.3c0,.2-.1,.3-.1,.5s-.1,.3-.1,.4-.1,.3-.1,.4-.1,.3-.1,.4-.1,.3-.1,.4,.2,.2,.2,.4-.1,.3-.1,.5c.1,.1,.1,.3,.2,.4,.1,.1,.1,.3,.2,.4,.1,.2,.1,.3,.2,.5s.1,.3,.2,.5c.1,.2,.1,.3,.1,.5,0,.1,.1,.3,.1,.4h0Z"/><path class="cls-4" d="M183.43,86.62c0-.1,.1-.2,.1-.3s.1-.2,.1-.3c-.1-.1-.1-.2-.2-.4-.1-.1-.1-.2-.2-.4-.1-.1-.1-.3-.1-.4-.1-.1-.1-.3-.1-.5s-.1-.3-.2-.5-.1-.3-.2-.5c-.1-.2-.1-.3-.2-.4,0,.2-.1,.3-.1,.4s0,.2-.1,.4c.1,.1,.1,.2,.2,.4,.1,.1,.1,.3,.2,.4,.1,.1,.1,.3,.2,.4s.1,.3,.1,.5,.1,.3,.1,.4c.1,.1,.1,.3,.1,.4,.2,.1,.2,.2,.3,.4h0"/><path class="cls-5" d="M177.83,79.52h0c-.2,0-.3-.1-.5-.1s-.3,0-.4-.1-.3,0-.4,0h-.5c-.1,.2-.2,.3-.3,.4s-.1,.3-.2,.4l-.2,.4c-.1,.1-.1,.2-.2,.4s-.2,.3-.3,.4c.1,.2,.1,.3,.2,.5s.1,.3,.1,.4,.1,.3,.1,.4,.1,.3,.1,.4,.1,.3,.1,.4,.1,.3,.1,.4c.1,.2,.1,.3,.1,.5,.1-.1,.3-.2,.4-.3,.1-.1,.3-.2,.4-.3,.1-.1,.3-.2,.4-.2s.3-.2,.4-.2,.3-.1,.4-.2c.1-.1,.3-.1,.4-.2,0-.2,0-.3-.1-.5s0-.3-.1-.5v-.8c0-.1,0-.3-.1-.4s0-.3-.1-.4c0-.1,0-.3-.1-.4,.4-.1,.4-.2,.3-.4h0"/><path class="cls-5" d="M182.63,81.62h0c0-.2-.1-.3-.1-.5s-.1-.3-.1-.4-.1-.3-.1-.4-.1-.2-.1-.4l-.1-.4c0-.1-.1-.3-.1-.4h-.4c-.1,0-.2,0-.4,.1s-.3,.1-.5,.2v3.6c.1,0,.3,.1,.4,.2,.1,.1,.2,.2,.4,.3l.3,.3c.1,.1,.2,.3,.3,.4,.1,.2,.2,.3,.3,.5,0-.2,.1-.4,.1-.5s.1-.3,.1-.5c0-.1,.1-.3,.1-.4s.1-.3,.1-.4,.1-.3,.1-.4,.1-.3,.1-.4c-.4-.2-.4-.3-.4-.5h0Z"/><path class="cls-2" d="M174.83,81.32h-1.8c-.1,.2-.1,.3-.2,.4-.1,.1-.1,.3-.2,.4-.1,.1-.1,.2-.2,.3-.1,.1-.1,.2-.2,.4s-.1,.3-.2,.4c.1,.2,.1,.3,.2,.4,.1,.1,.1,.2,.2,.4,.1,.2,.2,.3,.2,.5,.1,.1,.1,.3,.2,.4s.1,.2,.2,.4l.2,.4c.1,.1,.2,.3,.2,.4,.1-.1,.3-.2,.4-.3,.1-.1,.2-.2,.4-.3,.1-.1,.2-.2,.4-.3,.1-.1,.2-.2,.4-.3s.2-.2,.4-.3,.3-.2,.4-.3c-.1-.2-.1-.3-.1-.5-.1-.2-.1-.3-.1-.4s-.1-.3-.1-.4-.1-.3-.1-.4-.1-.3-.1-.4c-.1-.1-.1-.3-.1-.4-.3-.2-.3-.4-.4-.5h0"/><path class="cls-3" d="M178.73,99.62h0c.2,0,.4,.1,.5,.1,.2,0,.3,.1,.5,.1s.3,.1,.4,.2c.1,0,.2,.1,.4,.1,.1,0,.2,.1,.3,.1s.2,0,.3-.1,.2-.1,.3-.2l.3-.3c.1-.1,.2-.3,.3-.5s.2-.3,.2-.5c.1-.2,.1-.4,.2-.7s.1-.5,.1-.8,.1-.5,.1-.8c0-.2,0-.4,.1-.6s0-.4,0-.5v-7.2c-.1-.1-.2-.3-.3-.5s-.2-.3-.3-.5-.2-.3-.3-.5c-.1-.1-.2-.3-.3-.4s-.2-.2-.3-.4l-.3-.3c-.1-.1-.2-.2-.4-.2-.1-.1-.2-.1-.4-.2-.1,0-.3-.1-.4-.1s-.3-.1-.4-.1h-.8c-.1,0-.3,0-.5,.1-.2,0-.3,.1-.5,.1s-.3,.1-.5,.1-.3,.1-.5,.2c-.2,.1-.4,.1-.5,.2-.2,.1-.4,.2-.5,.2-.2,.1-.4,.2-.6,.2s-.4,.2-.6,.2-.4,.2-.6,.3l-.6,.3v8.7c0,.2,.1,.4,.1,.6s.1,.4,.1,.6,.1,.3,.2,.5,.1,.3,.2,.5c.1,.1,.2,.3,.3,.4l.3,.3c.1,.1,.2,.2,.4,.3,.1,.1,.2,.2,.4,.2s.3,.1,.4,.2c.1,.1,.3,.1,.4,.2s.3,.1,.5,.1c.1,0,.3,.1,.5,.1s.3,.1,.5,.1,.3,.1,.5,.1h.8"/><path class="cls-4" d="M175.93,85.82c-.1,.1-.3,.1-.4,.2-.1,.1-.3,.1-.4,.2-.1,0-.2,.1-.4,.2-.1,0-.2,.1-.4,.2-.1,0-.2,.1-.4,.2-.1,.1-.3,.1-.4,.2v2.8c.2-.1,.3-.1,.4-.2,.1-.1,.3-.1,.4-.2,.1,0,.2-.1,.4-.2,.1,0,.2-.1,.4-.2,.1,0,.2-.1,.4-.2,.1-.1,.3-.1,.4-.2v-2.8"/><path class="cls-4" d="M176.03,91.52c.2-.1,.3-.1,.5-.2,.1-.1,.3-.1,.4-.2s.3-.1,.4-.1,.3-.1,.4-.1,.3-.1,.5-.1v-2.9c-.2,0-.3,.1-.5,.1-.1,0-.3,.1-.4,.1s-.3,.1-.4,.2c-.1,0-.3,.1-.4,.2-.1,.1-.3,.1-.5,.2v2.8"/><path class="cls-4" d="M173.63,94.72v.8c.2-.1,.3-.1,.4-.2,.1-.1,.2-.1,.4-.2l.4-.2c.1,0,.2-.1,.3-.2,.1,0,.2-.1,.4-.2,.1-.1,.3-.1,.4-.2v-2.9c-.1,.1-.3,.1-.4,.2s-.2,.1-.4,.2l-.4,.2c-.1,0-.2,.1-.4,.2-.1,0-.2,.1-.4,.2s-.3,.1-.4,.2l.1,2.1"/><path class="cls-4" d="M180.23,91.02c-.1-.1-.3-.1-.4-.1s-.2,0-.4-.1-.2,0-.4,0h-.9v3h1c.1,0,.3,0,.4,.1s.3,.1,.5,.2v-2.5c0-.1,.1-.5,.2-.6"/><path class="cls-4" d="M179.83,97.02c.1,.1,.2,.2,.3,.2s.2,.2,.3,.3,.2,.2,.2,.3c.1,.1,.1,.2,.2,.4,.1,.1,.1,.3,.2,.4,0-.2,0-.3,.1-.5v-2c0-.2,0-.3,.1-.5-.1-.1-.1-.3-.2-.4s-.2-.2-.2-.3c-.1-.1-.2-.2-.2-.3-.1-.1-.2-.2-.3-.2s-.2-.2-.4-.2v2.5c-.1-.1-.1,.1-.1,.3"/><path class="cls-4" d="M180.83,100.22c.1,0,.2-.1,.3-.1s.2-.2,.3-.2l.3-.3c-.1-.1-.2-.2-.2-.3s-.1-.2-.2-.3c-.1-.1-.1-.2-.2-.3,0,.2,0,.3-.1,.5v.8c-.1-.1-.1,0-.2,.2"/><path class="cls-4" d="M175.83,97.32c.2-.1,.3-.1,.5-.2s.3-.1,.4-.2c.1,0,.3-.1,.4-.1s.3-.1,.4-.1,.3,0,.4-.1v-2.8c-.2,0-.3,0-.5,.1-.1,0-.3,.1-.4,.1s-.3,.1-.4,.1-.3,.1-.4,.2-.3,.1-.5,.2v2.3c.1,.1,.1,.3,.1,.5"/><path class="cls-4" d="M174.53,97.92l.3,.3,.3,.3c.1,.1,.2,.2,.3,.2s.2,.1,.3,.2v-1.5c-.2,.1-.3,.1-.4,.2-.1,.1-.3,.1-.4,.2-.1-.1-.2,0-.4,.1"/><path class="cls-4" d="M179.03,99.62c.1,0,.2,0,.3,.1s.2,0,.2,.1c0-.2,0-.3,.1-.5v-2.3c-.2-.1-.3-.2-.4-.2s-.3-.1-.4-.1h-.9v2.7l.3,.1,.3,.1c.1,0,.2,0,.3,.1,0-.1,.1-.1,.2-.1h0"/><path class="cls-4" d="M182.43,97.12c0-.1,0-.3,.1-.4v-2.6c-.1-.1-.2-.2-.2-.3-.1-.1-.1-.2-.2-.3-.1-.1-.1-.2-.2-.3-.1-.1-.1-.2-.2-.3-.1-.1-.2-.2-.2-.4v3.1c.1,.2,.2,.3,.3,.4,.1,.1,.2,.3,.2,.4,.1,.1,.2,.2,.3,.4s0,.1,.1,.3h0Z"/><path class="cls-4" d="M180.23,91.02c.1,.1,.3,.1,.4,.2,.1,.1,.2,.1,.3,.2l.3,.3c.1,.1,.2,.2,.2,.3s.2,.3,.2,.4v-3.1c-.1-.1-.2-.3-.3-.4l-.3-.3c-.1-.1-.2-.2-.3-.2s-.2-.1-.3-.2c-.1-.1-.2-.1-.4-.2v2.5c.2,.1,.2,.3,.2,.5"/><path class="cls-4" d="M180.43,85.02c-.1,0-.3-.1-.4-.1h-1.2c-.1,0-.3,0-.5,.1v2.9c.2,0,.3-.1,.5-.1h.8q.2,0,.4,.1c.1,0,.3,.1,.4,.1v-3"/><path class="cls-4" d="M182.93,91.02v-3c-.1-.1-.1-.2-.2-.4s-.1-.3-.2-.4c-.1-.1-.1-.2-.2-.3s-.1-.2-.2-.3-.2-.2-.3-.4v3c.1,.1,.2,.2,.2,.4,.1,.1,.1,.2,.2,.3s.1,.2,.2,.3c.1,.1,.1,.2,.2,.4,.1,.2,.2,.3,.3,.4"/><path class="cls-3" d="M174.83,83.02c.1,.1,.1,.2,.1,.4,0,.1,0,.3-.1,.4s-.1,.3-.2,.4l-.3,.3c-.1,.1-.2,.2-.3,.2-.1,.1-.3,.1-.4,.1s-.2-.1-.3-.1-.2-.2-.2-.3c.1,.1,.2,.2,.4,.2h.5c.1,0,.2-.1,.3-.2l.3-.3c.1-.1,.1-.2,.2-.4s.1-.3,.1-.4c-.1-.2-.1-.3-.1-.3h0"/><path d="M174.93,83.42h0v-.1h0v.1h0m-.8,1.3h0l.1-.1h0v-.2h0v.2h0l-.1,.1h0Zm-1-.4h0v.1h0v-.1h0m.8,.2h0l-.1,.1h-.2l.3-.1h0m.9-1.3h0v.2h-.2l.2-.2h0m0-.2h0v.1h0v-.1h0"/><path class="cls-4" d="M175.63,83.62c.1-.1,.3-.2,.4-.3,.1-.1,.3-.2,.4-.3s.3-.2,.4-.3,.3-.2,.4-.2c.1-.1,.3-.1,.4-.2,.1-.1,.3-.1,.4-.2,0-.2,0-.3-.1-.5,0-.1,0-.3-.1-.4-.1,0-.3,.1-.4,.2-.1,.1-.3,.1-.4,.2s-.3,.1-.4,.2-.3,.2-.4,.2c-.1,.1-.2,.2-.4,.2-.1,.1-.2,.2-.4,.2-.1,.1-.2,.2-.4,.3,.1,.2,.1,.3,.1,.4,.4,.2,.4,.3,.5,.5h0"/><path class="cls-4" d="M175.13,82.02l.4-.3c.1-.1,.3-.2,.4-.3,.1-.1,.3-.2,.4-.3,.1-.1,.3-.2,.4-.2,.1-.1,.3-.2,.4-.2,.1-.1,.3-.1,.4-.2,.1-.1,.3-.1,.4-.2,0-.2,0-.3-.1-.4,0-.1,0-.2-.1-.4-.1,0-.3,.1-.4,.2-.1,.1-.3,.1-.4,.2-.1,.1-.3,.1-.4,.2-.1,.1-.3,.2-.4,.2-.1,.1-.2,.2-.4,.2l-.4,.2-.4,.2c-.1,.1-.2,.2-.4,.2q.1,.2,.1,.4c0,.2,.4,.4,.5,.5"/><path class="cls-3" d="M182.33,83.62c.1,.1,.1,.2,.2,.4,.1,.1,.1,.3,.2,.4,.1,.1,.1,.3,.2,.4s.1,.3,.1,.5,.1,.3,.1,.4c.1,.1,.1,.3,.1,.4,.1,.1,.1,.2,.2,.4q0,.1-.1,.2c-.1-.1-.1-.2-.2-.4s-.1-.3-.1-.4-.1-.3-.1-.4c-.1-.2-.1-.3-.1-.5-.1-.2-.1-.3-.2-.4-.1-.1-.1-.3-.2-.4s-.1-.3-.2-.4l.1-.2m1.3,2.3l.1-.2c-.1-.1-.1-.2-.2-.4l-.2-.4c-.1-.1-.1-.3-.2-.4-.1-.1-.1-.3-.1-.5s-.1-.3-.2-.5-.1-.3-.2-.5-.1-.3-.2-.4v.2c.1,.1,.1,.3,.2,.4l.2,.5c.1,.2,.1,.3,.2,.5,.1,.2,.1,.3,.1,.5l.1,.4c.1,.1,.1,.3,.2,.4s.1,.2,.2,.4h0"/><path d="M173.33,82.22h0c.1,0,.2,.1,.3,.1,.1-.1,.2-.1,.3-.2h0v.3c.1,0,.1,.1,.2,.1h0c-.1,.1-.2,.1-.3,.2l-.1,.3h0q-.1-.1-.3-.1c-.1,.1-.2,.1-.3,.2h0q0-.2,.1-.4c-.1,0-.2-.1-.3-.1h0c.1-.1,.2-.1,.3-.2l.1-.2h0"/><path class="cls-1" d="M173.63,82.72h.6c-.1,0-.1-.1-.2-.1-.3-.1-.3,0-.4,.1"/><path class="cls-1" d="M173.03,82.82h.6c-.1,0-.1-.1-.2-.1-.2,0-.3,0-.4,.1"/><path class="cls-1" d="M173.53,82.72h-.6c.1,0,.1,.1,.2,.1,.2,0,.3,0,.4-.1"/><path class="cls-1" d="M174.13,82.62h-.6c.1,0,.1,.1,.2,.1,.2,0,.3-.1,.4-.1"/><path class="cls-1" d="M173.63,82.72c.1-.1,.1-.2,.2-.3l.2-.3c-.1,.1-.2,.1-.3,.2-.1,.1-.1,.2-.1,.4"/><path class="cls-1" d="M173.23,83.22c.1-.1,.1-.2,.2-.3s.1-.2,.2-.3c-.1,.1-.2,.1-.3,.2-.1,.2-.1,.3-.1,.4"/><path class="cls-1" d="M173.53,82.72c-.1,.1-.1,.2-.2,.3l-.1,.2c.1-.1,.2-.1,.3-.2v-.3"/><path class="cls-1" d="M173.93,82.12c-.1,.1-.1,.2-.2,.3s-.1,.2-.2,.3c.1-.1,.2-.1,.3-.2q.1-.2,.1-.4"/><path class="cls-1" d="M173.53,82.72c-.1-.2-.1-.3-.2-.4,0,.1,0,.2-.1,.3q.2,0,.3,.1"/><path class="cls-1" d="M173.83,83.12c-.1-.2-.1-.3-.2-.4,0,.1,0,.2-.1,.3,.1,.1,.2,.1,.3,.1"/><path class="cls-1" d="M173.63,82.72c.1,.2,.1,.3,.2,.4v-.3c-.1-.1-.2-.1-.2-.1"/><path class="cls-1" d="M173.33,82.22c.1,.2,.1,.3,.2,.4v-.3s-.1-.1-.2-.1"/><path d="M183.33,82.92h-.1c-.1-.1-.1-.2-.1-.4h0v.4h-.1q.1,.2,.1,.4v.4h.1c.1,.1,.1,.2,.1,.3h0v-.4s.1,0,.1-.1h0c-.1-.1-.1-.2-.2-.3,.2-.1,.1-.2,.1-.3h0"/><path class="cls-1" d="M183.23,83.32q-.1-.1-.2-.3h.1c.1,.1,.1,.2,.1,.3"/><path class="cls-1" d="M183.53,83.62c-.1-.1-.2-.1-.2-.2,0,0,.1,0,.1-.1,0,.1,0,.2,.1,.3"/><path class="cls-1" d="M183.33,83.42c.1,.1,.1,.2,.2,.2q-.1,0-.1,.1-.1-.2-.1-.3"/><path class="cls-1" d="M183.03,83.02q.1,.2,.2,.3h-.1q0-.1-.1-.3"/><path class="cls-1" d="M183.23,83.32c0-.1-.1-.2-.1-.3s0-.2-.1-.3c0,.1,.1,.2,.1,.3,.1,.1,.1,.2,.1,.3"/><path class="cls-1" d="M183.43,84.02c0-.1-.1-.2-.1-.3s-.1-.2-.1-.3c.1,.1,.1,.2,.1,.3,.1,.1,.1,.2,.1,.3"/><path class="cls-1" d="M183.33,83.42c0,.1,.1,.2,.1,.3s.1,.2,.1,.3c-.1-.1-.1-.2-.1-.3-.1-.1-.1-.2-.1-.3"/><path class="cls-1" d="M183.13,82.62c0,.1,0,.2,.1,.3s0,.2,.1,.3c-.1-.1-.1-.2-.1-.3-.1-.1-.1-.2-.1-.3"/><path class="cls-1" d="M183.33,83.32c0-.2,.1-.2,.1-.4v.4h-.1"/><path class="cls-1" d="M183.23,83.82c0-.2,.1-.2,.1-.4v.4h-.1"/><path class="cls-1" d="M183.23,83.32c0,.2-.1,.2-.1,.4v-.4c0,.1,.1,.1,.1,0"/><path class="cls-1" d="M183.33,82.92c0,.2-.1,.2-.1,.4v-.4h.1"/><path class="cls-2" d="M180.73,79.42h0c-.1-.2-.2-.3-.4-.4s-.2-.2-.3-.3l-.3-.3c-.1-.1-.2-.2-.4-.3l-.3,.3-.3,.3-.3,.3-.3,.3c-.1,.1-.2,.2-.3,.4,0,.2,0,.3,.1,.5s0,.3,.1,.4c0,.1,0,.3,.1,.4s0,.3,.1,.4v.8c0,.1,0,.3,.1,.5s0,.3,.1,.5c.1,0,.3-.1,.4-.1s.3-.1,.4-.1h.8q.2,0,.4,.1c.1,0,.2,.1,.3,.1v-3.8h0"/><path d="M179.43,80.82h0l-.1,.1v.2c0-.1-.1-.1-.1,0l-.1-.1h-.1c0,.1,.1,.1,.1,.2h0v.1h-.2c0,.1,0,.2,.1,.2h-.1l.1,.1s-.1,0-.1,.1v.1h.1v.2h.1v.1h.1v.1h0l.1-.1h0v.1h0l.1-.1,.1,.1h0v-.1h.1v-.1h.1v-.2h.1v-.1q0-.1-.1-.1c.1,0,.1-.1,.1-.1h-.1c.1-.1,.1-.2,.1-.2h-.2v-.1h0c0-.1,.1-.1,.1-.2h-.1s-.1,0-.1,.1h-.1s0-.1-.1-.1v-.1c.2,0,.1,0,.1-.1h0Z"/><path class="cls-1" d="M179.73,81.22h-.3c.1-.1,.2-.1,.3,0h0"/><path class="cls-1" d="M179.13,81.22h.6l.1-.1h-.2q-.1,0-.1,.1h0l-.1-.1-.1,.1h0c-.1-.1-.1-.2-.2,0q0-.1,0,0v-.1h-.1c0-.1,0,0,.1,.1h0"/><path class="cls-1" d="M179.73,81.32h-.7v.1h0v-.1h0v.1h0v-.1h0q0,.1,.1,.2h-.2c0,.1,.1,.1,.1,.1h0s-.1,0-.1,.1h-.1v.1h.1v.1h0v.1h0v-.1h0l-.1,.1h.1v.1h.1v.2h0v-.1h0v.1h0v-.1h0v.1h0v-.2h0v.2s.1,0,.1-.1h0v.1h0v-.1h0v.1h0v-.1h.2v-.2h.1l-.1-.1h0v-.1h0c.1,0,0,0,0,0h.1v-.1h0c.1,0,0,0,0,0h0s0-.1-.1-.1h0q.1,0,.1-.1h-.2c-.1,0,0,0,0,0h0s.1-.1,.1-.2q.5,0,.4,0,.1,0,0,0,.1,.1,0,.1h-.1q.1,0,.1-.1c0,.1,0,0,0,0h0s0,.1,0,0v.1h0s0,0,0-.1h0q.1,0,0,0,.1,0,0,0h0"/><path class="cls-1" d="M179.73,81.32h-.3c.1-.1,.2-.1,.3,0,0,0,0-.1,0,0h0Z"/><path class="cls-1" d="M179.13,81.32h.3c-.1,0-.2-.1-.3,0h0q0-.1,0,0,0-.1,0,0h0m.5-.1s-.1,0,0,0q-.1,0,0,0h0m-.4,0h0q.1,0,0,0,.1,0,0,0"/><path d="M179.43,81.02h0s-.1,0,0,0h0c-.1,0,0,0,0,0v-.1h0v.1h0m0,0h0q-.1,0,0,0h0"/><path d="M179.53,81.82s0,.1,0,0h0c-.1,.1,0,.1,0,0h0m-.3,0s.1,.1,0,0h0c.1,.1,.1,0,0,0h0m0,.1s.1,0,0,0h0q.1,0,0,0h0m.1,0h0l.1-.1h-.1v-.1h.1l-.1,.2h.1q0,.1-.1,0s0,.1,0,0h0Z"/><path d="M179.43,81.52s.1-.1,0,0l.1-.1h0c.1,0,0,0-.1,.1q.1-.1,0,0h0m0,0s-.1-.1,0,0l-.1-.1h0c-.1,0,0,0,.1,.1-.1-.1-.1,0,0,0h0Zm-.1,.1h0s.1,0,0,0h0q.1,0,0,0c.1,0,0,0,0,0h0m.1-.3h0v.1h.1l-.1-.1h0q0,.1,0,0h0m-.1,.2h0q0,.1,0,0h0Zm.1-.2s0,.1,0,0h0v.1h.2c.1,0,0,0,0,0h0v-.1h0c-.2,.2-.2,.1-.2,0h0m.2,.1h0q-.1,.1,0,0h0Z"/><path d="M179.53,81.52h0q0,.1,0,0c0,.1,.1,.1,0,0,.1,0,0,0,0,0m-.2,0h0s0,.1,0,0c0,.1-.1,.1,0,0-.1,0,0,0,0,0m0,0h0s0,.1,0,0q0,.1,0,0h0"/><path d="M178.73,79.32h0l-.1,.1v.2h-.4c.1,0,.1,.1,.1,.2h0v.1h-.1c0,.1,0,.2,.1,.2h-.1l.1,.1-.1,.1v.1h.1v.2h.1v.1h.1v.1h0l.1-.1h0l.1-.1s.1,0,.1,.1h0v-.1h.1v-.1h.1v-.1h.1v-.1s0-.1-.1-.1c.1,0,.1-.1,.1-.1h-.1c.1-.1,.1-.2,.1-.3s0-.1,0,0,0,0-.1,0h-.1v-.1h0c0-.1,.1-.2,.1-.2h-.1s-.1,0-.1,.1q-.1,0-.1,.1s0-.1-.1-.1h0c.2-.2,.1-.2,.1-.3h0"/><path class="cls-1" d="M179.13,79.62h-.4c-.2,0-.2,.1-.4,.1h0c.1,0,.2-.1,.4-.1h.4Z"/><path class="cls-1" d="M178.33,79.72c.1,0,.2-.1,.4-.1h.4l.1-.1s-.1,0-.1,.1c0,0-.1,0-.1,.1h0q-.1,0-.1,.1h0l-.1-.1-.1,.1h0s-.1-.1-.1,0h-.2q-.2-.2-.1-.1h0s0-.1,0,0h0"/><path class="cls-1" d="M179.03,79.72h0c0,.1,0,0,0,0h-.8v.1h0v-.1h0v.1h0q0,.1,.1,.2h-.2l.1,.1h0l-.1,.1h0l-.1,.1v.1h.1v.1h0v-.1c0-.1,0,0,.1-.1h-.1c-.1,0,0,0,0,.1h0v-.1h0c-.1,0,0,0-.1,.1h.1v.1h.1v.1h0v-.1h0v.1h0v-.1h0v.1h0v-.1h0v.1h0v-.2h0v.2s.1,0,.1-.1h0v-.1h0v-.1h0v-.1h.1v-.1h.1v-.1h.1v-.1h-.1s0-.1-.1-.1h0c.1,0,.1-.1,.1-.1h.6c0-.1,.1-.1,.1-.2h0v.1h-.1q0,.2-.1,.1h0l.1,.1h0v-.1h-.1q.1,0,0,0h0"/><path class="cls-1" d="M179.03,79.72h-.3c-.1,0-.2,.1-.3,.1h0c.1,0,.2-.1,.3-.1h.3"/><path class="cls-1" d="M178.43,79.82c.1,0,.2-.1,.3-.1h0c-.1,0-.2,0-.3,.1h0m.5-.2s-.1,0,0,0c-.1,.1,0,.1,0,0q0,.1,0,0h0m-.4,.1h0s0,.1,0,0c0,0,.1,0,0,0q.1,0,0,0"/><path d="M178.73,79.52h0c-.1,0,0,0,0,0v-.1h0v.1h0Z"/><path d="M178.93,80.32h0q-.1,0,0,0h0m-.3,0h0m0,.1h0c.1,0,0,0,0,0h0m0,0h0q.1,0,0,0l.1-.1h.1v.1h-.2"/><path d="M178.83,79.92h0l.1-.1h0s0,0-.1,.1h0m-.1,.1s-.1-.1,0,0h0c-.1-.1,0,0,0,0h0m0-.2s0,.1,0,0v.1h.1l-.1-.1h0c0,.1,0,0,0,0h0Zm0,.2s-.1,0,0,0h0q-.1,0,0,0h0m.1-.2h0v.1h.2l-.2-.1h0Zm.2,.1s-.1,0,0,0q-.1,0-.1,.1h0l.1-.1h0q-.1,.1,0,0h0"/><path d="M178.93,79.92s-.1,.1,0,0c-.1,.1,0,.1,0,0q0,.1,0,0h0m0,0s-.1,.1,0,0q-.1,.1,0,0,0,.1,0,0c0,.1,0,0,0,0m0,0s-.1,0,0,0q-.1,.1,0,0,0,.1,0,0h0"/><path d="M180.03,79.22h0l.1,.1v.2c0-.1,.1-.1,.1,0h.2c0,.1-.1,.1-.1,.2h0v.1h.1c0,.1,0,.2-.1,.2h.1l-.1,.1s0,.1,.1,.1v.1h-.1v.2h-.1v.1h-.1v.1h0s0-.1-.1-.1h0l-.1-.1-.1,.1h0v-.1h-.1v-.1h-.1v-.1h-.1v-.1s0-.1,.1-.1c-.1,0-.1-.1-.1-.1h.1c-.1-.1-.1-.2-.1-.2q0-.1,0,0c0,.1,0,0,.1,0h.1v-.1h0c0-.1-.1-.1-.1-.2h.1s.1,0,.1,.1c0,0,.1,0,.1,.1,0,0,0-.1,.1-.1h0q-.1-.3,0-.4h0"/><path class="cls-1" d="M179.73,79.52h.3c.1,0,.2,0,.3,.1h0c-.1,0-.2-.1-.3-.1h-.3Z"/><path class="cls-1" d="M180.33,79.62c-.1,0-.2-.1-.3-.1h-.3l-.1-.1h.2q.1,0,.1,.1h0l.1-.1,.1,.1h0s.1-.1,.1,0h.2l-.1,.1h0c.1-.1,0-.1,0,0h0"/><path class="cls-1" d="M179.73,79.72h0c0-.1,.1-.1,0,0h.6v.1h0v-.1h0v.1h.1v-.1h0q0,.1-.1,.2h.2c0,.1-.1,.1-.1,.1h0l.1,.1h-.1v.1h-.1v.1h0v-.1c0-.1,0,0-.1,0h0v.1h0v-.1h0c.1,0,0,0,.1,.1h-.1v.1h-.1v.1h0v-.1h0v.1h0v-.1h0v.1h0v-.2h0v.2s-.1,0-.1-.1h0v-.1h0v-.1h0v.1h0v-.1h-.2v-.1h-.1l.1-.1h-.1v-.1c0-.1,0,0,.1,0h-.2v-.1h.1s0-.1,.1-.1h0q-.1,0-.1-.1h.2c.1,0,0,0,0,0h0c0-.1-.1-.1-.1-.2h0c-.2,.2-.2,.3-.1,.3q-.1,0,0,0h0q-.1,0,0,0-.1-.1,0,0h0q-.1,0,0,0-.1,0,0,0h-.1c-.1-.1,0-.1,.1,0q-.1-.1,0,0h0"/><path class="cls-1" d="M179.73,79.62h.3c.1,0,.2,0,.3,.1h0c-.1,0-.2,0-.3-.1h-.3"/><path class="cls-1" d="M180.33,79.72c-.1,0-.2-.1-.3-.1h0c.1,0,.2,0,.3,.1h0s0-.1,0,0h0m-.5-.1s.1,0,0,0q.1,0,0,0h0m.4,0h0s-.1,0,0,0q-.1,0,0,0"/><path d="M179.83,80.32s.1,0,0,0h0q.1,0,0,0h0m0-.1s.1,.1,0,0h0c.1,.1,.1,0,0,0h0m.3,0s0,.1,0,0h0c-.1,.1,0,.1,0,0h0m0,.2h0q-.1,0,0,0l-.1-.1h.1q-.1,0,0,.1h0q-.1,0,0,0h-.1c-.1,0,0,0,.1,0q-.1,0,0,0-.1,0,0,0h0"/><path d="M179.93,79.92h0l-.1-.1h0s.1,0,.1,.1q0-.1,0,0h0m.1,0s.1-.1,0,0h0c.1-.1,0-.1,0,0h0m0-.2s0,.1,0,0v.1h-.2q.2,.1,.2-.1h0c0,.1,0,0,0,0h0m0,.2s.1,0,0,0h0q.1,0,0,0h0q.1,0,0,0,.1,0,0,0h0Zm-.1-.2h0v.1h-.2q.2,0,.2-.1h0Zm-.1,.1h0q.1,0,0,0h0l.1,.1h0l-.1-.1h0c.1,.1,0,.1,0,0h0c0,.1,0,0,0,0h0"/><path d="M179.93,79.92h0q-.1,0,0,0c-.1,0,0,0,0,0m0,0h0q-.1,0,0,0-.1,0,0,0m.2,0h0s0,.1,0,0c0,.1,0,0,0,0h0"/><path d="M181.03,80.22s.1,0,.1,.1v.1h.3q.1,0,.1,.1l.1,.1,.1,.2c0,.1,.1,.1,.1,.2s.1,.1,.1,.2l.1,.1h0c-.1,0-.1-.1-.2-.1s-.1-.2-.2-.2c0,.1,.1,.1,.1,.2s.1,.2,.1,.3,.1,.2,.1,.2l.1,.1h0s-.1,0-.1-.1c-.1-.1-.1-.2-.2-.3-.1-.1-.1-.2-.1-.3s-.1-.2-.1-.2l-.1-.1h0l.1,.1h-.1q-.1,0-.1-.1h0v.1h0v.1h0v.4l.1,.1s.1,.1,.1,.2h.2l.1,.1s0,.1,.1,.1q0,.1,.1,.1t.1,.1h0v.1h-.1v.1h0v.1q0,.1,0,0v.4h0v.1h-.1s0,.1-.1,.1h0v.1h-.1s-.1,0-.1-.1h0v-.1h0s0-.1,.1,0h.1v-.4h-.2v.1h0v.1h0s-.1,0-.1-.1v-.1h.1v-.1h0v-.1h0q-.1,0-.1-.1h-.2v.2h0v.1h0v.1h-.1v-.1h0v-.3h0q0,.1-.1,.1v.1h0v.1h-.1v-.2s.1,0,.1-.1v-.4h0v-.3s-.1,0,0-.1h0s0-.1,.1-.1h0v-.1h0v-.2h-.2c-.1,0-.1-.1,0-.1h0s0-.1,.1-.1h0q-.1-.5-.1-.6c0,.1,0,0,0,0h0"/><path class="cls-4" d="M181.93,81.02h0c.1,0,0,0,0,0h0c0-.1,0,0,0,0Z"/><path class="cls-4" d="M181.43,80.32s.1,0,.1,.1h0v.1h0v-.1h0l.1,.1h0l.1,.1h0s0,.1,.1,.1h0l.1,.1h0c-.1-.1-.1-.2-.2-.3h0l-.1-.1h0l-.1-.1c-.1-.1,0,.1-.1,0h0q.1,0,0,0h0"/><path class="cls-4" d="M181.33,80.32h.1c.1,.1,0,.1-.1,0q.1,.1,0,0c.1,.1,.1,0,0,0h0Z"/><path class="cls-1" d="M181.83,82.52h0s-.1,0,0,0q-.1,0,0,0h0q-.1,0,0,0h0q-.1,0-.1,.1h0v.1h-.1s-.1,0-.1-.1h.1v-.1h0v-.3h0v.1h0l.2,.2c0-.1,0,0,0,0h0"/><path class="cls-4" d="M181.73,80.82s-.1,0,0,0c-.1-.1-.1-.2-.2-.2h0v-.2h.1c.1,0,.1,.1,.1,.1v.1h0v-.1s0,.1,.1,.1c-.1,.1-.1,.2-.1,.2h0"/><path class="cls-4" d="M181.83,81.02c0-.1-.1-.1-.1-.2h0q.1,.1,.1,.2h0"/><path class="cls-4" d="M181.83,81.22h0l-.1-.2h0c.1,0,.1,.1,.1,.2h0q.1,0,0,0,.1,0,0,0h0"/><path class="cls-4" d="M181.93,81.42s-.1-.1-.1-.2h0c.1,.1,.2,.1,.1,.2h0"/><path class="cls-4" d="M182.13,81.52s0,.1,0,0c-.1,0-.1-.1-.2-.2h0s0,.1,.1,.1h0l.1,.1h0"/><path class="cls-1" d="M181.03,81.32h0c.1,0,.1-.1,0,0h0c.1-.1,.1,0,0,0q.1,0,0,0h0s0,.1,0,0h0q.1,.1,0,0,.1,.1,0,0,.1,.1,0,0h0q.1,0,0,0,.1,.1,0,0h0q.1,.1,0,0v.1h0v.1h0v.1h0v.1h0v.2l-.1,.1h0l.1,.1v-.3h0v-.1h0v-.1h0v.2h0v.4h0v.1h.1v-.1h0v-.2h0v-.1h0v.1h.1v-.1h0v.1h.1v-.1h0v.1h0v.1h0v.1h0v.2h0v0h0v.1h0v.1h0l-.1,.1h-.2c0,.1,.1,.1,.1,.1h.1v-.1s0-.1,0,0h0s.1,0,.1-.1v-.1h0v.1h.1v-.1h0v-.1h0v-.1h0v-.1h0v-.1h0v0h0v-.1h0v-.1h0v-.1h-.1v-.1h0v.1h0v-.3h0v-.1h0v-.1h0v.2h0v-.2h0v.1h0v-.2h0v.2h0v-.2h0v.1h0v-.2s0-.1-.1-.1h0v.1h0v-.1h0v.1h0v-.1h0v-.1h0v.2h0v-.2h0v-.1h0v.4h0v-.1h0v-.1h0v-.1h0v-.1h.2l-.1-.1h.1v-.2h-.1v.1h0v-.1h-.1v.1h0v-.1h-.2v.1s-.1,0-.1,.1h0v.1h0v.1h.1s.1,0,0,0h0s-.1,0,0,.1h0v.1h.1v.1h-.1c0-.1,0,0,0,.1h0v-.1h0v.1h0q0-.1,0,0h0s-.1,0,0,0c-.1,0,0,.1,0,0h0Z"/><path d="M181.93,82.02s.1,0,0,0v.2h0v-.1h0v.1h0v-.1h0v-.1c.1,.1,0,0,0,0h0"/><path d="M181.83,81.92v0h0l.1,.1h0v.2h0v-.1l-.1-.2h0Z"/><path d="M181.73,81.82h0v.1h-.1v-.1h0q.1,.1,.1,0h0Z"/><path d="M181.63,81.62s0,.1,0,0v.2h0v-.2h0q0,.1,0,0h0l.1,.1v.1h0v-.1q-.1,0-.1-.1h0q0,.1,0,0l.1,.2h0v-.1q-.1,0-.1-.1h0"/><path d="M181.63,81.82h0s0,.1,0,0h0q0,.1-.1,.1h0s0,0,.1-.1c-.1,.1,0,.1,0,0,0,.1,0,0,0,0h0Z"/><path d="M181.53,81.82h0q0,.1,0,0h0c-.1,.1,0,.1,0,0h0"/><path d="M181.33,81.02h0v.2h0v-.2c0,.1-.1,.1-.1,.1v.1h0v-.1q.1,0,.1-.1h0q0,.1,0,0h0"/><path d="M181.63,81.72h0q0,.1,0,0v.1h0v-.1h0q-.1,.1,0,0h0"/><path d="M181.53,81.72h0s0,.1,0,0q-.1,.1,0,0l-.1,.1h0l.1-.1h0q-.1,0,0,0c-.1,0-.1-.1,0,0v-.1h0q-.1,0,0,.1h0c-.1-.1-.1,0,0,0q-.1,0,0,0h0q-.1,.1,0,0,0,.1,0,0h0"/><path d="M181.23,81.32s0,.1,0,0q-.1,.1,0,0h0q-.1,.1,0,0c-.1,.1,0,0,0,0h0"/><path class="cls-1" d="M181.13,80.42s-.1,0,0,0q-.1-.1,0,0l-.1-.1h0s0,0,.1,.1h0v-.1h0c-.1-.1,0-.1,0,.1q0-.1,0,0h0Z"/><path d="M181.13,80.52s.1,0,0,0h0c.1,.1,0,0,0,0h0s.1,0,0,0q.1,.1,.1,0h-.1"/><path d="M181.23,81.02h0q.1-.1,0,0c0-.1,.1-.1,.1-.1h0l-.1,.1q.1-.1,0,0,.1-.1,0,0c.1,0,0,0,0,0h0"/><path d="M182.53,83.82s.1,0,0,0q.1,0,0,0l.1,.1-.1-.1c.1,0,.1-.1,.1-.1v-.1h0v-.2h0s0-.1,0,0h0v.3h0v.2s.1,.2,.1,.4c0,.1,.1,.2,.1,.3v.1c0,.1,.1,.1,.1,.2s.1,.2,.1,.3l.1,.2s0,.1,.1,.1c0,0,.1,.1,.1,.2s.1,.1,.1,.2v.1h-.1s0-.1-.1-.1c0-.1-.1-.1-.1-.2v-.1h0v.7h0s0-.1,0,0h0v-.2q0-.1-.1-.2s0-.1-.1-.1h0v-.1h0v-.1s0-.1,0,0v.2h0q0-.1-.1-.2c0-.1-.1-.2-.1-.2h0v-.1s0-.1-.1-.1v-.2h0v.1h0v-.1s0-.1-.1-.1v-.1h0l-.1-.1q.1-.8,.1-.9,0,.1,0,0h0q0-.1,0,0l-.1-.1s.1,0,.1,.1q0-.1,0,0h0"/><path class="cls-3" d="M183.03,85.12h0q0-.1-.1-.2c-.1-.1,0-.1-.1-.2h0v.1q0,.1,.1,.2c.1,.1,.1,0,.1,.1h0v0h0"/><path class="cls-4" d="M181.73,82.92h0q-.1,0,0,0h0q0,.1,0,0h0c0,.1,0,.2,.1,.2h.1v-.1q-.1,0-.2-.1c.1,.1,0,0,0,0"/><path class="cls-4" d="M181.03,82.02s0,.1,0,0c0,.1-.1,.1,0,0q-.1,.1,0,0,0,.1,0,0h0c-.1,.1,0,.2,.1,.2l-.1-.2h0"/><path class="cls-4" d="M181.53,82.62h0c0,.1-.1,.1,0,0q-.1,0,0,0h0q-.1,0,0,0h0q-.1,0,0,0h0q-.1-.1,0,0h0c-.1,0,0,0,0,0h0"/><path class="cls-4" d="M181.13,82.42h0s.1,0,0,0v.1h.1l-.1-.1h0q.1,0,0,0h0"/><path class="cls-4" d="M181.33,80.52h0q.1,0,.1,.1h.1v-.2h-.1l-.1,.1q.1-.1,.1,0v.1h0v-.1q0-.1-.1,0c.1-.1,0-.1,0,0h0q0-.1,0,0h0q0-.1,0,0-.1-.1,0,0h0c-.1-.1,0,0,0,0h0m-.1-.1h0c.1,0,0,0,0,0h0s0,.1,0,0"/></g></g></g></g></g><g><path class="cls-6" d="M146.43,83.44c.3,.3,.5,.6,.3,1-.3,.5-.9,.4-1.3,.2-3.3-1.7-6.5-3.8-9.4-6-2.3-1.8-4.9-3.4-7.6-4.6-1.2-.6-2.6-1-4-.9-.2,1.5-.5,3-1.1,4.4-.8,2-2.8,3.3-5,3.2-2.3-.2-2.3,0-3.1,2.3-1.1,4-5.2,6.4-9.2,5.4-2.2-.6-4.3-1.3-6.4-2.4-.3,1-.4,2.1-.2,3.1,.5,3.6,.6,7.3,1.3,10.9,.2,1.1,.4,2.3,.4,3.4,.1,1.1-.7,1.3-1.5,1.1-.8-.3-1.5-.8-2.1-1.5-3.3-3.2-6.4-6.6-9.4-10.1-1.1-1.6-2.6-2.7-4.4-3.4-.6,1.7-1,3.4-1.2,5.2-.2,.8,.3,2.1-.9,2.5-1.2,.3-1.5-1.1-2.1-1.6-1.5-1.3-2.5-3.2-4.1-4.2-6.9,10.1-1.2,29.1-1.2,29.1,0,0,1.8,6.2,1.1,7.3-.3,.6-.8,1.4-1.7,1-.7-.3-12.2-34.8-12.5-35.3-2.3,.2-4.5-.3-6.4-1.6-.5-.5-1.3-.4-1.8,.1-.1,.1-.2,.2-.2,.3-2.7,4.4-6.9,3.8-11.1,3.2-2.3-.5-4.2-2-5.2-4.2-.6-1-1-2-1.4-3-1.2,.2-1.4,1.4-2.2,1.8-.9,.5-1.6,.6-2-.6-.6-1.4-1.1-2.9-1.5-4.3-.2-1.4-1-1.4-2-.9-.7,.3-1.3,.7-2,1.2-.8,.6-1.8,.8-2.7,.8-1-.1-1.6-.5-1.4-1.7,.1-.6,.2-1.1,.3-1.7q.3-2.4-1.9-3.4c-1.3-.5-2.1-1.8-2.2-3.2,0-.8,.1-1.6,.2-2.4-2-.3-4-.3-5.4-2.1-2.9-3.8-2.4-9.2,1.1-12.5q1.7-1.5,.7-3.6c-1.5-3.3-3.2-6.5-5.2-9.6-2.8-4.8-5.5-9.7-8.1-14.6-.3-.5-.5-1-.7-1.6-.1-.2,.1-.5,.3-.7,.2-.3,.6-.1,.8,0l.6,.6c5.1,6.3,11.7,11,17.4,16.8l4.4,4.4c3.9-6.8,9.4-9.2,15.6-6.8,1.1-2.3,2.8-3.7,5.6-3.1,.9,.2,1.1-.5,1.3-1.2,.9-2.1,2.1-4.1,3.4-6,.8-1.1,1.5-1,2.2,0,1.6,2.3,3.1,4.6,4.7,6.9,.7,1.1,1.5,2.2,2.5,3,1.2-.8,1.4-2.2,2.2-3.2,1.6-2.2,1.9-2.2,4.1-.4,1.1-1.8,2.4-2.4,4.4-.8,1.2,1,1.8-.1,2.2-1.2,1.7-4.9,3.4-9.8,5.2-14.6,2.8-7.6,5.7-15.3,9.1-22.7,.2-.4,.3-1.1,.9-.9,.8,.2,.5,.9,.4,1.4-1.1,3.6-1.7,7.3-1.9,11,0,7.1-.1,14.2-.6,21.3-.1,.8,0,1.7,.4,2.4,1.1-.6,1.1-1.9,1.7-2.8,.5-.7,.6-2.1,1.8-2,1.3,.1,1,1.4,1.1,2.3,0,.5,.2,1.1,.6,1.5,1.7-2.3,4.3-3.3,6.6-4.7,2.4-1.7,5.6-1.4,7.7,.7,1,.9,1.6,1,2.8,0,2.4-2.1,7.7-2.1,10.3-.2,1.1,.8,1.6,.7,2.6-.1,3.8-2.6,7.9-1.7,11.9-.6,1.3,.4,1.7,1.8,1.8,3,.2,2,.1,4-.5,5.9,1.9,.3,3.6,1.2,4.9,2.6,2.3,2.1,2.7,3.4,1.6,6.4-.5,1.3-.9,2.2,.6,3.3,1.7,1.2,1.6,2.8,.3,4.5-1.3,1.9-3.4,3.2-5.7,3.5,.4,1.5,2.1,1.8,2.3,3.5-2.6,.2-5.2-.9-7.9,.2,3.1,4.3,5.8,8.9,9.6,12.6,2.6,2.1,4.6,5.1,7.1,7.7h0Zm-8.5-5.2c1.1,1.1,2.5,1.8,4.1,2.1-6.2-5.7-9.6-13.4-15.8-19.4,1.8-.6,2.9,.4,4.1,.2,1.2,0,2.4-.1,3.5-.5-.2-1-1.5-.9-1.4-2.2,1.1,0,1.9-1,3.3-.9,1.8,.1,3.4-.9,4.2-2.5,1.2-1.8,.6-3-1.6-3.2-.5,0-1,.1-1.3-.6,.2-1,1-1.7,1.5-2.6,2.2-3.8-.4-7.2-4.5-7.7-2.1-.3-2.1-.2-1.6-2.2,.5-1.7,.6-3.4,.5-5.1,.1-1.2-.7-2.3-1.9-2.6-2.3-.6-4.7-.8-7.1-.5-1.7,.3-3.2,1.4-3.9,3-.5,.9-1.2,.8-1.7-.2-1.6-2.9-4.4-2.6-7.1-2.5-1.4,.1-2.6,.9-3.2,2.1q-1.2,2-2.9,.2c-.7-.8-1.5-1.5-2.5-2-.9-.6-2-.8-3-.5-2.8,1.2-5.8,2.2-7.8,4.7-1.3,1.6-2.2,1.5-3.2-.2-.2-.4-.2-1-.9-1.2-.7,1.2-1.2,2.5-1.8,3.8-.5,1.2,0,2.9-2.1,3.8-1-10.9,1.1-21.5,0-32.1-.5,0-.9,.4-1,.8-2.4,6-4.7,12-6.7,18.1-1.3,3.9-2.4,7.9-3.6,11.8-.4,1.3-1.1,1.8-2.3,.9-.4-.2-.9-.4-1.3-.6-1.1-.7-1.9-.9-2.9,.5s-1.3,1.3-2.6-.2c-.2-.3-.4-.6-1-.4-1,1.2-1.7,2.5-2,4-.6,1.6-1.6,1.8-2.8,.6-.4-.4-.7-.9-1-1.4-1.7-2.4-3.4-4.9-5.1-7.3-1.2-1.6-1.5-1.6-2.6,.2-1,1.4-1.6,3-2,4.7-.3,1.9-.4,1.8-2.1,1.3-2.6-.7-3.4-.4-4.3,2.1-.5,1.3-1.1,1.4-2.1,.7-.8-.6-1.8-1.1-2.9-1.2-4.3-.4-8.5,2-10.3,6-.3,.6-.4,1.3-.7,1.9-.1,.5-.6,.8-1.1,.7-.2,0-.4-.2-.5-.3-.4-.3-.7-.6-1-1-4.8-5.2-10.1-9.7-15.2-14.5-.5-.7-1.2-1.1-2-1.1,1.6,2.8,3.1,5.6,4.8,8.3,2.4,4,4.5,8.2,6.8,12.4,.5,.9,1.3,2-.3,2.6-3.6,1.5-4.1,4.6-4,7.9,0,3.5,2.3,5.3,5.8,5.2,.9,0,1.9-.5,2.6,.4,0,.8-.7,1.2-1,1.8-.9,2-.2,3.3,2,3.8,1.7,.4,2.4,1.4,2.1,3.1-.1,.5-.2,.9-.3,1.4-.1,.6-.4,1.2,.2,1.6,.5,.4,1.1-.1,1.6-.3,.8-.4,1.5-.9,2.2-1.3,2.4-1.2,3.2-.8,3.8,1.8,0,1.2,.5,2.4,1.3,3.4,1-.1,1.4-1,2.2-1.3,1.5-.8,2.2-.5,2.7,1.2,.2,.6,.3,1.3,.5,1.9,.7,2.3,2.5,4,4.9,4.5,1.6,.3,3.2,.4,4.9,.2,1.7-.1,3.2-.9,4.1-2.3,.4-.6,1-1.2,1.5-1.7,.8-.7,1.5-1,2.5-.1,1.6,1.5,3.8,2.1,5.9,1.7,2-.3,2.5,.8,2.8,2.5,.3,1.7,1.1,4.9,1.1,4.9l5.8,19.1s3,8.3,3.2,9.4c.9-.5,.4-2.2,.4-2.2,0,0-5.9-18.8-3.6-26.2,2.3-7.5,2.2-6.2,2.6-8.9,.2-1.3,1.2-1.3,2.2-.8,1.2,.8,2.3,1.7,3.1,2.9,.5,.9,1.3,1.7,2.3,2.1,.4-1.9,.8-3.5,1.1-5.2,.4-2.4,.9-2.6,2.9-1.2,2.5,1.8,4.6,4.1,6.3,6.6,2.2,2.9,5.4,4.7,7.8,8.1,.3-1.4,.3-2.9,0-4.3-.6-4.2-1.1-8.4-1.2-12.6-.3-1.3-.1-2.6,.7-3.7,2,3.3,5.1,4.3,8.5,4.8,3.3,.5,6.4-1.8,6.9-5.1,0-.2,0-.3,.1-.5,.1-.8-.7-1.8,.2-2.4,.9-.6,1.8,.1,2.8,.1h1.4c2.3-.1,3.1-.6,3.8-2.8,.5-1,.5-2.1,0-3-.6-1,0-1.3,.9-1.5,1.4-.3,2.9-.1,4.2,.4,3.4,1.2,6.9,3.3,10.1,5.8h0Z"/><path class="cls-3" d="M141.93,80.24c-1.5-.3-2.9-1-4.1-2.1-3.2-2.5-6.6-4.6-10.3-6.2-1.3-.6-2.8-.7-4.2-.4-.9,.2-1.5,.5-.9,1.5,.5,.9,.5,2.1,0,3-.7,2.2-1.4,2.7-3.8,2.8h-1.4c-.9-.1-1.9-.7-2.8-.1s-.1,1.6-.2,2.4c0,.2,0,.3-.1,.5-.5,3.3-3.6,5.6-6.9,5.1-3.4-.5-6.5-1.4-8.5-4.8-.7,1.1-1,2.4-.7,3.7,.2,4.2,.6,8.4,1.2,12.6,.3,1.4,.3,2.9,0,4.3-2.4-3.4-5.6-5.1-7.8-8.1-1.7-2.6-3.9-4.8-6.3-6.6-2.1-1.3-2.5-1.2-2.9,1.2-.3,1.7-.7,3.4-1.1,5.2-1-.4-1.8-1.1-2.3-2.1-.8-1.2-1.9-2.2-3.1-2.9-1-.6-2-.6-2.2,.8-.4,2.7-.3,1.4-2.6,8.9-2.3,7.4,3.6,26.2,3.6,26.2,0,0,.4,1.7-.4,2.2-.2-1.1-3.2-9.4-3.2-9.4l-5.8-19.1s-.8-3.2-1.1-4.9c-.3-1.7-.8-2.8-2.8-2.5-2.1,.4-4.3-.2-5.9-1.7-1-.9-1.7-.6-2.5,.1-.6,.5-1.1,1.1-1.5,1.7-.9,1.4-2.4,2.2-4.1,2.3-1.6,.2-3.3,.1-4.9-.2-2.3-.5-4.2-2.2-4.9-4.5-.2-.6-.3-1.3-.5-1.9-.5-1.7-1.1-2-2.7-1.2-.8,.4-1.2,1.3-2.2,1.3-.8-.9-1.2-2.2-1.3-3.4-.6-2.6-1.4-3-3.8-1.8-.8,.4-1.5,.9-2.2,1.3-.5,.2-1,.7-1.6,.3-.6-.4-.3-1-.2-1.6,.1-.5,.2-.9,.3-1.4,.3-1.7-.4-2.7-2.1-3.1-2.2-.5-2.8-1.7-2-3.8,.2-.6,1-1,1-1.8-.7-.9-1.7-.5-2.6-.4-3.5,.2-5.8-1.7-5.8-5.2,0-3.2,.5-6.4,4-7.9,1.6-.7,.8-1.7,.3-2.6-2.2-4.1-4.3-8.3-6.8-12.3-1.4-2.3-2.9-5.1-4.3-7.9,.8,.1,1.5,.5,2,1.1,5.1,4.8,10.5,9.3,15.2,14.5,.3,.4,.7,.7,1,1,.1,.2,.3,.3,.5,.3,.5,.1,1-.2,1.1-.7,.3-.6,.4-1.3,.7-1.9,1.8-4,5.9-6.3,10.3-6,1,.2,2,.6,2.9,1.2,1,.7,1.6,.6,2.1-.7,.9-2.5,1.7-2.9,4.3-2.1,1.7,.5,1.8,.5,2.1-1.3,.3-1.7,1-3.3,2-4.7,1.1-1.8,1.4-1.8,2.6-.2,1.7,2.4,3.4,4.9,5.1,7.3,.3,.5,.7,1,1,1.4,1.2,1.2,2.2,1,2.8-.6,.4-1.5,1.1-2.8,2-4,.5-.2,.7,.1,1,.4,1.3,1.5,1.5,1.6,2.6,.2,1-1.3,1.8-1.1,2.9-.5,.4,.2,.9,.4,1.3,.6,1.3,.8,1.9,.4,2.3-.9,1.2-3.9,2.3-7.9,3.6-11.8,2-6.1,4.3-12.1,6.7-18.1,.1-.5,.5-.8,1-.8,1.1,10.6-1,21.3,0,32.1,2-.8,1.6-2.6,2.1-3.8,.5-1.3,1.1-2.6,1.8-3.8,.7,.3,.6,.8,.9,1.2,1.1,1.7,1.9,1.8,3.2,.2,2-2.5,4.9-3.5,7.7-4.8,1-.3,2.2-.1,3,.5,.9,.5,1.8,1.2,2.5,2,1.6,1.8,1.7,1.8,2.9-.2,.6-1.2,1.8-2,3.2-2.1,2.7-.2,5.5-.5,7.1,2.5,.5,.9,1.2,1.1,1.7,.2,.7-1.6,2.2-2.7,3.9-3,2.4-.3,4.8-.1,7.1,.5,1.1,.4,1.9,1.4,1.9,2.6,.1,1.7,0,3.5-.5,5.1-.6,2.1-.5,2,1.6,2.2,4.2,.5,6.7,3.9,4.5,7.7-.5,.9-1.3,1.6-1.5,2.6,.3,.7,.8,.5,1.3,.6,2.2,.2,2.9,1.5,1.6,3.2-.8,1.6-2.5,2.6-4.2,2.5-1.4-.2-2.2,.9-3.3,.9-.1,1.3,1.2,1.2,1.4,2.2-1.1,.4-2.3,.6-3.5,.5-1.2,.2-2.3-.8-4.1-.2,6.1,6,9.5,13.7,15.6,19.4h0Z"/></g><g class="cls-14"><path class="cls-6" d="M52.63,58.84c-.2,.2-.3,.5-.3,.8v1.1c.1,.4,.2,.7,.3,1.1,.1,.4,.3,.7,.5,1s.4,.5,.7,.7c.2,.2,.5,.3,.7,.2,.3,0,.6-.2,.8-.6s.4-.9,.6-1.5c.2-.8,.3-1.6,.4-2.5,0-.9,0-1.7-.1-2.6s-.2-1.7-.4-2.6c-.2-.9-.4-1.7-.5-2.5-.1-.4-.1-.7,0-.9s.4-.3,.8-.3h.6c.2,0,.4,.2,.4,.4,.4,1.4,.7,2.9,1,4.4s.3,3,.2,4.5c0,.4-.1,.9-.2,1.3-.1,.4-.2,.9-.3,1.3-.2,.9-.6,1.6-1.2,2.1-.6,.5-1.3,.7-2.2,.8-.8,0-1.5-.2-2.2-.7-.6-.5-1.1-1.1-1.5-2-.2-.5-.3-1-.3-1.4,0-.5,.1-1,.2-1.4,.1-.3,.3-.5,.7-.7,.2-.1,.4-.1,.6-.1,.2,0,.4,0,.7,.1Z"/><path class="cls-6" d="M61.53,55.74c.3-.1,.6-.2,.8-.3,.3-.1,.5-.2,.8-.3,.1,0,.3-.1,.5-.1h.5c.1,0,.2,0,.3,.1s.2,.1,.2,.3-.1,.3-.2,.3-.2,.1-.4,.1c-.4,.2-.8,.3-1.2,.4-.4,.1-.8,.3-1.2,.4,.2,.7,.3,1.4,.5,2.1l.6,2.1c.1,0,.3-.1,.4-.1s.2-.1,.3-.1c.4-.1,.8-.2,1.3-.4,.4-.1,.8-.3,1.3-.4,.2-.1,.4-.1,.5-.1,.2,0,.4,.1,.5,.2,0,.2,0,.3-.1,.3,.1,0,0,.1-.1,.1l-1.4,.6c-.4,.2-.9,.3-1.3,.5s-.9,.3-1.3,.5c-.3,.1-.5,.1-.7,.2-.2,0-.4,.1-.7,.1s-.4,0-.5-.1-.1-.2-.2-.5c-.2-.8-.4-1.6-.7-2.3-.2-.8-.4-1.5-.6-2.3-.2-.9-.4-1.9-.6-2.8-.2-.9-.3-1.9-.5-2.8v-.2c0-.3-.1-.5-.1-.7s.1-.4,.1-.5c.1-.1,.2-.3,.4-.4,.2-.1,.4-.2,.6-.4,.4-.2,.8-.3,1.2-.4,.4-.1,.8-.1,1.2-.1h2c.2,0,.4,.1,.6,.1,.2,.1,.2,.2,.2,.3s0,.2-.2,.3-.3,.1-.5,.2c-.2,.1-.3,.1-.5,0-.4-.1-.9-.1-1.3,0-.4,0-.8,.1-1.3,.1-.2,0-.4,.1-.5,.1-.1,.1-.1,.2-.1,.5s.1,.6,.1,.9,.1,.6,.1,.9c.1,.6,.2,1.1,.4,1.7,.1,.6,.3,1.1,.4,1.7q0,.1,.1,.1,.3,0,.3,.1Z"/><path class="cls-6" d="M70.03,59.24c.4-.2,.9-.4,1.3-.5,.4-.2,.8-.3,1.2-.5,.4-.2,.9-.3,1.3-.4,.4-.1,.9-.2,1.3-.4,.2-.1,.3-.1,.5-.1s.3,.1,.5,.2c0,.2-.1,.3-.3,.4-.1,.1-.3,.1-.4,.2-.5,.2-1,.3-1.5,.5s-1,.3-1.5,.5c-.3,.1-.6,.3-.9,.5s-.6,.3-.9,.5-.6,.3-.9,.4c-.3,.1-.6,.2-.9,.2s-.5-.1-.6-.1c-.1-.1-.2-.3-.3-.5-.1-.4-.1-.7-.2-1.1-.1-.4-.1-.7-.2-1.1-.1-1.2-.2-2.3-.3-3.5,0-1.1,0-2.3-.1-3.5,0-.4,0-.8-.1-1.2,0-.4-.1-.8-.1-1.2,0-.3,.1-.4,.2-.5,.3-.1,.6-.2,1-.2,.3,0,.5,.1,.6,.5,0,.3,.1,.6,.1,.9s.1,.6,.1,.9l.3,3.9,.3,3.9c0,.2,0,.4,.1,.6,.4,.3,.4,.5,.4,.7Z"/><path class="cls-6" d="M75.13,47.44v-1.6c0-.2,0-.4,.1-.5s.2-.2,.5-.2h.4c.3,0,.4,.1,.4,.3s0,.4-.1,.7c0,.3-.1,.5-.2,.8s-.2,.3-.4,.4c-.1,.2-.4,.2-.7,.1Z"/></g><g class="cls-14"><path class="cls-6" d="M36.63,73.94c.3-.8,.7-1.4,1.1-1.9,.5-.4,1-.7,1.5-.8,.5-.1,1.1,0,1.6,.3,.6,.3,1.1,.8,1.6,1.5,1,1.3,1.7,2.6,2,4,.4,1.4,.4,2.8,.1,4.3-.1,.6-.4,1.2-.7,1.7s-.8,.9-1.4,1.1c-1,.4-1.9,.5-2.7,.2-.8-.2-1.6-.9-2.2-1.9-.4-.6-.8-1.3-1-2.1-.2-.7-.4-1.5-.5-2.2-.1-.8-.1-1.5,0-2.3,.2-.6,.4-1.3,.6-1.9Zm6.3,3.3c-.2-.7-.4-1.3-.7-1.8-.2-.5-.5-1-.8-1.4-.3-.5-.7-.8-1-1.1-.3-.3-.6-.5-.8-.5-.3-.1-.5,0-.7,.3-.2,.2-.4,.6-.7,1.2-.3,.9-.4,1.8-.4,2.7s.1,1.8,.3,2.8c.1,.5,.3,1.1,.5,1.6s.5,1,.8,1.5c.2,.3,.4,.5,.6,.7,.2,.2,.5,.4,.8,.5,.2,.1,.4,.1,.6,.1s.3-.1,.5-.3c.4-.4,.7-.9,.9-1.4,.3-.8,.4-1.6,.4-2.5,0-.8-.1-1.6-.3-2.4Z"/></g><g class="cls-14"><path class="cls-6" d="M40.93,70.24c.2-.2,.3-.4,.5-.5s.4-.1,.6-.1c.7-.1,1.3-.2,1.9-.4,.6-.2,1.3-.4,1.9-.6l1.8-.6,1.8-.6c.3-.1,.5-.1,.8-.1h.4c.2,0,.3,.1,.4,.2-.1,.3-.2,.5-.3,.7-.2,.2-.4,.3-.7,.3-.2,0-.4,0-.6,.1h-.8c-.3,.1-.6,.2-.8,.3l-.9,.3,.1,.6c.3,1.5,.6,3,.9,4.4,.3,1.5,.6,2.9,1,4.4,.1,.7,.3,1.3,.4,1.9,.2,.6,.3,1.3,.5,1.9,.1,.3,.1,.5,0,.6,0,.1-.2,.2-.5,.3-.3,.1-.6,.2-1,.2-.2,0-.4,0-.5-.1s-.2-.3-.2-.5c-.5-1.7-.9-3.3-1.2-5l-.9-5.1-.3-1.5c-.1-.5-.2-1-.3-1.6l-.6,.1-1.2,.3c-.4,.1-.8,.2-1.2,.2-.2,0-.4,.1-.6,.1,.1,.1-.1,0-.4-.2Z"/></g><g class="cls-14"><path class="cls-6" d="M51.63,68.94c.3-.3,.6-.5,1-.5s.7,.1,.9,.5c.3,.4,.5,.7,.8,1.1,.2,.4,.5,.8,.7,1.2,.5,.9,1,1.8,1.5,2.8s1,1.8,1.5,2.8c0,.1,.1,.2,.2,.3,.1,.1,.1,.2,.2,.4,0-.1,.1-.2,.1-.3v-.2c.2-1.7,.4-3.3,.7-5,.3-1.6,.6-3.3,1-4.9,.1-.2,.1-.3,.2-.5,.1-.2,.2-.3,.4-.3,.2-.1,.5-.2,.7-.2,.2-.1,.5,0,.7,0,.1,0,.1,.1,.2,.1,.1,.1,.1,.2,.1,.2,0,.3-.1,.6-.2,.9-.3,1.6-.6,3.1-.9,4.7s-.5,3.1-.7,4.7c-.1,.6-.1,1.1-.1,1.7,0,.5-.1,1.1-.1,1.7,0,.2,0,.4-.1,.5,0,.1-.1,.2-.1,.3-.1,.1-.2,.2-.3,.2-.1,.1-.3,.1-.5,.2h-1.1c-.1,0-.2-.1-.2-.2-.1-.1-.1-.2-.2-.4-.7-1.3-1.4-2.6-2-3.8-.7-1.3-1.4-2.5-2-3.8-.5-1-1.1-2-1.6-3-.1-.2-.2-.4-.4-.5-.1-.4-.3-.6-.4-.7Z"/></g><g class="cls-14"><path class="cls-6" d="M64.63,67.74c.3-.8,.7-1.4,1.1-1.9,.5-.4,1-.7,1.5-.8,.5-.1,1.1,0,1.6,.3,.6,.3,1.1,.8,1.6,1.5,1,1.3,1.7,2.6,2,4,.4,1.4,.4,2.8,.1,4.3-.1,.6-.4,1.2-.7,1.7-.3,.5-.8,.9-1.4,1.1-1,.4-1.9,.5-2.7,.2-.8-.2-1.6-.9-2.2-1.9-.4-.6-.8-1.3-1-2.1-.2-.7-.4-1.5-.5-2.2-.1-.8-.1-1.5,0-2.3,.2-.5,.3-1.2,.6-1.9Zm6.2,3.4c-.2-.7-.4-1.3-.7-1.8-.2-.5-.5-1-.8-1.4-.3-.5-.7-.8-1-1.1-.3-.3-.6-.5-.8-.5-.3-.1-.5,0-.7,.3-.2,.2-.4,.6-.7,1.2-.3,.9-.4,1.8-.4,2.7s.1,1.8,.3,2.8c.1,.5,.3,1.1,.5,1.6s.5,1,.8,1.5c.2,.3,.4,.5,.6,.7s.5,.4,.8,.5c.2,.1,.4,.1,.6,.1s.3-.1,.5-.3c.4-.4,.7-.9,.9-1.4,.3-.8,.4-1.6,.4-2.5,.1-.9,0-1.7-.3-2.4Z"/><path class="cls-6" d="M78.63,72.34c.7,.2,1.3,.4,1.9,.6l1.8,.6,1.8,.6c.6,.2,1.2,.4,1.9,.6l-.3,.3-.2,.2-.9,.3c-.3,.1-.6,0-.9-.1-1-.3-1.9-.6-2.9-.9-.9-.3-1.9-.6-2.9-.9-.2-.1-.3-.1-.5-.2s-.4-.1-.6-.2v.4c.1,.4,.2,.9,.3,1.3,.1,.4,.2,.9,.3,1.3,0,.2,.1,.4,0,.5,0,.1-.2,.2-.3,.2-.2,.1-.4,.1-.7,.2-.2,0-.5,.1-.7,.1-.3,0-.4-.1-.5-.5,0-.3-.1-.7-.2-1s-.2-.6-.3-1c-.2-.9-.4-1.8-.5-2.7l-.6-2.7c-.2-.8-.4-1.5-.6-2.3s-.5-1.5-.8-2.2c-.1-.2-.1-.3-.2-.4s-.1-.3-.2-.5c.3-.2,.5-.4,.7-.6,.2-.2,.5-.4,.8-.6,2-1.3,4.2-1.9,6.6-1.7,.8,.1,1.6,.3,2.3,.8,1.3,.9,1.9,2.1,1.7,3.7-.1,.8-.3,1.5-.7,2.2-.3,.7-.8,1.4-1.2,2-.8,1.1-1.8,1.9-3.1,2.5-.1,0-.1,.1-.2,.1s0-.1-.1,0Zm-4.8-8.8c.4,.7,.7,1.3,.9,2,.2,.7,.5,1.4,.7,2.1l.6,2.1c.2,.7,.4,1.4,.5,2.1h.2c1.4-.6,2.5-1.5,3.3-2.5,.8-1.1,1.4-2.4,1.6-3.9,.1-.6,.1-1.1-.1-1.5-.1-.4-.3-.8-.6-1.1-.3-.3-.6-.6-1-.8s-.8-.3-1.2-.4c-.5-.1-1-.1-1.4,0-.5,.1-.9,.2-1.4,.3l-1.2,.6c-.2,.4-.5,.7-.9,1Z"/><path class="cls-6" d="M88.03,66.84c.3-.1,.6-.2,.8-.3,.3-.1,.5-.2,.8-.3,.1,0,.3-.1,.5-.1h.5c.1,0,.2,0,.3,.1,.1,0,.2,.1,.2,.3s-.1,.3-.2,.3-.2,.1-.4,.1c-.4,.2-.8,.3-1.2,.4-.4,.1-.8,.3-1.2,.4,.2,.7,.3,1.4,.5,2.1l.6,2.1c.1,0,.3-.1,.4-.1s.2-.1,.3-.1c.4-.1,.8-.2,1.3-.4,.4-.1,.8-.3,1.3-.4,.2-.1,.4-.1,.5-.1s.4,.1,.5,.2c0,.2,0,.3-.1,.3-.1,.1-.2,.1-.2,.2l-1.4,.6c-.4,.2-.9,.3-1.3,.5s-.9,.3-1.3,.5c-.3,.1-.5,.1-.7,.2-.2,0-.4,.1-.7,.1s-.4,0-.5-.1-.1-.2-.2-.5c-.2-.8-.4-1.6-.7-2.3-.2-.8-.4-1.5-.6-2.3-.2-.9-.4-1.9-.6-2.8s-.3-1.9-.5-2.8v-.2c0-.3-.1-.5-.1-.7s.1-.4,.1-.5c.1-.1,.2-.3,.4-.4s.4-.2,.6-.4c.4-.2,.8-.3,1.2-.4,.4-.1,.8-.1,1.2-.1h2c.2,0,.4,.1,.6,.1,.2,.1,.2,.2,.2,.3s0,.2-.2,.3-.3,.1-.5,.2c-.2,.1-.3,.1-.5,0-.4-.1-.9-.1-1.3,0-.4,0-.8,.1-1.3,.1-.2,0-.4,.1-.5,.1-.1,.1-.1,.2-.1,.5s.1,.6,.1,.9,.1,.6,.1,.9c.1,.6,.2,1.1,.4,1.7,.1,.6,.3,1.1,.4,1.7q0,.1,.1,.1c.4-.1,.4,0,.4,0Z"/><path class="cls-6" d="M94.63,63.54c0,.1,0,.2,.1,.3,0,.1,0,.2,.1,.3,.2,.8,.4,1.6,.5,2.4,.2,.8,.4,1.6,.5,2.4,.1,.4,.1,.8,.2,1.1,0,.4,.1,.8,.1,1.1,0,.2,0,.4-.1,.5s-.2,.2-.4,.2h-.4c-.2,0-.3,0-.4-.1s-.1-.2-.1-.4c0-.3-.1-.5-.1-.8s-.1-.5-.1-.8l-.9-3.9-.9-3.9c0-.1-.1-.3-.1-.4s-.1-.3-.1-.4c0-.2,0-.4,.1-.5s.2-.2,.4-.3c.7-.3,1.3-.2,1.8,.4,.3,.3,.5,.6,.7,.9,.2,.3,.4,.6,.7,.9,.6,.8,1.1,1.6,1.7,2.3,.6,.8,1.1,1.6,1.7,2.3l.6,.6c0-.2-.1-.5-.1-.7s-.1-.4-.1-.7c-.1-.5-.2-1.1-.3-1.8-.1-.7-.2-1.4-.3-2.2s-.2-1.5-.2-2.2c-.1-.7-.1-1.3-.2-1.8v-1.2c0-.1,0-.2,.1-.3,0-.1,.1-.2,.2-.2,.4-.1,.7-.2,1.1-.2,.2,0,.4,.1,.4,.4s0,.5,.1,.8c0,.3,.1,.5,.1,.8,0,.6,.1,1.3,.2,2.1s.2,1.6,.2,2.5c.1,.8,.2,1.7,.3,2.5,.1,.8,.2,1.5,.3,2.1,0,.3,.1,.7,.1,1s.1,.7,.1,1c0,.2,0,.3-.1,.4s-.2,.2-.3,.2c-.3,.2-.7,.3-.9,.2-.3,0-.6-.2-.9-.4-1-.9-1.9-1.9-2.7-2.9-.8-1.1-1.5-2.1-2.3-3.2l-.4-.5q.1,.1,0,.1h0Z"/><path class="cls-6" d="M103.13,59.24c.3-.8,.7-1.4,1.1-1.9,.5-.4,1-.7,1.5-.8s1.1,0,1.6,.3,1.1,.8,1.6,1.5c1,1.3,1.7,2.6,2,4,.4,1.4,.4,2.8,.1,4.3-.1,.6-.4,1.2-.7,1.7-.3,.5-.8,.9-1.4,1.1-1,.4-1.9,.5-2.7,.2-.8-.2-1.6-.9-2.2-1.9-.4-.6-.8-1.3-1-2.1s-.4-1.5-.5-2.2c-.1-.8-.1-1.5,0-2.3,.1-.5,.3-1.2,.6-1.9Zm6.2,3.4c-.2-.7-.4-1.3-.7-1.8-.2-.5-.5-1-.8-1.4-.3-.5-.7-.8-1-1.1s-.6-.5-.8-.5c-.3-.1-.5,0-.7,.3-.2,.2-.4,.6-.7,1.2-.3,.9-.4,1.8-.4,2.7s.1,1.8,.3,2.8c.1,.5,.3,1.1,.5,1.6s.5,1,.8,1.5c.2,.3,.4,.5,.6,.7s.5,.4,.8,.5c.2,.1,.4,.1,.6,.1s.3-.1,.5-.3c.4-.4,.7-.9,.9-1.4,.3-.8,.4-1.6,.4-2.5,0-.8-.1-1.6-.3-2.4Z"/><path class="cls-6" d="M117.43,64.44c-.3,.2-.6,.2-.9,.2s-.6-.1-.8-.2h0c-.6-.4-.9-.8-.9-1.2s.2-.9,.7-1.5,1-1.2,1.6-1.7,1.1-1.1,1.7-1.6c.4-.4,.9-.8,1.3-1.2l1.2-1.2c.2-.2,.4-.4,.5-.6,.2-.2,.3-.4,.4-.6,.2-.3,.3-.6,.2-.7-.1-.2-.3-.3-.7-.3-.4-.1-.7-.1-1.1-.1-.3,0-.7,.1-1.1,.2-1.5,.3-2.7,.9-3.8,1.6-1,.7-1.8,1.7-2.4,3-.1,.2-.2,.5-.2,.7v.7c.1,0,.2,.1,.3,.1s.2,.1,.4,.1c-.1,0-.2,.1-.2,.1-.1,0-.1,.1-.2,.1-.5,.2-.9,.2-1.3,.1-.2,0-.3-.1-.4-.2s-.2-.2-.2-.4c-.1-.3-.1-.6,0-.9l.3-.9c.4-.8,.9-1.5,1.5-2,.6-.6,1.3-1.1,2.1-1.5,1.2-.6,2.3-1,3.5-1.2s2.4-.2,3.7,0c.2,0,.4,.1,.6,.1,.2,.1,.3,.1,.5,.2,.5,.2,.7,.6,.4,1.1l-.3,.6c-.1,.2-.2,.4-.4,.5l-.9,.9-.9,.9c-.5,.5-1,1-1.5,1.4-.5,.5-1,.9-1.5,1.4s-1,1.1-1.4,1.6c-.3,.4-.5,.8-.5,1.1s.2,.6,.5,.9l.1,.1q0,.1,.1,.3,0-.1,0,0c0-.1,0,0,0,0Zm.5,2.8c-.5,.1-1,.1-1.5,0-.3-.1-.4-.3-.3-.6,.1-.3,.3-.5,.6-.7,.2-.2,.5-.3,.9-.3,.5-.1,.8,0,.9,.1,.1,.2,.2,.3,.1,.5l-.3,.6c-.2,.3-.3,.4-.4,.4Z"/></g></g></g></svg>